{"glyphs":{"0":{"ha":629,"x_min":72,"x_max":557,"o":"m 426 724 q 314 838 426 838 q 228 808 253 838 q 203 724 203 779 l 203 218 q 228 133 203 163 q 314 104 253 104 q 426 218 426 104 l 426 724 m 72 726 q 132 893 72 831 q 315 956 192 956 q 497 893 438 956 q 557 726 557 831 l 557 214 q 497 48 557 110 q 315 -14 438 -14 q 132 48 192 -14 q 72 214 72 110 l 72 726 z "},"1":{"ha":403,"x_min":17,"x_max":317,"o":"m 317 942 l 317 0 l 186 0 l 186 796 l 17 674 l 17 819 l 185 942 l 317 942 z "},"2":{"ha":574,"x_min":57,"x_max":513,"o":"m 251 949 q 513 740 513 949 l 513 660 q 488 537 513 586 q 407 447 464 488 l 294 363 q 210 286 231 317 q 189 199 189 256 l 189 118 l 511 118 l 511 0 l 57 0 l 57 208 q 92 344 57 293 q 196 444 126 396 l 314 536 q 368 593 354 563 q 382 676 382 624 l 382 729 q 354 803 382 779 q 240 828 326 828 q 72 796 153 828 l 72 922 q 251 949 149 949 z "},"3":{"ha":557,"x_min":36,"x_max":485,"o":"m 217 949 q 481 739 481 949 l 481 643 q 381 476 481 511 q 485 318 485 449 l 485 203 q 419 48 485 103 q 230 -7 353 -7 q 36 19 107 -7 l 36 144 q 207 113 121 113 q 324 138 293 113 q 354 214 354 164 l 354 303 q 328 384 354 357 q 240 411 301 411 l 142 411 l 142 532 l 239 532 q 324 561 299 532 q 349 646 349 590 l 349 729 q 319 803 349 778 q 203 829 290 829 q 54 806 117 829 l 54 929 q 217 949 113 949 z "},"4":{"ha":586,"x_min":14,"x_max":579,"o":"m 579 286 l 579 171 l 486 171 l 486 0 l 361 0 l 361 171 l 14 171 l 14 292 l 301 942 l 486 942 l 486 286 l 579 286 m 364 286 l 364 818 l 131 286 l 364 286 z "},"5":{"ha":590,"x_min":72,"x_max":526,"o":"m 79 942 l 501 942 l 501 821 l 208 821 l 208 564 q 311 569 257 569 q 472 515 418 569 q 526 360 526 461 l 526 203 q 460 48 526 103 q 276 -7 394 -7 q 72 22 157 -7 l 72 147 q 253 113 174 113 q 363 138 332 113 q 394 213 394 164 l 394 346 q 369 426 394 401 q 281 451 344 451 q 79 436 250 451 l 79 942 z "},"6":{"ha":614,"x_min":72,"x_max":557,"o":"m 426 383 q 321 483 426 483 q 203 457 250 483 l 203 217 q 315 101 203 101 q 426 217 426 101 l 426 383 m 72 717 q 137 885 72 821 q 325 949 201 949 q 519 922 449 949 l 519 799 q 340 828 446 828 q 203 707 203 828 l 203 572 q 351 597 257 597 q 501 544 444 597 q 557 392 557 492 l 557 214 q 497 48 557 110 q 315 -14 438 -14 q 132 48 192 -14 q 72 214 72 110 l 72 717 z "},"7":{"ha":481,"x_min":7,"x_max":451,"o":"m 7 942 l 451 942 l 451 838 l 350 525 q 283 139 283 317 l 283 0 l 150 0 l 150 147 q 219 540 150 328 l 308 822 l 7 822 l 7 942 z "},"8":{"ha":640,"x_min":72,"x_max":568,"o":"m 567 732 l 567 639 q 479 469 567 517 q 568 299 568 421 l 568 208 q 506 46 568 106 q 320 -14 444 -14 q 134 46 196 -14 q 72 208 72 106 l 72 299 q 161 469 72 421 q 74 639 74 517 l 74 732 q 135 895 74 835 q 320 956 196 956 q 506 896 444 956 q 567 732 567 836 m 204 732 l 204 636 q 320 522 204 522 q 436 636 436 522 l 436 732 q 320 842 436 842 q 204 732 204 842 m 439 210 l 439 301 q 320 417 439 417 q 201 301 201 417 l 201 210 q 320 100 201 100 q 439 210 439 100 z "},"9":{"ha":614,"x_min":57,"x_max":542,"o":"m 411 725 q 299 840 411 840 q 188 725 188 840 l 188 553 q 294 447 188 447 q 411 474 372 447 l 411 725 m 57 726 q 117 893 57 831 q 300 956 176 956 q 483 894 424 956 q 542 726 542 832 l 542 211 q 475 52 542 111 q 284 -7 408 -7 q 86 21 160 -7 l 86 146 q 272 113 171 113 q 411 222 411 113 l 411 357 q 265 332 361 332 q 113 387 168 332 q 57 542 57 442 l 57 726 z "},"\u0000":{"ha":0,"x_min":0,"x_max":0,"o":""},"\r":{"ha":0,"x_min":0,"x_max":0,"o":""}," ":{"ha":261,"x_min":0,"x_max":0,"o":""},"!":{"ha":378,"x_min":113,"x_max":265,"o":"m 189 -10 q 151 -10 189 -10 q 113 67 113 -10 q 189 143 113 143 q 265 67 265 143 q 189 -10 265 -10 m 118 942 l 258 942 l 242 260 l 135 260 l 118 942 z "},"\"":{"ha":540,"x_min":114,"x_max":424,"o":"m 114 1047 l 228 1047 l 228 735 l 114 735 l 114 1047 m 308 1047 l 424 1047 l 424 735 l 308 735 l 308 1047 z "},"#":{"ha":778,"x_min":51,"x_max":733,"o":"m 733 585 l 615 585 l 579 340 l 683 340 l 683 239 l 565 239 l 531 0 l 417 0 l 451 239 l 272 239 l 238 0 l 124 0 l 158 239 l 51 239 l 51 340 l 172 340 l 208 585 l 101 585 l 101 685 l 222 685 l 257 925 l 372 925 l 338 685 l 515 685 l 550 925 l 664 925 l 629 685 l 733 685 l 733 585 m 465 340 l 501 585 l 322 585 l 288 340 l 465 340 z "},"$":{"ha":560,"x_min":36,"x_max":521,"o":"m 521 282 l 521 204 q 326 0 521 31 l 326 -94 l 204 -94 l 204 -6 q 44 22 107 -1 l 44 147 q 238 114 136 114 q 389 217 389 114 l 389 264 q 374 328 389 306 q 317 374 358 351 l 160 460 q 36 658 36 526 l 36 742 q 217 943 36 913 l 217 1026 l 339 1026 l 339 947 q 479 924 422 943 l 479 799 q 297 828 404 828 q 168 732 168 828 l 168 678 q 185 608 168 633 q 247 557 203 582 l 408 467 q 521 282 521 406 z "},"%":{"ha":850,"x_min":49,"x_max":801,"o":"m 633 -11 q 467 199 467 -11 q 634 408 467 408 q 801 199 801 408 q 760 44 801 100 q 633 -11 718 -11 m 633 79 q 668 79 633 79 q 703 199 703 79 q 633 318 703 318 q 563 199 563 318 q 633 79 563 79 m 90 589 q 69 617 90 589 q 49 743 49 644 q 90 897 49 842 q 215 953 132 953 q 383 743 383 953 q 215 533 383 533 q 90 589 132 533 m 146 742 q 146 682 146 742 q 215 622 146 622 q 285 742 285 622 q 215 863 285 863 q 146 742 146 863 m 576 942 l 669 942 l 274 0 l 181 0 l 576 942 z "},"&":{"ha":654,"x_min":74,"x_max":636,"o":"m 636 542 l 636 429 l 575 429 l 575 217 q 513 51 575 113 q 326 -11 450 -11 q 138 51 203 -11 q 74 217 74 114 l 74 322 q 179 489 74 451 q 75 656 75 526 l 75 735 q 144 892 75 835 q 335 949 213 949 q 528 926 458 949 l 528 801 q 365 828 457 828 q 239 801 272 828 q 206 724 206 774 l 206 657 q 313 542 206 542 l 449 542 l 449 626 l 575 626 l 575 542 l 636 542 m 449 219 l 449 429 l 315 429 q 204 315 204 429 l 204 219 q 326 104 204 104 q 449 219 449 104 z "},"'":{"ha":347,"x_min":114,"x_max":232,"o":"m 114 1047 l 232 1047 l 232 735 l 114 735 l 114 1047 z "},"(":{"ha":424,"x_min":93,"x_max":344,"o":"m 344 1114 q 245 801 283 975 q 207 456 207 626 q 245 111 207 286 q 344 -203 283 -64 l 231 -203 q 131 105 169 -74 q 93 456 93 283 q 131 806 93 629 q 231 1114 169 983 l 344 1114 z "},")":{"ha":424,"x_min":78,"x_max":331,"o":"m 193 1114 q 292 806 254 983 q 331 456 331 629 q 292 105 331 283 q 193 -203 254 -74 l 78 -203 q 177 111 139 -64 q 215 456 215 286 q 177 801 215 626 q 78 1114 139 975 l 193 1114 z "},"*":{"ha":713,"x_min":71,"x_max":644,"o":"m 299 976 l 299 1111 l 415 1111 l 415 976 q 404 894 415 928 q 479 931 435 915 l 608 972 l 644 861 l 517 819 q 433 804 471 804 q 492 744 461 785 l 571 635 l 476 565 l 396 675 q 357 747 368 715 q 318 675 346 715 l 239 565 l 144 635 l 224 744 q 282 804 254 785 q 199 819 244 804 l 71 861 l 106 972 l 235 931 q 310 894 279 915 q 299 976 299 928 z "},"+":{"ha":638,"x_min":60,"x_max":578,"o":"m 578 510 l 578 399 l 379 399 l 379 194 l 258 194 l 258 399 l 60 399 l 60 510 l 258 510 l 258 714 l 379 714 l 379 510 l 578 510 z "},",":{"ha":232,"x_min":13,"x_max":197,"o":"m 136 142 q 197 88 197 142 q 86 -178 197 17 l 13 -178 l 71 142 l 136 142 z "},"-":{"ha":351,"x_min":56,"x_max":303,"o":"m 56 510 l 303 510 l 303 399 l 56 399 l 56 510 z "},".":{"ha":249,"x_min":47,"x_max":200,"o":"m 124 -10 q 85 -10 124 -10 q 47 67 47 -10 q 124 143 47 143 q 200 67 200 143 q 124 -10 200 -10 z "},"/":{"ha":557,"x_min":47,"x_max":529,"o":"m 413 1115 l 529 1115 l 163 -203 l 47 -203 l 413 1115 z "},":":{"ha":303,"x_min":47,"x_max":200,"o":"m 124 -10 q 85 -10 124 -10 q 47 67 47 -10 q 124 143 47 143 q 200 67 200 143 q 124 -10 200 -10 m 200 553 q 200 515 200 553 q 124 476 200 476 q 47 553 47 476 q 124 631 47 631 q 200 553 200 631 z "},";":{"ha":303,"x_min":13,"x_max":200,"o":"m 200 553 q 200 515 200 553 q 124 476 200 476 q 47 553 47 476 q 124 631 47 631 q 200 553 200 631 m 136 142 q 197 88 197 142 q 86 -178 197 17 l 13 -178 l 71 142 l 136 142 z "},"<":{"ha":660,"x_min":56,"x_max":581,"o":"m 581 715 l 581 597 l 169 454 l 581 310 l 581 192 l 56 389 l 56 517 l 581 715 z "},"=":{"ha":632,"x_min":51,"x_max":576,"o":"m 51 379 l 576 379 l 576 269 l 51 269 l 51 379 m 51 638 l 576 638 l 576 528 l 51 528 l 51 638 z "},">":{"ha":657,"x_min":71,"x_max":597,"o":"m 71 715 l 597 517 l 597 389 l 71 192 l 71 310 l 483 454 l 71 597 l 71 715 z "},"?":{"ha":544,"x_min":44,"x_max":479,"o":"m 206 -10 q 167 -10 206 -10 q 129 67 129 -10 q 206 143 129 143 q 282 67 282 143 q 206 -10 282 -10 m 217 956 q 479 749 479 956 l 479 618 q 431 460 479 517 q 267 401 382 403 l 260 260 l 150 260 l 143 504 l 221 504 q 321 533 290 504 q 351 619 351 561 l 351 739 q 323 812 351 789 q 208 835 294 835 q 44 808 121 835 l 44 933 q 217 956 121 956 z "},"@":{"ha":1214,"x_min":96,"x_max":1131,"o":"m 736 -168 l 614 -168 q 213 -27 331 -168 q 96 384 96 114 q 215 796 96 654 q 614 938 333 938 q 1022 792 908 938 q 1106 622 1081 718 q 1131 394 1131 526 q 1069 115 1131 200 q 890 31 1008 31 q 726 104 772 31 q 583 67 672 67 q 410 225 410 67 l 410 250 q 445 358 410 319 q 554 421 481 396 l 696 468 l 696 546 q 677 606 696 586 q 601 626 658 626 q 439 601 544 626 l 439 696 q 608 718 522 718 q 800 550 800 718 l 800 233 q 823 154 800 178 q 902 131 846 131 q 988 188 958 131 q 1018 376 1018 246 q 1001 581 1018 506 q 942 717 985 656 q 614 835 860 835 q 285 711 369 835 q 225 572 242 649 q 208 385 208 494 q 226 198 208 275 q 286 58 243 121 q 614 -64 372 -64 l 736 -64 l 736 -168 m 517 253 l 517 224 q 593 157 517 157 q 696 188 649 157 l 696 372 l 594 340 q 534 310 551 326 q 517 253 517 293 z "},"A":{"ha":629,"x_min":18,"x_max":610,"o":"m 482 0 l 431 250 l 197 250 l 146 0 l 18 0 l 224 942 l 407 942 l 610 0 l 482 0 m 219 363 l 407 363 l 313 819 l 219 363 z "},"B":{"ha":660,"x_min":86,"x_max":588,"o":"m 579 728 l 579 646 q 479 476 579 514 q 588 301 588 440 l 588 214 q 530 55 588 110 q 360 0 472 0 l 86 0 l 86 942 l 351 942 q 522 887 464 942 q 579 728 579 832 m 336 829 l 217 829 l 217 532 l 336 532 q 450 640 450 532 l 450 722 q 336 829 450 829 m 458 219 l 458 308 q 344 415 458 415 l 217 415 l 217 113 l 344 113 q 458 219 458 113 z "},"C":{"ha":554,"x_min":72,"x_max":508,"o":"m 72 740 q 139 894 72 839 q 340 949 206 949 q 504 928 429 949 l 504 807 q 343 831 422 831 q 234 806 264 831 q 204 731 204 781 l 204 210 q 235 136 204 161 q 347 111 265 111 q 508 133 429 111 l 508 15 q 339 -7 436 -7 q 72 201 72 -7 l 72 740 z "},"D":{"ha":657,"x_min":86,"x_max":586,"o":"m 456 726 q 346 832 456 832 l 217 832 l 217 114 l 346 114 q 456 224 456 114 l 456 726 m 86 942 l 358 942 q 528 886 469 942 q 586 731 586 831 l 586 217 q 531 58 586 115 q 364 0 476 0 l 86 0 l 86 942 z "},"E":{"ha":561,"x_min":86,"x_max":515,"o":"m 86 942 l 515 942 l 515 826 l 217 826 l 217 533 l 476 533 l 476 418 l 217 418 l 217 114 l 515 114 l 515 0 l 86 0 l 86 942 z "},"F":{"ha":528,"x_min":86,"x_max":503,"o":"m 86 942 l 503 942 l 503 826 l 218 826 l 218 510 l 488 510 l 488 393 l 218 393 l 218 0 l 86 0 l 86 942 z "},"G":{"ha":631,"x_min":72,"x_max":558,"o":"m 72 733 q 141 892 72 835 q 350 949 210 949 q 526 925 444 949 l 526 800 q 351 828 443 828 q 204 722 204 828 l 204 211 q 326 111 204 111 q 429 135 394 111 l 429 475 l 558 475 l 558 49 q 331 -7 457 -7 q 139 45 206 -7 q 72 201 72 97 l 72 733 z "},"H":{"ha":703,"x_min":86,"x_max":617,"o":"m 483 942 l 617 942 l 617 0 l 483 0 l 483 404 l 218 404 l 218 0 l 86 0 l 86 942 l 218 942 l 218 521 l 483 521 l 483 942 z "},"I":{"ha":303,"x_min":86,"x_max":218,"o":"m 86 942 l 218 942 l 218 0 l 86 0 l 86 942 z "},"J":{"ha":307,"x_min":-6,"x_max":221,"o":"m 89 942 l 221 942 l 221 279 q 174 -62 221 100 l 131 -207 l -6 -207 l 36 -61 q 89 278 89 121 l 89 942 z "},"K":{"ha":622,"x_min":86,"x_max":604,"o":"m 86 942 l 217 942 l 217 0 l 86 0 l 86 942 m 451 942 l 592 942 l 401 476 l 604 0 l 458 0 l 263 474 l 451 942 z "},"L":{"ha":500,"x_min":86,"x_max":493,"o":"m 86 942 l 218 942 l 218 113 l 493 113 l 493 0 l 86 0 l 86 942 z "},"M":{"ha":864,"x_min":86,"x_max":778,"o":"m 778 942 l 778 0 l 653 0 l 653 446 q 667 725 653 589 l 492 247 l 371 247 l 196 725 q 210 447 210 596 l 210 0 l 86 0 l 86 942 l 232 942 l 432 383 l 632 942 l 778 942 z "},"N":{"ha":707,"x_min":86,"x_max":621,"o":"m 492 942 l 621 942 l 621 0 l 482 0 q 197 739 264 557 q 203 675 197 724 q 214 407 214 554 l 214 0 l 86 0 l 86 942 l 226 942 q 461 336 419 453 q 508 204 503 219 q 501 327 508 217 q 492 540 493 438 l 492 942 z "},"O":{"ha":647,"x_min":72,"x_max":575,"o":"m 444 722 q 324 836 444 836 q 203 722 203 836 l 203 219 q 324 104 203 104 q 444 219 444 104 l 444 722 m 72 726 q 135 893 72 831 q 323 956 199 956 q 511 892 447 956 q 575 726 575 829 l 575 214 q 511 49 575 111 q 324 -14 447 -14 q 136 49 200 -14 q 72 214 72 111 l 72 726 z "},"P":{"ha":622,"x_min":86,"x_max":568,"o":"m 438 719 q 326 826 438 826 l 217 826 l 217 422 l 326 422 q 438 531 438 422 l 438 719 m 86 942 l 339 942 q 509 886 450 942 q 568 731 568 831 l 568 519 q 509 364 568 419 q 339 308 450 308 l 217 308 l 217 0 l 86 0 l 86 942 z "},"Q":{"ha":647,"x_min":72,"x_max":643,"o":"m 324 -14 q 136 49 200 -14 q 72 214 72 111 l 72 726 q 135 893 72 831 q 323 956 199 956 q 511 892 447 956 q 575 726 575 829 l 575 214 q 489 31 575 90 l 643 -135 l 483 -135 l 369 -11 q 324 -14 342 -14 m 203 722 l 203 219 q 324 104 203 104 q 444 219 444 104 l 444 722 q 324 836 444 836 q 203 722 203 836 z "},"R":{"ha":644,"x_min":86,"x_max":600,"o":"m 217 367 l 217 0 l 86 0 l 86 942 l 339 942 q 509 886 450 942 q 568 732 568 831 l 568 582 q 450 383 568 428 l 600 0 l 456 0 l 321 367 l 217 367 m 217 828 l 217 476 l 328 476 q 412 503 386 476 q 438 583 438 529 l 438 724 q 328 828 438 828 l 217 828 z "},"S":{"ha":560,"x_min":36,"x_max":521,"o":"m 36 742 q 101 894 36 840 q 285 949 165 949 q 479 924 404 949 l 479 799 q 297 828 404 828 q 168 732 168 828 l 168 678 q 185 608 168 633 q 247 557 203 582 l 408 467 q 521 282 521 406 l 521 204 q 450 48 521 103 q 251 -7 379 -7 q 44 22 122 -7 l 44 147 q 238 114 136 114 q 389 217 389 114 l 389 264 q 374 328 389 306 q 317 374 358 351 l 160 460 q 36 658 36 526 l 36 742 z "},"T":{"ha":511,"x_min":11,"x_max":501,"o":"m 501 942 l 501 826 l 322 826 l 322 0 l 190 0 l 190 826 l 11 826 l 11 942 l 501 942 z "},"U":{"ha":658,"x_min":79,"x_max":579,"o":"m 449 942 l 579 942 l 579 214 q 516 49 579 111 q 329 -14 453 -14 q 142 49 206 -14 q 79 214 79 111 l 79 942 l 210 942 l 210 219 q 329 104 210 104 q 449 219 449 104 l 449 942 z "},"V":{"ha":610,"x_min":15,"x_max":594,"o":"m 458 942 l 594 942 l 397 0 l 214 0 l 15 942 l 149 942 q 276 290 251 429 q 306 121 300 150 q 340 313 318 178 q 371 494 363 449 l 458 942 z "},"W":{"ha":839,"x_min":22,"x_max":817,"o":"m 697 942 l 817 942 l 671 0 l 532 0 q 421 740 438 579 q 383 442 408 588 l 311 0 l 167 0 l 22 942 l 143 942 l 219 456 l 251 203 q 285 456 267 331 l 360 942 l 482 942 l 556 456 l 589 207 q 619 456 604 351 l 697 942 z "},"X":{"ha":575,"x_min":15,"x_max":561,"o":"m 419 942 l 561 942 l 356 469 l 561 0 l 418 0 l 289 326 l 157 0 l 15 0 l 218 469 l 15 942 l 157 942 l 289 613 l 419 942 z "},"Y":{"ha":597,"x_min":4,"x_max":594,"o":"m 365 0 l 233 0 l 233 310 l 4 942 l 139 942 l 218 719 q 301 454 261 594 q 383 719 340 590 l 463 942 l 594 942 l 365 310 l 365 0 z "},"Z":{"ha":549,"x_min":36,"x_max":510,"o":"m 43 942 l 510 942 l 510 832 l 172 113 l 508 113 l 508 0 l 36 0 l 36 113 l 369 829 l 43 829 l 43 942 z "},"[":{"ha":443,"x_min":117,"x_max":394,"o":"m 225 -101 l 394 -101 l 394 -206 l 117 -206 l 117 1125 l 394 1125 l 394 1022 l 225 1022 l 225 -101 z "},"\\":{"ha":583,"x_min":49,"x_max":542,"o":"m 49 1125 l 167 1125 l 542 -206 l 422 -206 l 49 1125 z "},"]":{"ha":443,"x_min":47,"x_max":326,"o":"m 47 1125 l 326 1125 l 326 -206 l 47 -206 l 47 -101 l 217 -101 l 217 1022 l 47 1022 l 47 1125 z "},"^":{"ha":492,"x_min":3,"x_max":483,"o":"m 483 535 l 356 535 l 243 875 l 131 535 l 3 535 l 164 951 l 324 951 l 483 535 z "},"_":{"ha":697,"x_min":6,"x_max":692,"o":"m 6 -11 l 692 -11 l 690 -117 l 6 -117 l 6 -11 z "},"`":{"ha":486,"x_min":160,"x_max":326,"o":"m 160 1011 l 271 1011 l 326 860 l 249 860 l 160 1011 z "},"a":{"ha":596,"x_min":39,"x_max":517,"o":"m 168 229 l 168 188 q 190 119 168 142 q 274 97 211 97 q 390 140 338 97 l 390 372 l 258 336 q 186 298 204 321 q 168 229 168 275 m 78 779 q 279 806 157 806 q 517 590 517 806 l 517 0 l 392 0 l 392 57 q 231 -4 331 -4 q 39 189 39 -4 l 39 235 q 79 360 39 313 q 208 433 119 408 l 390 483 l 390 590 q 363 665 390 642 q 245 688 335 688 q 78 660 156 688 l 78 779 z "},"b":{"ha":628,"x_min":86,"x_max":556,"o":"m 424 599 q 339 681 424 681 q 217 653 289 681 l 217 119 l 315 119 q 424 219 424 119 l 424 599 m 86 1011 l 217 1011 l 217 772 q 374 803 292 803 q 506 756 457 803 q 556 621 556 710 l 556 206 q 499 53 556 106 q 347 0 442 0 l 86 0 l 86 1011 z "},"c":{"ha":517,"x_min":72,"x_max":474,"o":"m 72 594 q 317 806 72 806 q 472 786 404 806 l 472 665 q 331 685 403 685 q 231 661 260 685 q 203 586 203 638 l 203 211 q 231 136 203 160 q 333 113 260 113 q 474 135 407 113 l 474 13 q 317 -7 393 -7 q 72 204 72 -7 l 72 594 z "},"d":{"ha":626,"x_min":72,"x_max":542,"o":"m 410 681 l 315 681 q 203 575 203 681 l 203 207 q 294 114 203 114 q 410 153 368 114 l 410 681 m 410 1011 l 542 1011 l 542 0 l 413 0 l 413 50 q 263 -4 356 -4 q 121 47 169 -4 q 72 192 72 97 l 72 579 q 132 740 72 682 q 299 799 192 799 l 410 799 l 410 1011 z "},"e":{"ha":604,"x_min":72,"x_max":542,"o":"m 72 211 l 72 594 q 131 753 72 694 q 308 813 189 813 q 485 753 428 813 q 542 594 542 694 l 542 340 l 200 340 l 200 218 q 234 136 200 163 q 353 110 268 110 q 519 135 439 110 l 519 15 q 342 -7 436 -7 q 72 211 72 -7 m 200 446 l 418 446 l 418 593 q 309 701 418 701 q 200 593 200 701 l 200 446 z "},"f":{"ha":388,"x_min":35,"x_max":388,"o":"m 114 835 q 322 1038 114 1038 q 388 1032 360 1038 l 388 925 q 338 929 367 929 q 244 836 244 929 l 244 799 l 382 799 l 382 692 l 244 692 l 244 0 l 114 0 l 114 692 l 35 692 l 35 799 l 114 799 l 114 835 z "},"g":{"ha":624,"x_min":44,"x_max":601,"o":"m 601 747 l 554 747 q 500 735 522 747 q 539 606 539 686 l 539 492 q 480 340 539 394 q 301 285 421 286 q 236 224 236 285 q 253 182 236 194 q 315 169 271 169 l 396 169 q 593 4 593 169 l 593 -19 q 328 -207 593 -207 l 274 -207 q 44 -158 122 -207 l 44 -36 q 271 -96 136 -96 l 315 -96 q 433 -76 399 -96 q 468 -18 468 -57 l 468 -6 q 451 44 468 28 q 383 60 433 60 l 299 60 q 119 181 119 60 l 119 203 q 193 297 119 281 q 53 492 53 338 l 53 606 q 113 758 53 704 q 282 813 174 813 q 449 779 390 813 q 581 868 478 868 l 601 868 l 601 747 m 408 493 l 408 604 q 382 680 408 656 q 296 704 356 704 q 210 680 236 704 q 183 604 183 656 l 183 493 q 210 417 183 442 q 296 393 236 393 q 382 417 356 393 q 408 493 408 442 z "},"h":{"ha":632,"x_min":86,"x_max":553,"o":"m 86 1011 l 217 1011 l 217 772 q 369 803 288 803 q 501 757 450 803 q 553 621 553 711 l 553 0 l 419 0 l 419 599 q 338 681 419 681 q 217 651 275 681 l 217 0 l 86 0 l 86 1011 z "},"i":{"ha":303,"x_min":75,"x_max":228,"o":"m 228 945 q 228 907 228 945 q 151 868 228 868 q 75 945 75 868 q 151 1022 75 1022 q 228 945 228 1022 m 86 789 l 217 789 l 217 0 l 86 0 l 86 789 z "},"j":{"ha":303,"x_min":-32,"x_max":228,"o":"m 228 945 q 228 907 228 945 q 151 868 228 868 q 75 945 75 868 q 151 1022 75 1022 q 228 945 228 1022 m 86 789 l 217 789 l 217 4 q 165 -153 217 -96 q 11 -210 113 -210 q -32 -206 -17 -210 l -32 -87 q 3 -90 -10 -90 q 66 -67 46 -90 q 86 4 86 -44 l 86 789 z "},"k":{"ha":572,"x_min":86,"x_max":553,"o":"m 86 1011 l 214 1011 l 214 0 l 86 0 l 86 1011 m 403 799 l 538 799 l 381 417 l 553 0 l 413 0 l 246 419 l 403 799 z "},"l":{"ha":303,"x_min":86,"x_max":217,"o":"m 86 1011 l 217 1011 l 217 0 l 86 0 l 86 1011 z "},"m":{"ha":967,"x_min":86,"x_max":888,"o":"m 510 747 q 697 801 604 801 q 838 756 789 801 q 888 621 888 710 l 888 0 l 756 0 l 756 599 q 672 681 756 681 q 546 643 606 681 q 553 600 553 628 l 553 0 l 419 0 l 419 599 q 338 681 419 681 q 217 650 278 681 l 217 0 l 86 0 l 86 799 l 211 799 l 211 763 q 381 801 300 801 q 510 747 461 801 z "},"n":{"ha":632,"x_min":86,"x_max":553,"o":"m 211 763 q 377 801 300 801 q 503 755 454 801 q 553 621 553 708 l 553 0 l 419 0 l 419 599 q 338 681 419 681 q 217 650 278 681 l 217 0 l 86 0 l 86 799 l 211 799 l 211 763 z "},"o":{"ha":617,"x_min":72,"x_max":546,"o":"m 415 592 q 308 699 415 699 q 201 592 201 699 l 201 207 q 308 100 201 100 q 415 207 415 100 l 415 592 m 72 594 q 131 753 72 694 q 308 813 189 813 q 487 753 428 813 q 546 594 546 694 l 546 204 q 487 45 546 104 q 308 -14 428 -14 q 131 45 189 -14 q 72 204 72 104 l 72 594 z "},"p":{"ha":628,"x_min":86,"x_max":556,"o":"m 424 599 q 339 681 424 681 q 217 650 278 681 l 217 119 l 317 119 q 424 221 424 119 l 424 599 m 211 761 q 374 801 292 801 q 506 756 457 801 q 556 621 556 710 l 556 207 q 499 53 556 107 q 349 0 443 0 l 217 0 l 217 -207 l 86 -207 l 86 799 l 211 799 l 211 761 z "},"q":{"ha":626,"x_min":72,"x_max":542,"o":"m 410 681 l 318 681 q 203 571 203 681 l 203 211 q 296 115 203 115 q 410 153 367 115 l 410 681 m 303 799 l 542 799 l 542 -207 l 411 -207 l 411 32 q 268 -3 357 -3 q 72 201 72 -3 l 72 574 q 133 738 72 678 q 303 799 193 799 z "},"r":{"ha":408,"x_min":86,"x_max":401,"o":"m 369 803 l 401 803 l 401 679 l 360 679 q 217 626 294 679 l 217 0 l 86 0 l 86 799 l 211 799 l 211 740 q 227 751 215 743 q 242 762 239 760 q 256 771 246 764 q 271 779 267 778 q 284 785 275 781 q 299 792 293 790 q 313 797 304 793 q 331 800 322 800 q 369 803 356 803 z "},"s":{"ha":513,"x_min":36,"x_max":476,"o":"m 36 604 q 95 756 36 706 q 288 806 154 806 q 446 783 376 806 l 446 664 q 299 689 379 689 q 192 667 218 689 q 165 597 165 646 l 165 569 q 181 513 165 532 q 239 471 196 493 l 357 407 q 476 235 476 343 l 476 199 q 210 -7 476 -7 q 39 14 119 -7 l 39 135 q 195 111 110 111 q 313 133 281 111 q 346 201 346 156 l 346 225 q 328 278 346 258 q 260 325 311 299 l 147 383 q 36 560 36 440 l 36 604 z "},"t":{"ha":415,"x_min":7,"x_max":394,"o":"m 221 942 l 221 799 l 382 799 l 382 686 l 221 686 l 221 190 q 304 110 221 110 q 394 126 344 110 l 394 8 q 381 6 393 8 q 357 0 369 3 q 285 -8 319 -8 q 90 181 90 -8 l 90 686 l 7 686 l 7 799 l 94 799 l 133 942 l 221 942 z "},"u":{"ha":633,"x_min":79,"x_max":549,"o":"m 303 115 q 417 150 361 115 l 417 799 l 549 799 l 549 0 l 424 0 l 424 38 q 264 -3 351 -3 q 128 47 176 -3 q 79 192 79 97 l 79 799 l 211 799 l 211 210 q 303 115 211 115 z "},"v":{"ha":557,"x_min":18,"x_max":539,"o":"m 407 799 l 539 799 l 365 0 l 194 0 l 18 799 l 151 799 q 281 97 249 325 q 342 467 306 278 l 407 799 z "},"w":{"ha":842,"x_min":18,"x_max":822,"o":"m 689 799 l 822 799 l 685 0 l 519 0 q 422 624 433 525 q 324 0 408 507 l 160 0 l 18 799 l 154 799 l 246 150 l 356 799 l 488 799 l 597 149 l 689 799 z "},"x":{"ha":522,"x_min":11,"x_max":511,"o":"m 371 799 l 511 799 l 328 400 l 511 0 l 371 0 l 261 275 l 151 0 l 11 0 l 192 400 l 11 799 l 151 799 l 261 529 l 371 799 z "},"y":{"ha":563,"x_min":22,"x_max":542,"o":"m 413 799 l 542 799 l 332 -207 l 206 -207 l 247 0 l 192 0 l 22 799 l 153 799 q 282 97 260 275 q 340 444 304 263 l 413 799 z "},"z":{"ha":463,"x_min":28,"x_max":435,"o":"m 35 799 l 433 799 l 433 708 l 165 113 l 435 113 l 435 0 l 28 0 l 28 92 l 293 686 l 35 686 l 35 799 z "},"{":{"ha":513,"x_min":79,"x_max":431,"o":"m 301 922 l 301 643 q 275 513 301 558 q 179 457 249 468 q 276 403 250 447 q 301 275 301 360 l 301 -11 q 397 -92 301 -92 l 431 -92 l 431 -203 l 390 -203 q 240 -150 293 -203 q 188 -6 188 -97 l 188 307 q 161 376 188 351 q 85 400 135 400 l 79 400 l 79 513 l 85 513 q 161 537 135 513 q 188 606 188 561 l 188 918 q 241 1062 188 1008 q 390 1115 294 1115 l 431 1115 l 431 1003 l 397 1003 q 301 922 301 1003 z "},"|":{"ha":294,"x_min":100,"x_max":194,"o":"m 100 1147 l 194 1147 l 194 -225 l 100 -225 l 100 1147 z "},"}":{"ha":511,"x_min":78,"x_max":429,"o":"m 425 513 l 429 513 l 429 400 l 425 400 q 349 376 375 400 q 322 307 322 351 l 322 -6 q 269 -150 322 -97 q 118 -203 215 -203 l 78 -203 l 78 -92 l 111 -92 q 207 -11 207 -92 l 207 275 q 233 403 207 360 q 329 457 260 447 q 233 513 260 468 q 207 643 207 558 l 207 922 q 111 1003 207 1003 l 78 1003 l 78 1115 l 118 1115 q 269 1062 215 1115 q 322 918 322 1008 l 322 606 q 349 537 322 561 q 425 513 375 513 z "},"~":{"ha":674,"x_min":33,"x_max":639,"o":"m 639 514 q 604 411 639 449 q 406 389 540 342 l 261 446 q 174 456 210 471 q 149 383 139 440 l 38 383 q 33 436 33 410 q 69 539 33 501 q 267 561 132 608 l 411 504 q 499 494 465 479 q 522 567 532 510 l 633 567 q 639 514 639 543 z "}," ":{"ha":261,"x_min":0,"x_max":0,"o":""},"¡":{"ha":378,"x_min":113,"x_max":265,"o":"m 258 -143 l 118 -143 l 135 539 l 242 539 l 258 -143 m 189 656 q 151 656 189 656 q 113 732 113 656 q 189 808 113 808 q 265 732 265 808 q 189 656 265 656 z "},"¢":{"ha":547,"x_min":81,"x_max":482,"o":"m 379 -103 l 258 -103 l 258 -3 q 81 204 81 24 l 81 594 q 261 801 81 778 l 261 908 l 382 908 l 382 804 q 481 786 440 799 l 481 665 q 340 685 411 685 q 240 661 268 685 q 211 586 211 638 l 211 211 q 240 136 211 160 q 342 113 268 113 q 482 135 415 113 l 482 13 q 379 -6 425 -1 l 379 -103 z "},"£":{"ha":663,"x_min":67,"x_max":601,"o":"m 601 117 l 601 0 l 67 0 l 67 115 q 99 124 79 115 q 125 139 118 133 q 140 155 132 144 q 153 178 149 165 q 165 246 165 206 l 165 428 l 79 428 l 79 539 l 165 539 l 165 710 q 230 884 165 822 q 424 946 294 946 q 590 921 513 946 l 590 797 q 435 824 515 824 q 325 793 354 824 q 296 701 296 763 l 296 539 l 519 539 l 519 428 l 296 428 l 296 263 q 283 182 296 215 q 260 139 271 149 q 232 117 250 129 l 601 117 z "},"¤":{"ha":639,"x_min":42,"x_max":601,"o":"m 557 533 l 557 408 q 536 297 557 344 l 600 235 l 521 156 l 460 217 q 322 188 408 188 q 182 217 236 188 l 121 156 l 42 235 l 106 297 q 85 408 85 344 l 85 533 q 106 644 85 597 l 43 707 l 122 786 l 183 725 q 322 754 236 754 q 461 725 407 754 l 522 786 l 601 707 l 536 643 q 557 533 557 597 m 211 531 l 211 411 q 235 328 211 356 q 321 301 260 301 q 406 328 382 301 q 431 411 431 356 l 431 531 q 406 613 431 586 q 321 639 382 639 q 235 613 260 639 q 211 531 211 586 z "},"¥":{"ha":693,"x_min":56,"x_max":651,"o":"m 646 588 l 646 485 l 488 485 l 440 364 l 646 364 l 646 261 l 418 261 l 418 0 l 290 0 l 290 261 l 58 261 l 58 364 l 267 364 l 219 485 l 58 485 l 58 588 l 182 588 l 56 925 l 188 925 l 313 579 l 356 451 l 399 579 l 522 925 l 651 925 l 525 588 l 646 588 z "},"¦":{"ha":296,"x_min":100,"x_max":194,"o":"m 100 306 l 194 306 l 194 -225 l 100 -225 l 100 306 m 100 1147 l 194 1147 l 194 618 l 100 618 l 100 1147 z "},"§":{"ha":522,"x_min":43,"x_max":493,"o":"m 179 372 l 179 349 q 195 291 179 311 q 256 249 211 271 l 372 186 q 463 115 432 154 q 493 13 493 75 l 493 -3 q 226 -207 493 -207 q 56 -187 122 -207 l 56 -68 q 210 -90 122 -90 q 331 -69 299 -90 q 363 -6 363 -47 q 346 55 363 35 q 276 104 329 75 l 164 163 q 53 339 53 219 l 53 372 l 179 372 m 43 743 q 102 895 43 844 q 293 946 161 946 q 451 925 386 946 l 451 806 q 304 828 385 828 q 197 807 224 828 q 171 740 171 786 q 185 676 171 694 q 244 636 200 658 l 363 574 q 483 401 483 513 l 483 367 l 356 367 l 356 392 q 338 444 356 424 q 267 492 319 464 l 154 550 q 43 726 43 608 l 43 743 z "},"¨":{"ha":486,"x_min":81,"x_max":406,"o":"m 406 934 q 406 905 406 934 q 344 875 406 875 q 283 934 283 875 q 344 993 283 993 q 406 934 406 993 m 203 934 q 203 905 203 934 q 142 875 203 875 q 81 934 81 875 q 142 993 81 993 q 203 934 203 993 z "},"©":{"ha":963,"x_min":60,"x_max":901,"o":"m 794 338 q 800 456 800 386 q 795 574 800 526 q 772 672 790 622 q 719 750 753 721 q 482 814 644 814 q 214 711 274 814 q 172 601 182 657 q 163 464 163 544 q 168 335 163 383 q 193 239 174 288 q 247 161 213 190 q 482 97 324 97 q 714 163 639 97 q 794 338 778 217 m 314 535 q 357 661 314 618 q 499 704 400 704 q 603 693 558 704 l 603 601 q 496 615 547 615 q 428 595 444 615 q 413 532 413 575 l 413 379 q 417 336 413 351 q 441 309 421 321 q 508 297 461 297 q 603 310 554 297 l 603 218 q 499 207 536 207 q 357 251 400 207 q 314 378 314 294 l 314 535 m 60 454 q 78 638 60 560 q 142 781 97 717 q 482 911 235 911 q 822 782 732 911 q 884 640 867 718 q 901 456 901 563 q 882 272 901 350 q 817 131 863 194 q 482 0 725 0 q 144 129 235 0 q 60 454 60 249 z "},"ª":{"ha":467,"x_min":47,"x_max":415,"o":"m 138 596 l 138 554 q 156 494 138 513 q 233 475 174 475 q 325 513 292 475 l 325 699 l 222 678 q 158 648 178 667 q 138 596 138 629 m 233 1035 q 415 886 415 1035 l 415 399 l 325 399 l 325 449 q 200 400 285 400 q 47 553 47 400 l 47 601 q 87 699 47 664 q 206 754 126 733 l 325 779 l 325 888 q 231 951 322 951 q 74 928 156 951 l 74 1011 q 233 1035 149 1035 z "},"«":{"ha":717,"x_min":85,"x_max":656,"o":"m 253 701 l 385 701 l 215 447 l 385 193 l 253 193 l 85 447 l 253 701 m 522 701 l 656 701 l 486 447 l 656 193 l 522 193 l 354 447 l 522 701 z "},"¬":{"ha":664,"x_min":85,"x_max":578,"o":"m 85 521 l 578 521 l 578 260 l 444 260 l 444 404 l 85 404 l 85 521 z "},"­":{"ha":351,"x_min":56,"x_max":303,"o":"m 56 510 l 303 510 l 303 399 l 56 399 l 56 510 z "},"®":{"ha":749,"x_min":108,"x_max":690,"o":"m 108 724 q 108 802 108 724 q 172 958 108 881 q 401 1035 236 1035 q 628 958 565 1035 q 690 725 690 882 q 627 492 690 568 q 399 415 564 415 q 171 491 233 415 q 108 724 108 567 m 215 542 q 226 525 215 542 q 281 494 238 508 q 398 481 325 481 q 515 494 471 481 q 582 542 560 508 q 611 616 604 576 q 618 724 618 656 q 611 833 618 793 q 582 908 604 874 q 516 956 560 942 q 399 969 472 969 q 281 956 325 969 q 215 907 236 942 q 187 833 193 872 q 181 724 181 793 q 187 616 181 656 q 215 542 193 576 m 290 911 l 394 911 q 524 797 524 911 q 476 694 524 722 l 539 543 l 464 543 l 414 678 q 393 676 407 676 l 360 676 l 360 543 l 290 543 l 290 911 m 360 735 l 388 735 q 442 747 426 735 q 457 797 457 760 q 443 843 457 833 q 396 853 429 853 l 360 853 l 360 735 z "},"¯":{"ha":486,"x_min":79,"x_max":406,"o":"m 79 974 l 406 974 l 406 896 l 79 896 l 79 974 z "},"°":{"ha":543,"x_min":68,"x_max":479,"o":"m 351 826 q 362 841 351 826 q 372 913 372 856 q 351 999 372 969 q 274 1028 331 1028 q 196 999 217 1028 q 175 913 175 969 q 196 826 175 856 q 274 797 217 797 q 351 826 331 797 m 274 697 q 220 697 274 697 q 117 756 167 697 q 68 913 68 814 q 117 1071 68 1013 q 274 1129 167 1129 q 430 1071 381 1129 q 479 913 479 1013 q 430 756 479 814 q 274 697 381 697 z "},"±":{"ha":632,"x_min":60,"x_max":578,"o":"m 379 510 l 578 510 l 578 399 l 379 399 l 379 225 l 258 225 l 258 399 l 60 399 l 60 510 l 258 510 l 258 683 l 379 683 l 379 510 m 60 42 l 60 151 l 578 151 l 578 42 l 60 42 z "},"²":{"ha":408,"x_min":43,"x_max":372,"o":"m 201 1035 q 371 888 371 1035 l 371 844 q 353 762 371 794 q 294 700 336 729 l 204 636 q 143 584 154 601 q 132 526 132 567 l 132 485 l 372 485 l 372 401 l 43 401 l 43 529 q 64 623 43 589 q 139 693 85 657 l 236 758 q 274 799 265 779 q 282 856 282 819 l 282 886 q 264 935 282 919 q 185 951 246 951 q 58 936 125 951 l 58 1019 q 201 1035 108 1035 z "},"³":{"ha":418,"x_min":42,"x_max":358,"o":"m 188 1035 q 358 892 354 1035 l 358 829 q 301 719 358 747 q 358 610 358 693 l 358 542 q 186 396 358 396 q 42 411 97 396 l 42 494 q 172 478 113 478 q 249 494 231 478 q 268 543 268 510 l 268 610 q 254 660 268 643 q 196 678 240 676 l 132 678 l 132 760 l 196 760 q 253 778 239 760 q 268 829 268 796 l 268 886 q 250 935 268 919 q 172 951 232 951 q 51 938 111 951 l 51 1021 q 188 1035 107 1035 z "},"´":{"ha":486,"x_min":160,"x_max":326,"o":"m 215 1011 l 326 1011 l 238 860 l 160 860 l 215 1011 z "},"µ":{"ha":636,"x_min":82,"x_max":550,"o":"m 214 136 q 282 117 247 117 q 332 119 317 117 q 359 126 347 122 q 383 134 371 129 q 419 153 394 139 l 419 799 l 550 799 l 550 0 l 426 0 l 426 38 q 308 1 365 3 q 214 11 250 0 l 214 -208 l 82 -208 l 82 799 l 214 799 l 214 136 z "},"¶":{"ha":585,"x_min":86,"x_max":492,"o":"m 317 942 l 492 942 l 492 1 l 360 1 l 360 522 l 317 522 q 145 578 204 522 q 86 732 86 633 q 146 886 86 831 q 317 942 206 942 z "},"·":{"ha":328,"x_min":93,"x_max":236,"o":"m 165 407 q 129 407 165 407 q 93 478 93 407 q 165 550 93 550 q 236 478 236 550 q 165 407 236 407 z "},"¸":{"ha":486,"x_min":143,"x_max":342,"o":"m 251 -56 q 315 -81 289 -58 q 342 -152 342 -104 q 306 -228 342 -200 q 223 -256 271 -256 q 143 -247 175 -256 l 143 -181 q 199 -190 165 -190 q 263 -144 263 -190 q 197 -99 263 -101 l 179 -99 l 203 8 l 265 8 l 251 -56 z "},"¹":{"ha":306,"x_min":25,"x_max":239,"o":"m 239 1026 l 239 401 l 151 401 l 151 933 l 25 838 l 25 939 l 142 1026 l 239 1026 z "},"º":{"ha":460,"x_min":63,"x_max":414,"o":"m 239 951 q 153 890 153 951 l 153 544 q 172 495 153 511 q 239 479 192 479 q 306 495 286 479 q 325 544 325 511 l 325 890 q 304 936 324 921 q 239 951 285 951 m 63 885 q 238 1035 63 1035 q 414 885 414 1035 l 414 546 q 238 396 414 396 q 63 546 63 396 l 63 885 z "},"»":{"ha":714,"x_min":51,"x_max":624,"o":"m 51 701 l 185 701 l 353 447 l 185 193 l 51 193 l 221 447 l 51 701 m 322 701 l 456 701 l 624 447 l 456 193 l 322 193 l 492 447 l 322 701 z "},"¼":{"ha":1110,"x_min":56,"x_max":1033,"o":"m 700 942 l 790 942 l 299 0 l 208 0 l 700 942 m 881 207 l 881 553 l 719 207 l 881 207 m 968 626 l 968 207 l 1033 207 l 1033 128 l 968 128 l 968 0 l 881 0 l 881 128 l 635 128 l 635 211 l 831 626 l 968 626 m 269 942 l 269 315 l 182 315 l 182 847 l 56 751 l 56 854 l 172 942 l 269 942 z "},"½":{"ha":1107,"x_min":56,"x_max":1019,"o":"m 700 942 l 790 942 l 299 0 l 208 0 l 700 942 m 269 942 l 269 317 l 182 317 l 182 849 l 56 753 l 56 854 l 172 942 l 269 942 m 849 633 q 1018 486 1018 633 l 1018 443 q 1001 360 1018 393 q 942 299 983 328 l 851 235 q 790 183 801 200 q 779 125 779 165 l 779 83 l 1019 83 l 1019 0 l 690 0 l 690 128 q 711 222 690 188 q 786 292 732 256 l 883 357 q 921 398 913 378 q 929 454 929 418 l 929 485 q 911 534 929 518 q 833 550 893 550 q 706 535 772 550 l 706 618 q 849 633 756 633 z "},"¾":{"ha":1158,"x_min":56,"x_max":1081,"o":"m 201 949 q 372 807 368 949 l 372 744 q 315 635 372 661 q 372 525 372 608 l 372 457 q 328 348 372 386 q 201 310 285 310 q 56 326 117 310 l 56 410 q 188 392 132 392 q 263 408 244 392 q 282 458 282 425 l 282 525 q 268 575 282 558 q 210 593 254 592 l 144 593 l 144 675 l 210 675 q 267 693 253 675 q 282 744 282 711 l 282 800 q 264 851 282 835 q 185 867 246 867 q 65 853 125 867 l 65 936 q 201 949 115 949 m 763 942 l 853 942 l 363 0 l 271 0 l 763 942 m 928 207 l 928 553 l 767 207 l 928 207 m 1015 626 l 1015 207 l 1081 207 l 1081 128 l 1015 128 l 1015 0 l 928 0 l 928 128 l 682 128 l 682 211 l 878 626 l 1015 626 z "},"¿":{"ha":544,"x_min":44,"x_max":479,"o":"m 318 808 q 356 808 318 808 q 394 732 394 808 q 318 656 394 656 q 242 732 242 656 q 318 808 242 808 m 307 -157 q 44 50 44 -157 l 44 181 q 93 339 44 282 q 257 397 142 396 l 264 539 l 374 539 l 381 294 l 303 294 q 203 266 233 294 q 172 179 172 238 l 172 60 q 201 -13 172 10 q 316 -36 229 -36 q 479 -10 403 -36 l 479 -135 q 307 -157 403 -157 z "},"À":{"ha":629,"x_min":18,"x_max":610,"o":"m 482 0 l 431 250 l 197 250 l 146 0 l 18 0 l 224 942 l 407 942 l 610 0 l 482 0 m 219 363 l 407 363 l 313 819 l 219 363 m 347 999 l 269 999 l 181 1150 l 292 1150 l 347 999 z "},"Á":{"ha":629,"x_min":18,"x_max":610,"o":"m 482 0 l 431 250 l 197 250 l 146 0 l 18 0 l 224 942 l 407 942 l 610 0 l 482 0 m 219 363 l 407 363 l 313 819 l 219 363 m 439 1150 l 350 999 l 272 999 l 328 1150 l 439 1150 z "},"Â":{"ha":629,"x_min":18,"x_max":610,"o":"m 482 0 l 431 250 l 197 250 l 146 0 l 18 0 l 224 942 l 407 942 l 610 0 l 482 0 m 219 363 l 407 363 l 313 819 l 219 363 m 318 1082 l 265 999 l 193 999 l 267 1150 l 368 1150 l 442 999 l 369 999 l 318 1082 z "},"Ã":{"ha":629,"x_min":18,"x_max":610,"o":"m 482 0 l 431 250 l 197 250 l 146 0 l 18 0 l 224 942 l 407 942 l 610 0 l 482 0 m 219 363 l 407 363 l 313 819 l 219 363 m 217 1019 l 217 1007 l 135 1007 l 135 1021 q 238 1138 138 1138 q 324 1110 276 1138 q 385 1082 371 1082 q 415 1128 415 1082 l 415 1140 l 497 1140 l 497 1125 q 396 1010 494 1010 q 313 1038 360 1010 q 247 1065 265 1065 q 217 1019 217 1065 z "},"Ä":{"ha":629,"x_min":18,"x_max":610,"o":"m 482 0 l 431 250 l 197 250 l 146 0 l 18 0 l 224 942 l 407 942 l 610 0 l 482 0 m 219 363 l 407 363 l 313 819 l 219 363 m 272 1073 q 272 1043 272 1073 q 211 1014 272 1014 q 150 1073 150 1014 q 211 1132 150 1132 q 272 1073 272 1132 m 475 1073 q 475 1043 475 1073 q 414 1014 475 1014 q 353 1073 353 1014 q 414 1132 353 1132 q 475 1073 475 1132 z "},"Å":{"ha":629,"x_min":18,"x_max":610,"o":"m 482 0 l 431 250 l 197 250 l 146 0 l 18 0 l 224 942 l 407 942 l 610 0 l 482 0 m 219 363 l 407 363 l 313 819 l 219 363 m 418 1074 q 418 1052 418 1074 q 390 999 418 1029 q 313 969 363 969 q 235 999 264 969 q 207 1074 207 1029 q 235 1148 207 1119 q 313 1176 263 1176 q 390 1148 363 1176 q 418 1074 418 1119 m 346 1107 q 340 1113 346 1107 q 313 1119 333 1119 q 279 1107 292 1119 q 267 1074 267 1094 q 279 1040 267 1053 q 313 1026 292 1026 q 346 1040 333 1026 q 358 1074 358 1053 q 346 1107 358 1094 z "},"Æ":{"ha":943,"x_min":8,"x_max":915,"o":"m 915 826 l 617 826 l 617 533 l 876 533 l 876 418 l 617 418 l 617 114 l 915 114 l 915 0 l 492 0 l 492 250 l 243 250 l 139 0 l 8 0 l 414 942 l 915 942 l 915 826 m 492 363 l 492 851 l 289 363 l 492 363 z "},"Ç":{"ha":554,"x_min":72,"x_max":508,"o":"m 332 -56 q 396 -81 369 -58 q 422 -152 422 -104 q 387 -228 422 -200 q 303 -256 351 -256 q 224 -247 256 -256 l 224 -181 q 279 -190 246 -190 q 343 -144 343 -190 q 278 -99 343 -101 l 260 -99 l 281 -4 q 72 201 72 18 l 72 740 q 139 894 72 839 q 340 949 206 949 q 504 928 429 949 l 504 807 q 343 831 422 831 q 234 806 264 831 q 204 731 204 781 l 204 210 q 235 136 204 161 q 347 111 265 111 q 508 133 429 111 l 508 15 q 343 -7 439 -7 l 332 -56 z "},"È":{"ha":561,"x_min":86,"x_max":515,"o":"m 175 1150 l 286 1150 l 342 999 l 264 999 l 175 1150 m 86 942 l 515 942 l 515 826 l 217 826 l 217 533 l 476 533 l 476 418 l 217 418 l 217 114 l 515 114 l 515 0 l 86 0 l 86 942 z "},"É":{"ha":561,"x_min":86,"x_max":515,"o":"m 86 942 l 515 942 l 515 826 l 217 826 l 217 533 l 476 533 l 476 418 l 217 418 l 217 114 l 515 114 l 515 0 l 86 0 l 86 942 m 317 1150 l 428 1150 l 339 999 l 261 999 l 317 1150 z "},"Ê":{"ha":561,"x_min":86,"x_max":515,"o":"m 515 826 l 217 826 l 217 533 l 476 533 l 476 418 l 217 418 l 217 114 l 515 114 l 515 0 l 86 0 l 86 942 l 515 942 l 515 826 m 293 1082 l 240 999 l 168 999 l 242 1150 l 343 1150 l 417 999 l 344 999 l 293 1082 z "},"Ë":{"ha":561,"x_min":86,"x_max":515,"o":"m 86 942 l 515 942 l 515 826 l 217 826 l 217 533 l 476 533 l 476 418 l 217 418 l 217 114 l 515 114 l 515 0 l 86 0 l 86 942 m 465 1073 q 465 1043 465 1073 q 404 1014 465 1014 q 343 1073 343 1014 q 404 1132 343 1132 q 465 1073 465 1132 m 263 1073 q 263 1043 263 1073 q 201 1014 263 1014 q 140 1073 140 1014 q 201 1132 140 1132 q 263 1073 263 1132 z "},"Ì":{"ha":561,"x_min":86,"x_max":515,"o":"m 174 1150 l 285 1150 l 340 999 l 263 999 l 174 1150 m 86 942 l 515 942 l 515 826 l 217 826 l 217 533 l 476 533 l 476 418 l 217 418 l 217 114 l 515 114 l 515 0 l 86 0 l 86 942 z "},"Í":{"ha":561,"x_min":86,"x_max":515,"o":"m 86 942 l 515 942 l 515 826 l 217 826 l 217 533 l 476 533 l 476 418 l 217 418 l 217 114 l 515 114 l 515 0 l 86 0 l 86 942 m 317 1150 l 428 1150 l 339 999 l 261 999 l 317 1150 z "},"Î":{"ha":303,"x_min":32,"x_max":281,"o":"m 86 0 l 86 942 l 218 942 l 218 0 l 86 0 m 157 1082 l 104 999 l 32 999 l 106 1150 l 207 1150 l 281 999 l 208 999 l 157 1082 z "},"Ï":{"ha":303,"x_min":-12,"x_max":313,"o":"m 313 1073 q 313 1043 313 1073 q 251 1014 313 1014 q 190 1073 190 1014 q 251 1132 190 1132 q 313 1073 313 1132 m 110 1073 q 110 1043 110 1073 q 49 1014 110 1014 q -12 1073 -12 1014 q 49 1132 -12 1132 q 110 1073 110 1132 m 86 942 l 218 942 l 218 0 l 86 0 l 86 942 z "},"Ð":{"ha":661,"x_min":-7,"x_max":592,"o":"m 92 942 l 364 942 q 533 886 475 942 q 592 731 592 831 l 592 217 q 537 58 592 115 q 369 0 482 0 l 92 0 l 92 407 l -7 407 l -7 518 l 92 518 l 92 942 m 461 224 l 461 726 q 351 832 461 832 l 222 832 l 222 518 l 351 518 l 351 407 l 222 407 l 222 114 l 351 114 q 461 224 461 114 z "},"Ñ":{"ha":707,"x_min":86,"x_max":621,"o":"m 463 1140 l 544 1140 l 544 1125 q 443 1010 542 1010 q 360 1038 407 1010 q 294 1065 313 1065 q 264 1019 264 1065 l 264 1007 l 182 1007 l 182 1021 q 285 1138 185 1138 q 371 1110 324 1138 q 432 1082 418 1082 q 463 1128 463 1082 l 463 1140 m 492 942 l 621 942 l 621 0 l 482 0 q 197 739 264 557 q 203 675 197 724 q 214 407 214 554 l 214 0 l 86 0 l 86 942 l 226 942 q 461 336 419 453 q 508 204 503 219 q 501 327 508 217 q 492 540 493 438 l 492 942 z "},"Ò":{"ha":647,"x_min":72,"x_max":575,"o":"m 189 1150 l 300 1150 l 356 999 l 278 999 l 189 1150 m 444 722 q 324 836 444 836 q 203 722 203 836 l 203 219 q 324 104 203 104 q 444 219 444 104 l 444 722 m 72 726 q 135 893 72 831 q 323 956 199 956 q 511 892 447 956 q 575 726 575 829 l 575 214 q 511 49 575 111 q 324 -14 447 -14 q 136 49 200 -14 q 72 214 72 111 l 72 726 z "},"Ó":{"ha":647,"x_min":72,"x_max":575,"o":"m 444 722 q 324 836 444 836 q 203 722 203 836 l 203 219 q 324 104 203 104 q 444 219 444 104 l 444 722 m 72 726 q 135 893 72 831 q 323 956 199 956 q 511 892 447 956 q 575 726 575 829 l 575 214 q 511 49 575 111 q 324 -14 447 -14 q 136 49 200 -14 q 72 214 72 111 l 72 726 m 344 1150 l 456 1150 l 367 999 l 289 999 l 344 1150 z "},"Ô":{"ha":647,"x_min":72,"x_max":575,"o":"m 72 214 l 72 726 q 135 893 72 831 q 323 956 199 956 q 511 892 447 956 q 575 726 575 829 l 575 214 q 511 49 575 111 q 324 -14 447 -14 q 136 49 200 -14 q 72 214 72 111 m 444 219 l 444 722 q 324 836 444 836 q 203 722 203 836 l 203 219 q 324 104 203 104 q 444 219 444 104 m 325 1082 l 272 999 l 200 999 l 274 1150 l 375 1150 l 449 999 l 376 999 l 325 1082 z "},"Õ":{"ha":647,"x_min":72,"x_max":575,"o":"m 422 1140 l 504 1140 l 504 1125 q 403 1010 501 1010 q 319 1038 367 1010 q 254 1065 272 1065 q 224 1019 224 1065 l 224 1007 l 142 1007 l 142 1021 q 244 1138 144 1138 q 331 1110 283 1138 q 392 1082 378 1082 q 422 1128 422 1082 l 422 1140 m 444 722 q 324 836 444 836 q 203 722 203 836 l 203 219 q 324 104 203 104 q 444 219 444 104 l 444 722 m 72 726 q 135 893 72 831 q 323 956 199 956 q 511 892 447 956 q 575 726 575 829 l 575 214 q 511 49 575 111 q 324 -14 447 -14 q 136 49 200 -14 q 72 214 72 111 l 72 726 z "},"Ö":{"ha":647,"x_min":72,"x_max":575,"o":"m 444 722 q 324 836 444 836 q 203 722 203 836 l 203 219 q 324 104 203 104 q 444 219 444 104 l 444 722 m 72 726 q 135 893 72 831 q 323 956 199 956 q 511 892 447 956 q 575 726 575 829 l 575 214 q 511 49 575 111 q 324 -14 447 -14 q 136 49 200 -14 q 72 214 72 111 l 72 726 m 486 1073 q 486 1043 486 1073 q 425 1014 486 1014 q 364 1073 364 1014 q 425 1132 364 1132 q 486 1073 486 1132 m 283 1073 q 283 1043 283 1073 q 222 1014 283 1014 q 161 1073 161 1014 q 222 1132 161 1132 q 283 1073 283 1132 z "},"×":{"ha":568,"x_min":47,"x_max":521,"o":"m 521 296 l 442 218 l 283 376 l 125 218 l 47 296 l 206 454 l 47 613 l 126 690 l 283 533 l 440 690 l 519 613 l 363 456 l 521 296 z "},"Ø":{"ha":647,"x_min":69,"x_max":578,"o":"m 575 726 l 575 214 q 511 49 575 111 q 324 -14 447 -14 q 169 24 231 -14 l 158 0 l 69 0 l 107 83 q 72 214 72 136 l 72 726 q 135 893 72 831 q 324 956 199 956 q 478 918 417 956 l 489 942 l 578 942 l 540 857 q 575 726 575 804 m 203 722 l 203 300 l 424 796 q 324 836 394 836 q 203 722 203 836 m 444 219 l 444 642 l 224 146 q 324 104 253 104 q 444 219 444 104 z "},"Ù":{"ha":658,"x_min":79,"x_max":579,"o":"m 201 1150 l 313 1150 l 368 999 l 290 999 l 201 1150 m 449 942 l 579 942 l 579 214 q 516 49 579 111 q 329 -14 453 -14 q 142 49 206 -14 q 79 214 79 111 l 79 942 l 210 942 l 210 219 q 329 104 210 104 q 449 219 449 104 l 449 942 z "},"Ú":{"ha":658,"x_min":79,"x_max":579,"o":"m 449 942 l 579 942 l 579 214 q 516 49 579 111 q 329 -14 453 -14 q 142 49 206 -14 q 79 214 79 111 l 79 942 l 210 942 l 210 219 q 329 104 210 104 q 449 219 449 104 l 449 942 m 346 1150 l 457 1150 l 368 999 l 290 999 l 346 1150 z "},"Û":{"ha":658,"x_min":79,"x_max":579,"o":"m 449 942 l 579 942 l 579 214 q 516 49 579 111 q 329 -14 453 -14 q 142 49 206 -14 q 79 214 79 111 l 79 942 l 210 942 l 210 219 q 329 104 210 104 q 449 219 449 104 l 449 942 m 329 1082 l 276 999 l 204 999 l 278 1150 l 379 1150 l 453 999 l 381 999 l 329 1082 z "},"Ü":{"ha":658,"x_min":79,"x_max":579,"o":"m 449 942 l 579 942 l 579 214 q 516 49 579 111 q 329 -14 453 -14 q 142 49 206 -14 q 79 214 79 111 l 79 942 l 210 942 l 210 219 q 329 104 210 104 q 449 219 449 104 l 449 942 m 490 1073 q 490 1043 490 1073 q 429 1014 490 1014 q 368 1073 368 1014 q 429 1132 368 1132 q 490 1073 490 1132 m 288 1073 q 288 1043 288 1073 q 226 1014 288 1014 q 165 1073 165 1014 q 226 1132 165 1132 q 288 1073 288 1132 z "},"Ý":{"ha":597,"x_min":4,"x_max":594,"o":"m 313 1150 l 424 1150 l 335 999 l 257 999 l 313 1150 m 365 0 l 233 0 l 233 310 l 4 942 l 139 942 l 218 719 q 301 454 261 594 q 383 719 340 590 l 463 942 l 594 942 l 365 310 l 365 0 z "},"Þ":{"ha":606,"x_min":100,"x_max":575,"o":"m 226 781 l 344 781 q 516 725 457 781 q 575 569 575 669 l 575 372 q 515 217 575 274 q 344 161 456 161 l 226 161 l 226 0 l 100 0 l 100 942 l 226 942 l 226 781 m 449 382 l 449 560 q 338 667 449 667 l 226 667 l 226 276 l 338 276 q 449 382 449 276 z "},"ß":{"ha":758,"x_min":86,"x_max":731,"o":"m 86 753 q 154 935 86 872 q 347 999 222 999 q 540 940 471 999 q 608 778 608 881 q 582 674 608 721 q 530 594 556 628 q 504 533 504 560 l 504 518 q 528 465 504 490 q 612 403 551 439 q 701 330 672 368 q 731 236 731 292 l 731 196 q 474 -6 731 -6 q 315 15 390 -6 l 315 135 q 463 111 383 111 q 573 135 542 111 q 604 204 604 158 l 604 225 q 583 283 604 258 q 499 344 561 308 q 404 417 436 381 q 372 506 372 453 l 372 526 q 426 650 372 579 q 479 772 479 721 q 353 882 479 882 q 245 849 279 882 q 211 744 211 815 l 211 0 l 86 0 l 86 753 z "},"à":{"ha":596,"x_min":39,"x_max":517,"o":"m 163 1011 l 274 1011 l 329 860 l 251 860 l 163 1011 m 168 229 l 168 188 q 190 119 168 142 q 274 97 211 97 q 390 140 338 97 l 390 372 l 258 336 q 186 298 204 321 q 168 229 168 275 m 78 779 q 279 806 157 806 q 517 590 517 806 l 517 0 l 392 0 l 392 57 q 231 -4 331 -4 q 39 189 39 -4 l 39 235 q 79 360 39 313 q 208 433 119 408 l 390 483 l 390 590 q 363 665 390 642 q 245 688 335 688 q 78 660 156 688 l 78 779 z "},"á":{"ha":596,"x_min":39,"x_max":517,"o":"m 301 1011 l 413 1011 l 324 860 l 246 860 l 301 1011 m 168 229 l 168 188 q 190 119 168 142 q 274 97 211 97 q 390 140 338 97 l 390 372 l 258 336 q 186 298 204 321 q 168 229 168 275 m 78 779 q 279 806 157 806 q 517 590 517 806 l 517 0 l 392 0 l 392 57 q 231 -4 331 -4 q 39 189 39 -4 l 39 235 q 79 360 39 313 q 208 433 119 408 l 390 483 l 390 590 q 363 665 390 642 q 245 688 335 688 q 78 660 156 688 l 78 779 z "},"â":{"ha":596,"x_min":39,"x_max":517,"o":"m 78 779 q 279 806 157 806 q 517 590 517 806 l 517 0 l 392 0 l 392 57 q 231 -4 331 -4 q 39 189 39 -4 l 39 235 q 79 360 39 313 q 208 433 119 408 l 390 483 l 390 590 q 363 665 390 642 q 245 688 335 688 q 78 660 156 688 l 78 779 m 168 229 l 168 188 q 190 119 168 142 q 274 97 211 97 q 390 140 338 97 l 390 372 l 258 336 q 186 298 204 321 q 168 229 168 275 m 299 943 l 246 860 l 174 860 l 247 1011 l 349 1011 l 422 860 l 350 860 l 299 943 z "},"ã":{"ha":596,"x_min":39,"x_max":517,"o":"m 393 1001 l 475 1001 l 475 986 q 374 871 472 871 q 290 899 338 871 q 225 926 243 926 q 194 881 194 926 l 194 868 l 113 868 l 113 882 q 215 999 115 999 q 301 971 254 999 q 363 943 349 943 q 393 989 393 943 l 393 1001 m 168 229 l 168 188 q 190 119 168 142 q 274 97 211 97 q 390 140 338 97 l 390 372 l 258 336 q 186 298 204 321 q 168 229 168 275 m 78 779 q 279 806 157 806 q 517 590 517 806 l 517 0 l 392 0 l 392 57 q 231 -4 331 -4 q 39 189 39 -4 l 39 235 q 79 360 39 313 q 208 433 119 408 l 390 483 l 390 590 q 363 665 390 642 q 245 688 335 688 q 78 660 156 688 l 78 779 z "},"ä":{"ha":596,"x_min":39,"x_max":517,"o":"m 454 934 q 454 905 454 934 q 393 875 454 875 q 332 934 332 875 q 393 993 332 993 q 454 934 454 993 m 251 934 q 251 905 251 934 q 190 875 251 875 q 129 934 129 875 q 190 993 129 993 q 251 934 251 993 m 168 229 l 168 188 q 190 119 168 142 q 274 97 211 97 q 390 140 338 97 l 390 372 l 258 336 q 186 298 204 321 q 168 229 168 275 m 78 779 q 279 806 157 806 q 517 590 517 806 l 517 0 l 392 0 l 392 57 q 231 -4 331 -4 q 39 189 39 -4 l 39 235 q 79 360 39 313 q 208 433 119 408 l 390 483 l 390 590 q 363 665 390 642 q 245 688 335 688 q 78 660 156 688 l 78 779 z "},"å":{"ha":596,"x_min":39,"x_max":517,"o":"m 324 901 q 330 907 324 901 q 336 935 336 914 q 324 968 336 956 q 290 981 311 981 q 257 968 269 981 q 244 935 244 956 q 257 901 244 914 q 290 888 269 888 q 324 901 311 888 m 291 831 q 266 831 291 831 q 213 860 242 831 q 185 935 185 890 q 213 1009 185 981 q 290 1038 240 1038 q 368 1009 340 1038 q 396 935 396 981 q 368 860 396 890 q 291 831 340 831 m 168 229 l 168 188 q 190 119 168 142 q 274 97 211 97 q 390 140 338 97 l 390 372 l 258 336 q 186 298 204 321 q 168 229 168 275 m 78 779 q 279 806 157 806 q 517 590 517 806 l 517 0 l 392 0 l 392 57 q 231 -4 331 -4 q 39 189 39 -4 l 39 235 q 79 360 39 313 q 208 433 119 408 l 390 483 l 390 590 q 363 665 390 642 q 245 688 335 688 q 78 660 156 688 l 78 779 z "},"æ":{"ha":904,"x_min":42,"x_max":861,"o":"m 738 593 q 626 701 738 701 q 515 593 515 701 l 515 446 l 738 446 l 738 593 m 168 229 l 168 188 q 263 97 168 97 q 392 138 340 97 l 392 374 l 258 338 q 187 299 206 322 q 168 229 168 275 m 451 749 q 633 813 518 813 q 804 753 747 813 q 861 594 861 694 l 861 340 l 515 340 l 515 218 q 552 135 515 161 q 674 110 589 110 q 839 135 758 110 l 839 15 q 661 -7 756 -7 q 454 53 518 -7 q 243 -6 381 -6 q 42 188 42 -6 l 42 235 q 81 360 42 313 q 208 435 121 408 l 390 488 l 389 596 q 362 665 389 642 q 243 688 335 688 q 78 658 151 688 l 78 779 q 277 806 160 806 q 451 749 394 806 z "},"ç":{"ha":517,"x_min":72,"x_max":474,"o":"m 310 -56 q 374 -81 347 -58 q 400 -152 400 -104 q 365 -228 400 -200 q 281 -256 329 -256 q 201 -247 233 -256 l 201 -181 q 257 -190 224 -190 q 321 -144 321 -190 q 256 -99 321 -101 l 238 -99 l 258 -4 q 72 204 72 19 l 72 594 q 317 806 72 806 q 472 786 404 806 l 472 665 q 331 685 403 685 q 231 661 260 685 q 203 586 203 638 l 203 211 q 231 136 203 160 q 333 113 260 113 q 474 135 407 113 l 474 13 q 321 -7 393 -7 l 310 -56 z "},"è":{"ha":604,"x_min":72,"x_max":542,"o":"m 72 211 l 72 594 q 131 753 72 694 q 308 813 189 813 q 485 753 428 813 q 542 594 542 694 l 542 340 l 200 340 l 200 218 q 234 136 200 163 q 353 110 268 110 q 519 135 439 110 l 519 15 q 342 -7 436 -7 q 72 211 72 -7 m 200 446 l 418 446 l 418 593 q 309 701 418 701 q 200 593 200 701 l 200 446 m 354 860 l 276 860 l 188 1011 l 299 1011 l 354 860 z "},"é":{"ha":604,"x_min":72,"x_max":542,"o":"m 72 211 l 72 594 q 131 753 72 694 q 308 813 189 813 q 485 753 428 813 q 542 594 542 694 l 542 340 l 200 340 l 200 218 q 234 136 200 163 q 353 110 268 110 q 519 135 439 110 l 519 15 q 342 -7 436 -7 q 72 211 72 -7 m 200 446 l 418 446 l 418 593 q 309 701 418 701 q 200 593 200 701 l 200 446 m 439 1011 l 350 860 l 272 860 l 328 1011 l 439 1011 z "},"ê":{"ha":604,"x_min":72,"x_max":542,"o":"m 72 211 l 72 594 q 131 753 72 694 q 308 813 189 813 q 485 753 428 813 q 542 594 542 694 l 542 340 l 200 340 l 200 218 q 234 136 200 163 q 353 110 268 110 q 519 135 439 110 l 519 15 q 342 -7 436 -7 q 72 211 72 -7 m 200 446 l 418 446 l 418 593 q 309 701 418 701 q 200 593 200 701 l 200 446 m 317 943 l 264 860 l 192 860 l 265 1011 l 367 1011 l 440 860 l 368 860 l 317 943 z "},"ë":{"ha":604,"x_min":72,"x_max":542,"o":"m 72 211 l 72 594 q 131 753 72 694 q 308 813 189 813 q 485 753 428 813 q 542 594 542 694 l 542 340 l 200 340 l 200 218 q 234 136 200 163 q 353 110 268 110 q 519 135 439 110 l 519 15 q 342 -7 436 -7 q 72 211 72 -7 m 200 446 l 418 446 l 418 593 q 309 701 418 701 q 200 593 200 701 l 200 446 m 272 934 q 272 905 272 934 q 211 875 272 875 q 150 934 150 875 q 211 993 150 993 q 272 934 272 993 m 475 934 q 475 905 475 934 q 414 875 475 875 q 353 934 353 875 q 414 993 353 993 q 475 934 475 993 z "},"ì":{"ha":303,"x_min":19,"x_max":217,"o":"m 19 1011 l 131 1011 l 186 860 l 108 860 l 19 1011 m 86 789 l 217 789 l 217 0 l 86 0 l 86 789 z "},"í":{"ha":303,"x_min":86,"x_max":278,"o":"m 167 1011 l 278 1011 l 189 860 l 111 860 l 167 1011 m 86 789 l 217 789 l 217 0 l 86 0 l 86 789 z "},"î":{"ha":303,"x_min":28,"x_max":276,"o":"m 86 0 l 86 789 l 217 789 l 217 0 l 86 0 m 153 943 l 100 860 l 28 860 l 101 1011 l 203 1011 l 276 860 l 204 860 l 153 943 z "},"ï":{"ha":303,"x_min":-11,"x_max":314,"o":"m 314 934 q 314 905 314 934 q 253 875 314 875 q 192 934 192 875 q 253 993 192 993 q 314 934 314 993 m 111 934 q 111 905 111 934 q 50 875 111 875 q -11 934 -11 875 q 50 993 -11 993 q 111 934 111 993 m 86 789 l 217 789 l 217 0 l 86 0 l 86 789 z "},"ð":{"ha":629,"x_min":79,"x_max":551,"o":"m 551 428 l 551 208 q 492 48 551 107 q 314 -11 432 -11 q 138 48 196 -11 q 79 208 79 107 l 79 417 q 286 625 79 625 q 404 579 361 625 q 324 767 381 674 l 174 694 l 174 775 l 285 828 q 190 942 246 882 l 347 942 q 396 881 376 910 l 535 947 l 535 868 l 435 821 q 551 428 551 628 m 424 211 l 424 486 q 324 521 392 521 q 231 494 256 521 q 206 414 206 468 l 206 213 q 315 104 206 104 q 424 211 424 104 z "},"ñ":{"ha":632,"x_min":86,"x_max":553,"o":"m 418 1001 l 500 1001 l 500 986 q 399 871 497 871 q 315 899 363 871 q 250 926 268 926 q 219 881 219 926 l 219 868 l 138 868 l 138 882 q 240 999 140 999 q 326 971 279 999 q 388 943 374 943 q 418 989 418 943 l 418 1001 m 211 763 q 377 801 300 801 q 503 755 454 801 q 553 621 553 708 l 553 0 l 419 0 l 419 599 q 338 681 419 681 q 217 650 278 681 l 217 0 l 86 0 l 86 799 l 211 799 l 211 763 z "},"ò":{"ha":617,"x_min":72,"x_max":546,"o":"m 188 1011 l 299 1011 l 354 860 l 276 860 l 188 1011 m 415 592 q 308 699 415 699 q 201 592 201 699 l 201 207 q 308 100 201 100 q 415 207 415 100 l 415 592 m 72 594 q 131 753 72 694 q 308 813 189 813 q 487 753 428 813 q 546 594 546 694 l 546 204 q 487 45 546 104 q 308 -14 428 -14 q 131 45 189 -14 q 72 204 72 104 l 72 594 z "},"ó":{"ha":617,"x_min":72,"x_max":546,"o":"m 415 592 q 308 699 415 699 q 201 592 201 699 l 201 207 q 308 100 201 100 q 415 207 415 100 l 415 592 m 72 594 q 131 753 72 694 q 308 813 189 813 q 487 753 428 813 q 546 594 546 694 l 546 204 q 487 45 546 104 q 308 -14 428 -14 q 131 45 189 -14 q 72 204 72 104 l 72 594 m 331 1011 l 442 1011 l 353 860 l 275 860 l 331 1011 z "},"ô":{"ha":617,"x_min":72,"x_max":546,"o":"m 72 204 l 72 594 q 131 753 72 694 q 308 813 189 813 q 487 753 428 813 q 546 594 546 694 l 546 204 q 487 45 546 104 q 308 -14 428 -14 q 131 45 189 -14 q 72 204 72 104 m 415 207 l 415 592 q 308 699 415 699 q 201 592 201 699 l 201 207 q 308 100 201 100 q 415 207 415 100 m 314 943 l 261 860 l 189 860 l 263 1011 l 364 1011 l 438 860 l 365 860 l 314 943 z "},"õ":{"ha":617,"x_min":72,"x_max":546,"o":"m 413 1001 l 494 1001 l 494 986 q 393 871 492 871 q 310 899 357 871 q 244 926 263 926 q 214 881 214 926 l 214 868 l 132 868 l 132 882 q 235 999 135 999 q 321 971 274 999 q 382 943 368 943 q 413 989 413 943 l 413 1001 m 415 592 q 308 699 415 699 q 201 592 201 699 l 201 207 q 308 100 201 100 q 415 207 415 100 l 415 592 m 72 594 q 131 753 72 694 q 308 813 189 813 q 487 753 428 813 q 546 594 546 694 l 546 204 q 487 45 546 104 q 308 -14 428 -14 q 131 45 189 -14 q 72 204 72 104 l 72 594 z "},"ö":{"ha":617,"x_min":72,"x_max":546,"o":"m 415 592 q 308 699 415 699 q 201 592 201 699 l 201 207 q 308 100 201 100 q 415 207 415 100 l 415 592 m 72 594 q 131 753 72 694 q 308 813 189 813 q 487 753 428 813 q 546 594 546 694 l 546 204 q 487 45 546 104 q 308 -14 428 -14 q 131 45 189 -14 q 72 204 72 104 l 72 594 m 479 934 q 479 905 479 934 q 418 875 479 875 q 357 934 357 875 q 418 993 357 993 q 479 934 479 993 m 276 934 q 276 905 276 934 q 215 875 276 875 q 154 934 154 875 q 215 993 154 993 q 276 934 276 993 z "},"÷":{"ha":632,"x_min":56,"x_max":575,"o":"m 317 618 q 282 618 317 618 q 246 690 246 618 q 317 761 246 761 q 389 690 389 761 q 317 618 389 618 m 317 142 q 282 142 317 142 q 246 213 246 142 q 317 285 246 285 q 389 213 389 285 q 317 142 389 142 m 56 507 l 575 507 l 575 397 l 56 397 l 56 507 z "},"ø":{"ha":617,"x_min":68,"x_max":557,"o":"m 546 594 l 546 204 q 487 45 546 104 q 319 -14 428 -14 q 154 26 211 -14 l 140 0 l 68 0 l 107 74 q 72 204 72 126 l 72 594 q 131 753 72 694 q 299 813 189 813 q 469 768 410 813 l 485 799 l 557 799 l 515 718 q 546 594 546 667 m 201 592 l 201 256 l 406 647 q 308 699 383 699 q 201 592 201 699 m 415 207 l 415 528 l 215 144 q 308 100 240 100 q 415 207 415 100 z "},"ù":{"ha":633,"x_min":79,"x_max":549,"o":"m 179 1011 l 290 1011 l 346 860 l 268 860 l 179 1011 m 303 115 q 417 150 361 115 l 417 799 l 549 799 l 549 0 l 424 0 l 424 38 q 264 -3 351 -3 q 128 47 176 -3 q 79 192 79 97 l 79 799 l 211 799 l 211 210 q 303 115 211 115 z "},"ú":{"ha":633,"x_min":79,"x_max":549,"o":"m 303 115 q 417 150 361 115 l 417 799 l 549 799 l 549 0 l 424 0 l 424 38 q 264 -3 351 -3 q 128 47 176 -3 q 79 192 79 97 l 79 799 l 211 799 l 211 210 q 303 115 211 115 m 332 1011 l 443 1011 l 354 860 l 276 860 l 332 1011 z "},"û":{"ha":633,"x_min":79,"x_max":549,"o":"m 303 115 q 417 150 361 115 l 417 799 l 549 799 l 549 0 l 424 0 l 424 38 q 264 -3 351 -3 q 128 47 176 -3 q 79 192 79 97 l 79 799 l 211 799 l 211 210 q 303 115 211 115 m 317 943 l 264 860 l 192 860 l 265 1011 l 367 1011 l 440 860 l 368 860 l 317 943 z "},"ü":{"ha":633,"x_min":79,"x_max":549,"o":"m 303 115 q 417 150 361 115 l 417 799 l 549 799 l 549 0 l 424 0 l 424 38 q 264 -3 351 -3 q 128 47 176 -3 q 79 192 79 97 l 79 799 l 211 799 l 211 210 q 303 115 211 115 m 479 934 q 479 905 479 934 q 418 875 479 875 q 357 934 357 875 q 418 993 357 993 q 479 934 479 993 m 276 934 q 276 905 276 934 q 215 875 276 875 q 154 934 154 875 q 215 993 154 993 q 276 934 276 993 z "},"ý":{"ha":563,"x_min":22,"x_max":542,"o":"m 293 1011 l 404 1011 l 315 860 l 238 860 l 293 1011 m 413 799 l 542 799 l 332 -207 l 206 -207 l 247 0 l 192 0 l 22 799 l 153 799 q 282 97 260 275 q 340 444 304 263 l 413 799 z "},"þ":{"ha":635,"x_min":86,"x_max":556,"o":"m 424 600 q 339 682 424 682 q 217 651 283 682 l 217 118 l 317 118 q 424 218 424 118 l 424 600 m 86 1011 l 217 1011 l 217 765 q 376 801 296 801 q 506 756 457 801 q 556 621 556 710 l 556 207 q 499 53 556 107 q 349 0 443 0 l 217 0 l 217 -235 l 86 -235 l 86 1011 z "},"ÿ":{"ha":563,"x_min":22,"x_max":542,"o":"m 413 799 l 542 799 l 332 -207 l 206 -207 l 247 0 l 192 0 l 22 799 l 153 799 q 282 97 260 275 q 340 444 304 263 l 413 799 m 443 934 q 443 905 443 934 q 382 875 443 875 q 321 934 321 875 q 382 993 321 993 q 443 934 443 993 m 240 934 q 240 905 240 934 q 179 875 240 875 q 118 934 118 875 q 179 993 118 993 q 240 934 240 993 z "},"Ā":{"ha":629,"x_min":18,"x_max":610,"o":"m 482 0 l 431 250 l 197 250 l 146 0 l 18 0 l 224 942 l 407 942 l 610 0 l 482 0 m 219 363 l 407 363 l 313 819 l 219 363 m 475 1113 l 475 1035 l 149 1035 l 149 1113 l 475 1113 z "},"ā":{"ha":596,"x_min":39,"x_max":517,"o":"m 131 974 l 457 974 l 457 896 l 131 896 l 131 974 m 168 229 l 168 188 q 190 119 168 142 q 274 97 211 97 q 390 140 338 97 l 390 372 l 258 336 q 186 298 204 321 q 168 229 168 275 m 78 779 q 279 806 157 806 q 517 590 517 806 l 517 0 l 392 0 l 392 57 q 231 -4 331 -4 q 39 189 39 -4 l 39 235 q 79 360 39 313 q 208 433 119 408 l 390 483 l 390 590 q 363 665 390 642 q 245 688 335 688 q 78 660 156 688 l 78 779 z "},"Ă":{"ha":629,"x_min":18,"x_max":610,"o":"m 482 0 l 431 250 l 197 250 l 146 0 l 18 0 l 224 942 l 407 942 l 610 0 l 482 0 m 219 363 l 407 363 l 313 819 l 219 363 m 426 1041 q 405 1020 426 1041 q 313 999 383 999 q 199 1041 242 999 q 156 1150 157 1083 l 236 1150 q 257 1092 238 1114 q 313 1071 276 1071 q 368 1092 349 1071 q 389 1150 388 1114 l 469 1150 q 426 1041 468 1083 z "},"ă":{"ha":596,"x_min":39,"x_max":517,"o":"m 408 902 q 386 881 408 902 q 294 860 365 860 q 181 902 224 860 q 138 1011 139 944 l 218 1011 q 239 953 219 975 q 294 932 258 932 q 350 953 331 932 q 371 1011 369 975 l 451 1011 q 408 902 450 944 m 168 229 l 168 188 q 190 119 168 142 q 274 97 211 97 q 390 140 338 97 l 390 372 l 258 336 q 186 298 204 321 q 168 229 168 275 m 78 779 q 279 806 157 806 q 517 590 517 806 l 517 0 l 392 0 l 392 57 q 231 -4 331 -4 q 39 189 39 -4 l 39 235 q 79 360 39 313 q 208 433 119 408 l 390 483 l 390 590 q 363 665 390 642 q 245 688 335 688 q 78 660 156 688 l 78 779 z "},"Ą":{"ha":629,"x_min":18,"x_max":610,"o":"m 544 -129 q 592 -179 544 -179 l 608 -179 l 608 -254 l 585 -254 q 465 -156 465 -254 q 551 0 465 -67 l 482 0 l 431 250 l 197 250 l 146 0 l 18 0 l 224 942 l 407 942 l 610 0 l 608 0 q 544 -129 544 -54 m 219 363 l 407 363 l 313 819 l 219 363 z "},"ą":{"ha":596,"x_min":39,"x_max":517,"o":"m 78 779 q 279 806 157 806 q 517 590 517 806 l 517 0 l 515 0 q 451 -129 451 -54 q 499 -179 451 -179 l 515 -179 l 515 -254 l 492 -254 q 372 -156 372 -254 q 458 0 372 -67 l 392 0 l 392 57 q 231 -4 331 -4 q 39 189 39 -4 l 39 235 q 79 360 39 313 q 208 433 119 408 l 390 483 l 390 590 q 363 665 390 642 q 245 688 335 688 q 78 660 156 688 l 78 779 m 168 229 l 168 188 q 190 119 168 142 q 274 97 211 97 q 390 140 338 97 l 390 372 l 258 336 q 186 298 204 321 q 168 229 168 275 z "},"Ć":{"ha":554,"x_min":72,"x_max":508,"o":"m 72 740 q 139 894 72 839 q 340 949 206 949 q 504 928 429 949 l 504 807 q 343 831 422 831 q 234 806 264 831 q 204 731 204 781 l 204 210 q 235 136 204 161 q 347 111 265 111 q 508 133 429 111 l 508 15 q 339 -7 436 -7 q 72 201 72 -7 l 72 740 m 339 1150 l 450 1150 l 361 999 l 283 999 l 339 1150 z "},"ć":{"ha":517,"x_min":72,"x_max":474,"o":"m 72 594 q 317 806 72 806 q 472 786 404 806 l 472 665 q 331 685 403 685 q 231 661 260 685 q 203 586 203 638 l 203 211 q 231 136 203 160 q 333 113 260 113 q 474 135 407 113 l 474 13 q 317 -7 393 -7 q 72 204 72 -7 l 72 594 m 331 1011 l 442 1011 l 353 860 l 275 860 l 331 1011 z "},"Č":{"ha":554,"x_min":72,"x_max":508,"o":"m 204 731 l 204 210 q 235 136 204 161 q 347 111 265 111 q 508 133 429 111 l 508 15 q 339 -7 436 -7 q 72 201 72 -7 l 72 740 q 139 894 72 839 q 340 949 206 949 q 504 928 429 949 l 504 807 q 343 831 422 831 q 234 806 264 831 q 204 731 204 781 m 271 999 l 197 1150 l 269 1150 l 322 1067 l 374 1150 l 446 1150 l 372 999 l 271 999 z "},"č":{"ha":517,"x_min":72,"x_max":474,"o":"m 203 586 l 203 211 q 231 136 203 160 q 333 113 260 113 q 474 135 407 113 l 474 13 q 317 -7 393 -7 q 72 204 72 -7 l 72 594 q 317 806 72 806 q 472 786 404 806 l 472 665 q 331 685 403 685 q 231 661 260 685 q 203 586 203 638 m 258 860 l 185 1011 l 257 1011 l 310 928 l 361 1011 l 433 1011 l 360 860 l 258 860 z "},"Ď":{"ha":657,"x_min":86,"x_max":586,"o":"m 86 942 l 358 942 q 528 886 469 942 q 586 731 586 831 l 586 217 q 531 58 586 115 q 364 0 476 0 l 86 0 l 86 942 m 456 224 l 456 726 q 346 832 456 832 l 217 832 l 217 114 l 346 114 q 456 224 456 114 m 265 999 l 192 1150 l 264 1150 l 317 1067 l 368 1150 l 440 1150 l 367 999 l 265 999 z "},"ď":{"ha":644,"x_min":72,"x_max":719,"o":"m 678 1010 q 719 971 719 1010 q 650 826 719 928 l 596 826 l 632 1010 l 678 1010 m 410 681 l 315 681 q 203 575 203 681 l 203 207 q 294 114 203 114 q 410 153 368 114 l 410 681 m 410 1011 l 542 1011 l 542 0 l 413 0 l 413 50 q 263 -4 356 -4 q 121 47 169 -4 q 72 192 72 97 l 72 579 q 132 740 72 682 q 299 799 192 799 l 410 799 l 410 1011 z "},"Đ":{"ha":661,"x_min":6,"x_max":592,"o":"m 92 942 l 364 942 q 533 886 475 942 q 592 731 592 831 l 592 217 q 537 58 592 115 q 369 0 482 0 l 92 0 l 92 413 l 6 413 l 6 524 l 92 524 l 92 942 m 461 224 l 461 726 q 351 832 461 832 l 222 832 l 222 524 l 344 524 l 344 413 l 222 413 l 222 114 l 351 114 q 461 224 461 114 z "},"đ":{"ha":629,"x_min":74,"x_max":599,"o":"m 599 946 l 599 875 l 543 875 l 543 0 l 414 0 l 414 50 q 264 -4 357 -4 q 122 47 171 -4 q 74 192 74 97 l 74 579 q 133 740 74 682 q 300 799 193 799 l 411 799 l 411 875 l 238 875 l 238 946 l 411 946 l 411 1011 l 543 1011 l 543 946 l 599 946 m 411 681 l 317 681 q 204 575 204 681 l 204 207 q 296 114 204 114 q 411 153 369 114 l 411 681 z "},"Ē":{"ha":561,"x_min":86,"x_max":515,"o":"m 135 1113 l 461 1113 l 461 1035 l 135 1035 l 135 1113 m 86 942 l 515 942 l 515 826 l 217 826 l 217 533 l 476 533 l 476 418 l 217 418 l 217 114 l 515 114 l 515 0 l 86 0 l 86 942 z "},"ē":{"ha":604,"x_min":72,"x_max":542,"o":"m 72 211 l 72 594 q 131 753 72 694 q 308 813 189 813 q 485 753 428 813 q 542 594 542 694 l 542 340 l 200 340 l 200 218 q 234 136 200 163 q 353 110 268 110 q 519 135 439 110 l 519 15 q 342 -7 436 -7 q 72 211 72 -7 m 200 446 l 418 446 l 418 593 q 309 701 418 701 q 200 593 200 701 l 200 446 m 471 974 l 471 896 l 144 896 l 144 974 l 471 974 z "},"Ė":{"ha":561,"x_min":86,"x_max":515,"o":"m 367 1095 q 367 1066 367 1095 q 306 1036 367 1036 q 244 1095 244 1036 q 306 1154 244 1154 q 367 1095 367 1154 m 86 942 l 515 942 l 515 826 l 217 826 l 217 533 l 476 533 l 476 418 l 217 418 l 217 114 l 515 114 l 515 0 l 86 0 l 86 942 z "},"ė":{"ha":604,"x_min":72,"x_max":542,"o":"m 72 211 l 72 594 q 131 753 72 694 q 308 813 189 813 q 485 753 428 813 q 542 594 542 694 l 542 340 l 200 340 l 200 218 q 234 136 200 163 q 353 110 268 110 q 519 135 439 110 l 519 15 q 342 -7 436 -7 q 72 211 72 -7 m 200 446 l 418 446 l 418 593 q 309 701 418 701 q 200 593 200 701 l 200 446 m 374 956 q 374 927 374 956 q 313 897 374 897 q 251 956 251 897 q 313 1015 251 1015 q 374 956 374 1015 z "},"Ę":{"ha":561,"x_min":86,"x_max":515,"o":"m 515 826 l 217 826 l 217 533 l 476 533 l 476 418 l 217 418 l 217 114 l 515 114 l 515 0 l 514 0 q 450 -129 450 -54 q 497 -179 450 -179 l 514 -179 l 514 -254 l 490 -254 q 371 -156 371 -254 q 457 0 371 -67 l 86 0 l 86 942 l 515 942 l 515 826 z "},"ę":{"ha":604,"x_min":72,"x_max":542,"o":"m 72 211 l 72 594 q 131 753 72 694 q 308 813 189 813 q 485 753 428 813 q 542 594 542 694 l 542 340 l 200 340 l 200 218 q 234 136 200 163 q 353 110 268 110 q 519 135 439 110 l 519 15 l 515 14 q 454 -112 454 -40 q 501 -162 454 -162 l 518 -162 l 518 -237 l 494 -237 q 375 -139 375 -237 q 440 -1 375 -64 q 342 -7 388 -7 q 72 211 72 -7 m 200 446 l 418 446 l 418 593 q 309 701 418 701 q 200 593 200 701 l 200 446 z "},"Ě":{"ha":561,"x_min":86,"x_max":515,"o":"m 515 826 l 217 826 l 217 533 l 476 533 l 476 418 l 217 418 l 217 114 l 515 114 l 515 0 l 86 0 l 86 942 l 515 942 l 515 826 m 249 999 l 175 1150 l 247 1150 l 300 1067 l 351 1150 l 424 1150 l 350 999 l 249 999 z "},"ě":{"ha":604,"x_min":72,"x_max":542,"o":"m 72 211 l 72 594 q 131 753 72 694 q 308 813 189 813 q 485 753 428 813 q 542 594 542 694 l 542 340 l 200 340 l 200 218 q 234 136 200 163 q 353 110 268 110 q 519 135 439 110 l 519 15 q 342 -7 436 -7 q 72 211 72 -7 m 200 446 l 418 446 l 418 593 q 309 701 418 701 q 200 593 200 701 l 200 446 m 261 860 l 188 1011 l 260 1011 l 313 928 l 364 1011 l 436 1011 l 363 860 l 261 860 z "},"Ğ":{"ha":631,"x_min":72,"x_max":558,"o":"m 440 1041 q 418 1020 440 1041 q 326 999 397 999 q 213 1041 256 999 q 169 1150 171 1083 l 250 1150 q 271 1092 251 1114 q 326 1071 290 1071 q 382 1092 363 1071 q 403 1150 401 1114 l 483 1150 q 440 1041 482 1083 m 72 733 q 141 892 72 835 q 350 949 210 949 q 526 925 444 949 l 526 800 q 351 828 443 828 q 204 722 204 828 l 204 211 q 326 111 204 111 q 429 135 394 111 l 429 475 l 558 475 l 558 49 q 331 -7 457 -7 q 139 45 206 -7 q 72 201 72 97 l 72 733 z "},"ğ":{"ha":624,"x_min":44,"x_max":601,"o":"m 601 747 l 554 747 q 500 735 522 747 q 539 606 539 686 l 539 492 q 480 340 539 394 q 301 285 421 286 q 236 224 236 285 q 253 182 236 194 q 315 169 271 169 l 396 169 q 593 4 593 169 l 593 -19 q 328 -207 593 -207 l 274 -207 q 44 -158 122 -207 l 44 -36 q 271 -96 136 -96 l 315 -96 q 433 -76 399 -96 q 468 -18 468 -57 l 468 -6 q 451 44 468 28 q 383 60 433 60 l 299 60 q 119 181 119 60 l 119 203 q 193 297 119 281 q 53 492 53 338 l 53 606 q 113 758 53 704 q 282 813 174 813 q 449 779 390 813 q 581 868 478 868 l 601 868 l 601 747 m 408 493 l 408 604 q 382 680 408 656 q 296 704 356 704 q 210 680 236 704 q 183 604 183 656 l 183 493 q 210 417 183 442 q 296 393 236 393 q 382 417 356 393 q 408 493 408 442 m 409 902 q 388 881 409 902 q 296 860 367 860 q 183 902 225 860 q 139 1011 140 944 l 219 1011 q 240 953 221 975 q 296 932 260 932 q 351 953 332 932 q 372 1011 371 975 l 453 1011 q 409 902 451 944 z "},"Ģ":{"ha":631,"x_min":72,"x_max":558,"o":"m 349 -85 q 389 -127 389 -85 q 319 -267 389 -169 l 267 -267 l 303 -85 l 349 -85 m 72 733 q 141 892 72 835 q 350 949 210 949 q 526 925 444 949 l 526 800 q 351 828 443 828 q 204 722 204 828 l 204 211 q 326 111 204 111 q 429 135 394 111 l 429 475 l 558 475 l 558 49 q 331 -7 457 -7 q 139 45 206 -7 q 72 201 72 97 l 72 733 z "},"ģ":{"ha":624,"x_min":44,"x_max":601,"o":"m 601 747 l 554 747 q 500 735 522 747 q 539 606 539 686 l 539 492 q 480 340 539 394 q 301 285 421 286 q 236 224 236 285 q 253 182 236 194 q 315 169 271 169 l 396 169 q 593 4 593 169 l 593 -19 q 328 -207 593 -207 l 274 -207 q 44 -158 122 -207 l 44 -36 q 271 -96 136 -96 l 315 -96 q 433 -76 399 -96 q 468 -18 468 -57 l 468 -6 q 451 44 468 28 q 383 60 433 60 l 299 60 q 119 181 119 60 l 119 203 q 193 297 119 281 q 53 492 53 338 l 53 606 q 113 758 53 704 q 282 813 174 813 q 449 779 390 813 q 581 868 478 868 l 601 868 l 601 747 m 408 493 l 408 604 q 382 680 408 656 q 296 704 356 704 q 210 680 236 704 q 183 604 183 656 l 183 493 q 210 417 183 442 q 296 393 236 393 q 382 417 356 393 q 408 493 408 442 m 290 860 q 249 902 249 860 q 318 1042 249 944 l 372 1042 l 336 860 l 290 860 z "},"Ī":{"ha":303,"x_min":-8,"x_max":318,"o":"m -8 1113 l 318 1113 l 318 1035 l -8 1035 l -8 1113 m 86 942 l 218 942 l 218 0 l 86 0 l 86 942 z "},"ī":{"ha":303,"x_min":-12,"x_max":314,"o":"m -12 974 l 314 974 l 314 896 l -12 896 l -12 974 m 86 789 l 217 789 l 217 0 l 86 0 l 86 789 z "},"Į":{"ha":303,"x_min":75,"x_max":218,"o":"m 218 942 l 218 0 q 154 -129 154 -54 q 201 -179 154 -179 l 218 -179 l 218 -254 l 194 -254 q 75 -156 75 -254 q 161 0 75 -67 l 86 0 l 86 942 l 218 942 z "},"į":{"ha":303,"x_min":74,"x_max":228,"o":"m 86 0 l 86 789 l 217 789 l 217 0 q 153 -129 153 -54 q 200 -179 153 -179 l 217 -179 l 217 -254 l 193 -254 q 74 -156 74 -254 q 160 0 74 -67 l 86 0 m 228 945 q 228 907 228 945 q 151 868 228 868 q 75 945 75 868 q 151 1022 75 1022 q 228 945 228 1022 z "},"İ":{"ha":303,"x_min":86,"x_max":218,"o":"m 210 1095 q 210 1066 210 1095 q 149 1036 210 1036 q 88 1095 88 1036 q 149 1154 88 1154 q 210 1095 210 1154 m 86 942 l 218 942 l 218 0 l 86 0 l 86 942 z "},"ı":{"ha":303,"x_min":86,"x_max":217,"o":"m 86 789 l 217 789 l 217 0 l 86 0 l 86 789 z "},"Ķ":{"ha":622,"x_min":86,"x_max":604,"o":"m 339 -85 q 381 -127 381 -85 q 311 -267 381 -169 l 257 -267 l 293 -85 l 339 -85 m 86 942 l 217 942 l 217 0 l 86 0 l 86 942 m 451 942 l 592 942 l 401 476 l 604 0 l 458 0 l 263 474 l 451 942 z "},"ķ":{"ha":572,"x_min":86,"x_max":553,"o":"m 304 -85 q 346 -127 346 -85 q 276 -267 346 -169 l 222 -267 l 258 -85 l 304 -85 m 86 1011 l 214 1011 l 214 0 l 86 0 l 86 1011 m 403 799 l 538 799 l 381 417 l 553 0 l 413 0 l 246 419 l 403 799 z "},"Ĺ":{"ha":500,"x_min":86,"x_max":493,"o":"m 86 942 l 218 942 l 218 113 l 493 113 l 493 0 l 86 0 l 86 942 m 164 1150 l 275 1150 l 186 999 l 108 999 l 164 1150 z "},"ĺ":{"ha":303,"x_min":86,"x_max":278,"o":"m 86 1011 l 217 1011 l 217 0 l 86 0 l 86 1011 m 167 1219 l 278 1219 l 189 1068 l 111 1068 l 167 1219 z "},"Ļ":{"ha":500,"x_min":86,"x_max":493,"o":"m 290 -85 q 331 -124 331 -85 q 307 -193 331 -147 q 261 -267 283 -239 l 208 -267 l 244 -85 l 290 -85 m 86 942 l 218 942 l 218 113 l 493 113 l 493 0 l 86 0 l 86 942 z "},"ļ":{"ha":303,"x_min":75,"x_max":217,"o":"m 157 -85 q 199 -127 199 -85 q 129 -267 199 -169 l 75 -267 l 111 -85 l 157 -85 m 86 1011 l 217 1011 l 217 0 l 86 0 l 86 1011 z "},"Ľ":{"ha":500,"x_min":25,"x_max":493,"o":"m 218 113 l 493 113 l 493 0 l 86 0 l 86 942 l 218 942 l 218 113 m 99 999 l 25 1150 l 97 1150 l 150 1067 l 201 1150 l 274 1150 l 200 999 l 99 999 z "},"ľ":{"ha":303,"x_min":86,"x_max":394,"o":"m 354 1010 q 394 969 394 1010 q 325 826 394 928 l 272 826 l 308 1010 l 354 1010 m 86 1011 l 217 1011 l 217 0 l 86 0 l 86 1011 z "},"Ł":{"ha":501,"x_min":15,"x_max":499,"o":"m 224 113 l 499 113 l 499 0 l 92 0 l 92 381 l 15 344 l 15 440 l 92 476 l 92 942 l 224 942 l 224 540 l 354 603 l 354 506 l 224 443 l 224 113 z "},"ł":{"ha":306,"x_min":14,"x_max":290,"o":"m 218 0 l 88 0 l 88 588 l 14 550 l 14 646 l 88 683 l 88 1011 l 218 1011 l 218 750 l 290 786 l 290 690 l 218 654 l 218 0 z "},"Ń":{"ha":707,"x_min":86,"x_max":621,"o":"m 492 942 l 621 942 l 621 0 l 482 0 q 197 739 264 557 q 203 675 197 724 q 214 407 214 554 l 214 0 l 86 0 l 86 942 l 226 942 q 461 336 419 453 q 508 204 503 219 q 501 327 508 217 q 492 540 493 438 l 492 942 m 364 1150 l 475 1150 l 386 999 l 308 999 l 364 1150 z "},"ń":{"ha":632,"x_min":86,"x_max":553,"o":"m 211 763 q 377 801 300 801 q 503 755 454 801 q 553 621 553 708 l 553 0 l 419 0 l 419 599 q 338 681 419 681 q 217 650 278 681 l 217 0 l 86 0 l 86 799 l 211 799 l 211 763 m 328 1011 l 439 1011 l 350 860 l 272 860 l 328 1011 z "},"Ņ":{"ha":707,"x_min":86,"x_max":621,"o":"m 347 -85 q 388 -127 388 -85 q 318 -267 388 -169 l 265 -267 l 301 -85 l 347 -85 m 492 942 l 621 942 l 621 0 l 482 0 q 197 739 264 557 q 203 675 197 724 q 214 407 214 554 l 214 0 l 86 0 l 86 942 l 226 942 q 461 336 419 453 q 508 204 503 219 q 501 327 508 217 q 492 540 493 438 l 492 942 z "},"ņ":{"ha":632,"x_min":86,"x_max":553,"o":"m 318 -85 q 358 -127 358 -85 q 289 -267 358 -169 l 235 -267 l 271 -85 l 318 -85 m 211 763 q 377 801 300 801 q 503 755 454 801 q 553 621 553 708 l 553 0 l 419 0 l 419 599 q 338 681 419 681 q 217 650 278 681 l 217 0 l 86 0 l 86 799 l 211 799 l 211 763 z "},"Ň":{"ha":707,"x_min":86,"x_max":621,"o":"m 492 942 l 621 942 l 621 0 l 482 0 q 197 739 264 557 q 203 675 197 724 q 214 407 214 554 l 214 0 l 86 0 l 86 942 l 226 942 q 461 336 419 453 q 508 204 503 219 q 501 327 508 217 q 492 540 493 438 l 492 942 m 300 999 l 226 1150 l 299 1150 l 351 1067 l 403 1150 l 475 1150 l 401 999 l 300 999 z "},"ň":{"ha":632,"x_min":86,"x_max":553,"o":"m 211 799 l 211 763 q 377 801 300 801 q 503 755 454 801 q 553 621 553 708 l 553 0 l 419 0 l 419 599 q 338 681 419 681 q 217 650 278 681 l 217 0 l 86 0 l 86 799 l 211 799 m 260 860 l 186 1011 l 258 1011 l 311 928 l 363 1011 l 435 1011 l 361 860 l 260 860 z "},"Ō":{"ha":647,"x_min":72,"x_max":575,"o":"m 444 722 q 324 836 444 836 q 203 722 203 836 l 203 219 q 324 104 203 104 q 444 219 444 104 l 444 722 m 72 726 q 135 893 72 831 q 323 956 199 956 q 511 892 447 956 q 575 726 575 829 l 575 214 q 511 49 575 111 q 324 -14 447 -14 q 136 49 200 -14 q 72 214 72 111 l 72 726 m 161 1113 l 488 1113 l 488 1035 l 161 1035 l 161 1113 z "},"ō":{"ha":617,"x_min":72,"x_max":546,"o":"m 415 592 q 308 699 415 699 q 201 592 201 699 l 201 207 q 308 100 201 100 q 415 207 415 100 l 415 592 m 72 594 q 131 753 72 694 q 308 813 189 813 q 487 753 428 813 q 546 594 546 694 l 546 204 q 487 45 546 104 q 308 -14 428 -14 q 131 45 189 -14 q 72 204 72 104 l 72 594 m 143 974 l 469 974 l 469 896 l 143 896 l 143 974 z "},"Ő":{"ha":647,"x_min":72,"x_max":575,"o":"m 444 722 q 324 836 444 836 q 203 722 203 836 l 203 219 q 324 104 203 104 q 444 219 444 104 l 444 722 m 72 726 q 135 893 72 831 q 323 956 199 956 q 511 892 447 956 q 575 726 575 829 l 575 214 q 511 49 575 111 q 324 -14 447 -14 q 136 49 200 -14 q 72 214 72 111 l 72 726 m 276 1150 l 379 1150 l 288 999 l 218 999 l 276 1150 m 410 1150 l 511 1150 l 419 999 l 350 999 l 410 1150 z "},"ő":{"ha":617,"x_min":72,"x_max":546,"o":"m 415 592 q 308 699 415 699 q 201 592 201 699 l 201 207 q 308 100 201 100 q 415 207 415 100 l 415 592 m 72 594 q 131 753 72 694 q 308 813 189 813 q 487 753 428 813 q 546 594 546 694 l 546 204 q 487 45 546 104 q 308 -14 428 -14 q 131 45 189 -14 q 72 204 72 104 l 72 594 m 269 1011 l 372 1011 l 281 860 l 211 860 l 269 1011 m 403 1011 l 504 1011 l 413 860 l 343 860 l 403 1011 z "},"Œ":{"ha":947,"x_min":100,"x_max":908,"o":"m 908 826 l 610 826 l 610 533 l 869 533 l 869 418 l 610 418 l 610 114 l 908 114 l 908 0 l 322 0 q 154 58 208 0 q 100 217 100 115 l 100 731 q 158 886 100 831 q 328 942 217 942 l 908 942 l 908 826 m 340 114 l 479 114 l 479 832 l 340 832 q 231 726 231 832 l 231 224 q 340 114 231 114 z "},"œ":{"ha":969,"x_min":79,"x_max":896,"o":"m 79 204 l 79 594 q 138 753 79 694 q 313 813 197 813 q 490 758 429 813 q 667 813 551 813 q 839 753 782 813 q 896 594 896 694 l 896 340 l 554 340 l 554 218 q 588 136 554 163 q 707 110 622 110 q 874 135 792 110 l 874 15 q 696 -7 790 -7 q 494 46 563 -7 q 316 -14 435 -14 q 138 45 197 -14 q 79 204 79 104 m 424 207 l 424 592 q 317 699 424 699 q 210 592 210 699 l 210 207 q 317 100 210 100 q 424 207 424 100 m 554 446 l 772 446 l 772 593 q 663 701 772 701 q 554 593 554 701 l 554 446 z "},"Ŕ":{"ha":644,"x_min":86,"x_max":600,"o":"m 217 367 l 217 0 l 86 0 l 86 942 l 339 942 q 509 886 450 942 q 568 732 568 831 l 568 582 q 450 383 568 428 l 600 0 l 456 0 l 321 367 l 217 367 m 217 828 l 217 476 l 328 476 q 412 503 386 476 q 438 583 438 529 l 438 724 q 328 828 438 828 l 217 828 m 442 1150 l 353 999 l 275 999 l 331 1150 l 442 1150 z "},"ŕ":{"ha":408,"x_min":86,"x_max":401,"o":"m 369 803 l 401 803 l 401 679 l 360 679 q 217 626 294 679 l 217 0 l 86 0 l 86 799 l 211 799 l 211 740 q 227 751 215 743 q 242 762 239 760 q 256 771 246 764 q 271 779 267 778 q 284 785 275 781 q 299 792 293 790 q 313 797 304 793 q 331 800 322 800 q 369 803 356 803 m 269 1011 l 381 1011 l 292 860 l 214 860 l 269 1011 z "},"Ŗ":{"ha":644,"x_min":86,"x_max":600,"o":"m 217 367 l 217 0 l 86 0 l 86 942 l 339 942 q 509 886 450 942 q 568 732 568 831 l 568 582 q 450 383 568 428 l 600 0 l 456 0 l 321 367 l 217 367 m 217 828 l 217 476 l 328 476 q 412 503 386 476 q 438 583 438 529 l 438 724 q 328 828 438 828 l 217 828 m 332 -85 q 372 -127 372 -85 q 303 -267 372 -169 l 250 -267 l 286 -85 l 332 -85 z "},"ŗ":{"ha":408,"x_min":75,"x_max":401,"o":"m 157 -85 q 199 -127 199 -85 q 129 -267 199 -169 l 75 -267 l 111 -85 l 157 -85 m 369 803 l 401 803 l 401 679 l 360 679 q 217 626 294 679 l 217 0 l 86 0 l 86 799 l 211 799 l 211 740 q 227 751 215 743 q 242 762 239 760 q 256 771 246 764 q 271 779 267 778 q 284 785 275 781 q 299 792 293 790 q 313 797 304 793 q 331 800 322 800 q 369 803 356 803 z "},"Ř":{"ha":644,"x_min":86,"x_max":600,"o":"m 217 367 l 217 0 l 86 0 l 86 942 l 339 942 q 509 886 450 942 q 568 732 568 831 l 568 582 q 450 383 568 428 l 600 0 l 456 0 l 321 367 l 217 367 m 217 828 l 217 476 l 328 476 q 412 503 386 476 q 438 583 438 529 l 438 724 q 328 828 438 828 l 217 828 m 260 999 l 186 1150 l 258 1150 l 311 1067 l 363 1150 l 435 1150 l 361 999 l 260 999 z "},"ř":{"ha":408,"x_min":86,"x_max":401,"o":"m 369 803 l 401 803 l 401 679 l 360 679 q 217 626 294 679 l 217 0 l 86 0 l 86 799 l 211 799 l 211 740 q 227 751 215 743 q 242 762 239 760 q 256 771 246 764 q 271 779 267 778 q 284 785 275 781 q 299 792 293 790 q 313 797 304 793 q 331 800 322 800 q 369 803 356 803 m 196 860 l 122 1011 l 194 1011 l 247 928 l 299 1011 l 371 1011 l 297 860 l 196 860 z "},"Ś":{"ha":560,"x_min":36,"x_max":521,"o":"m 36 742 q 101 894 36 840 q 285 949 165 949 q 479 924 404 949 l 479 799 q 297 828 404 828 q 168 732 168 828 l 168 678 q 185 608 168 633 q 247 557 203 582 l 408 467 q 521 282 521 406 l 521 204 q 450 48 521 103 q 251 -7 379 -7 q 44 22 122 -7 l 44 147 q 238 114 136 114 q 389 217 389 114 l 389 264 q 374 328 389 306 q 317 374 358 351 l 160 460 q 36 658 36 526 l 36 742 m 297 1150 l 408 1150 l 319 999 l 242 999 l 297 1150 z "},"ś":{"ha":513,"x_min":36,"x_max":476,"o":"m 36 604 q 95 756 36 706 q 288 806 154 806 q 446 783 376 806 l 446 664 q 299 689 379 689 q 192 667 218 689 q 165 597 165 646 l 165 569 q 181 513 165 532 q 239 471 196 493 l 357 407 q 476 235 476 343 l 476 199 q 210 -7 476 -7 q 39 14 119 -7 l 39 135 q 195 111 110 111 q 313 133 281 111 q 346 201 346 156 l 346 225 q 328 278 346 258 q 260 325 311 299 l 147 383 q 36 560 36 440 l 36 604 m 285 1011 l 396 1011 l 307 860 l 229 860 l 285 1011 z "},"Ş":{"ha":560,"x_min":36,"x_max":521,"o":"m 271 -85 q 311 -127 311 -85 q 242 -267 311 -169 l 189 -267 l 225 -85 l 271 -85 m 36 742 q 101 894 36 840 q 285 949 165 949 q 479 924 404 949 l 479 799 q 297 828 404 828 q 168 732 168 828 l 168 678 q 185 608 168 633 q 247 557 203 582 l 408 467 q 521 282 521 406 l 521 204 q 450 48 521 103 q 251 -7 379 -7 q 44 22 122 -7 l 44 147 q 238 114 136 114 q 389 217 389 114 l 389 264 q 374 328 389 306 q 317 374 358 351 l 160 460 q 36 658 36 526 l 36 742 z "},"ş":{"ha":513,"x_min":36,"x_max":476,"o":"m 254 -85 q 296 -127 296 -85 q 226 -267 296 -169 l 172 -267 l 208 -85 l 254 -85 m 36 604 q 95 756 36 706 q 288 806 154 806 q 446 783 376 806 l 446 664 q 299 689 379 689 q 192 667 218 689 q 165 597 165 646 l 165 569 q 181 513 165 532 q 239 471 196 493 l 357 407 q 476 235 476 343 l 476 199 q 210 -7 476 -7 q 39 14 119 -7 l 39 135 q 195 111 110 111 q 313 133 281 111 q 346 201 346 156 l 346 225 q 328 278 346 258 q 260 325 311 299 l 147 383 q 36 560 36 440 l 36 604 z "},"Š":{"ha":560,"x_min":36,"x_max":521,"o":"m 521 282 l 521 204 q 450 48 521 103 q 251 -7 379 -7 q 44 22 122 -7 l 44 147 q 238 114 136 114 q 389 217 389 114 l 389 264 q 374 328 389 306 q 317 374 358 351 l 160 460 q 36 658 36 526 l 36 742 q 101 894 36 840 q 285 949 165 949 q 479 924 404 949 l 479 799 q 297 828 404 828 q 168 732 168 828 l 168 678 q 185 608 168 633 q 247 557 203 582 l 408 467 q 521 282 521 406 m 232 999 l 158 1150 l 231 1150 l 283 1067 l 335 1150 l 407 1150 l 333 999 l 232 999 z "},"š":{"ha":513,"x_min":36,"x_max":476,"o":"m 476 235 l 476 199 q 210 -7 476 -7 q 39 14 119 -7 l 39 135 q 195 111 110 111 q 313 133 281 111 q 346 201 346 156 l 346 225 q 328 278 346 258 q 260 325 311 299 l 147 383 q 36 560 36 440 l 36 604 q 95 756 36 706 q 288 806 154 806 q 446 783 376 806 l 446 664 q 299 689 379 689 q 192 667 218 689 q 165 597 165 646 l 165 569 q 181 513 165 532 q 239 471 196 493 l 357 407 q 476 235 476 343 m 214 860 l 140 1011 l 213 1011 l 265 928 l 317 1011 l 389 1011 l 315 860 l 214 860 z "},"Ţ":{"ha":511,"x_min":11,"x_max":501,"o":"m 501 942 l 501 826 l 322 826 l 322 0 l 190 0 l 190 826 l 11 826 l 11 942 l 501 942 m 264 -85 q 304 -127 304 -85 q 235 -267 304 -169 l 182 -267 l 218 -85 l 264 -85 z "},"ţ":{"ha":415,"x_min":7,"x_max":394,"o":"m 254 -85 q 296 -127 296 -85 q 226 -267 296 -169 l 172 -267 l 208 -85 l 254 -85 m 221 942 l 221 799 l 382 799 l 382 686 l 221 686 l 221 190 q 304 110 221 110 q 394 126 344 110 l 394 8 q 381 6 393 8 q 357 0 369 3 q 285 -8 319 -8 q 90 181 90 -8 l 90 686 l 7 686 l 7 799 l 94 799 l 133 942 l 221 942 z "},"Ť":{"ha":511,"x_min":11,"x_max":501,"o":"m 501 942 l 501 826 l 322 826 l 322 0 l 190 0 l 190 826 l 11 826 l 11 942 l 501 942 m 203 999 l 129 1150 l 201 1150 l 254 1067 l 306 1150 l 378 1150 l 304 999 l 203 999 z "},"ť":{"ha":415,"x_min":7,"x_max":468,"o":"m 221 942 l 221 799 l 382 799 l 382 686 l 221 686 l 221 190 q 304 110 221 110 q 394 126 344 110 l 394 8 q 381 6 393 8 q 357 0 369 3 q 285 -8 319 -8 q 90 181 90 -8 l 90 686 l 7 686 l 7 799 l 94 799 l 133 942 l 221 942 m 422 1107 q 468 1061 468 1107 q 385 867 468 1015 l 329 867 l 372 1107 l 422 1107 z "},"Ū":{"ha":658,"x_min":79,"x_max":579,"o":"m 165 1113 l 492 1113 l 492 1035 l 165 1035 l 165 1113 m 449 942 l 579 942 l 579 214 q 516 49 579 111 q 329 -14 453 -14 q 142 49 206 -14 q 79 214 79 111 l 79 942 l 210 942 l 210 219 q 329 104 210 104 q 449 219 449 104 l 449 942 z "},"ū":{"ha":633,"x_min":79,"x_max":549,"o":"m 149 974 l 475 974 l 475 896 l 149 896 l 149 974 m 303 115 q 417 150 361 115 l 417 799 l 549 799 l 549 0 l 424 0 l 424 38 q 264 -3 351 -3 q 128 47 176 -3 q 79 192 79 97 l 79 799 l 211 799 l 211 210 q 303 115 211 115 z "},"Ů":{"ha":658,"x_min":79,"x_max":579,"o":"m 449 942 l 579 942 l 579 214 q 516 49 579 111 q 329 -14 453 -14 q 142 49 206 -14 q 79 214 79 111 l 79 942 l 210 942 l 210 219 q 329 104 210 104 q 449 219 449 104 l 449 942 m 365 1040 q 372 1046 365 1040 q 378 1074 378 1053 q 365 1107 378 1094 q 332 1119 353 1119 q 299 1107 311 1119 q 286 1074 286 1094 q 299 1040 286 1053 q 332 1026 311 1026 q 365 1040 353 1026 m 333 969 q 308 969 333 969 q 255 999 283 969 q 226 1074 226 1029 q 254 1148 226 1119 q 332 1176 282 1176 q 410 1148 382 1176 q 438 1074 438 1119 q 410 999 438 1029 q 333 969 382 969 z "},"ů":{"ha":633,"x_min":79,"x_max":549,"o":"m 303 115 q 417 150 361 115 l 417 799 l 549 799 l 549 0 l 424 0 l 424 38 q 264 -3 351 -3 q 128 47 176 -3 q 79 192 79 97 l 79 799 l 211 799 l 211 210 q 303 115 211 115 m 346 901 q 352 907 346 901 q 358 935 358 914 q 346 968 358 956 q 313 981 333 981 q 279 968 292 981 q 267 935 267 956 q 279 901 267 914 q 313 888 292 888 q 346 901 333 888 m 313 831 q 289 831 313 831 q 235 860 264 831 q 207 935 207 890 q 235 1009 207 981 q 313 1038 263 1038 q 390 1009 363 1038 q 418 935 418 981 q 390 860 418 890 q 313 831 363 831 z "},"Ű":{"ha":658,"x_min":79,"x_max":579,"o":"m 274 1150 l 376 1150 l 285 999 l 215 999 l 274 1150 m 407 1150 l 508 1150 l 417 999 l 347 999 l 407 1150 m 449 942 l 579 942 l 579 214 q 516 49 579 111 q 329 -14 453 -14 q 142 49 206 -14 q 79 214 79 111 l 79 942 l 210 942 l 210 219 q 329 104 210 104 q 449 219 449 104 l 449 942 z "},"ű":{"ha":633,"x_min":79,"x_max":549,"o":"m 264 1011 l 367 1011 l 275 860 l 206 860 l 264 1011 m 397 1011 l 499 1011 l 407 860 l 338 860 l 397 1011 m 303 115 q 417 150 361 115 l 417 799 l 549 799 l 549 0 l 424 0 l 424 38 q 264 -3 351 -3 q 128 47 176 -3 q 79 192 79 97 l 79 799 l 211 799 l 211 210 q 303 115 211 115 z "},"Ų":{"ha":658,"x_min":79,"x_max":579,"o":"m 449 942 l 579 942 l 579 214 q 456 10 579 63 q 397 -115 397 -44 q 444 -165 397 -165 l 461 -165 l 461 -240 l 438 -240 q 318 -142 318 -240 q 376 -11 318 -74 q 329 -14 346 -14 q 142 49 206 -14 q 79 214 79 111 l 79 942 l 210 942 l 210 219 q 329 104 210 104 q 449 219 449 104 l 449 942 z "},"ų":{"ha":633,"x_min":79,"x_max":549,"o":"m 303 115 q 417 150 361 115 l 417 799 l 549 799 l 549 0 l 547 0 q 483 -129 483 -54 q 531 -179 483 -179 l 547 -179 l 547 -254 l 524 -254 q 404 -156 404 -254 q 490 0 404 -67 l 424 0 l 424 38 q 264 -3 351 -3 q 128 47 176 -3 q 79 192 79 97 l 79 799 l 211 799 l 211 210 q 303 115 211 115 z "},"Ÿ":{"ha":597,"x_min":4,"x_max":594,"o":"m 365 0 l 233 0 l 233 310 l 4 942 l 139 942 l 218 719 q 301 454 261 594 q 383 719 340 590 l 463 942 l 594 942 l 365 310 l 365 0 m 458 1073 q 458 1043 458 1073 q 397 1014 458 1014 q 336 1073 336 1014 q 397 1132 336 1132 q 458 1073 458 1132 m 256 1073 q 256 1043 256 1073 q 194 1014 256 1014 q 133 1073 133 1014 q 194 1132 133 1132 q 256 1073 256 1132 z "},"Ź":{"ha":549,"x_min":36,"x_max":510,"o":"m 43 942 l 510 942 l 510 832 l 172 113 l 508 113 l 508 0 l 36 0 l 36 113 l 369 829 l 43 829 l 43 942 m 288 1150 l 399 1150 l 310 999 l 232 999 l 288 1150 z "},"ź":{"ha":463,"x_min":28,"x_max":435,"o":"m 35 799 l 433 799 l 433 708 l 165 113 l 435 113 l 435 0 l 28 0 l 28 92 l 293 686 l 35 686 l 35 799 m 250 1011 l 361 1011 l 272 860 l 194 860 l 250 1011 z "},"Ż":{"ha":549,"x_min":36,"x_max":510,"o":"m 335 1095 q 335 1066 335 1095 q 274 1036 335 1036 q 213 1095 213 1036 q 274 1154 213 1154 q 335 1095 335 1154 m 43 942 l 510 942 l 510 832 l 172 113 l 508 113 l 508 0 l 36 0 l 36 113 l 369 829 l 43 829 l 43 942 z "},"ż":{"ha":463,"x_min":28,"x_max":435,"o":"m 300 956 q 300 927 300 956 q 239 897 300 897 q 178 956 178 897 q 239 1015 178 1015 q 300 956 300 1015 m 35 799 l 433 799 l 433 708 l 165 113 l 435 113 l 435 0 l 28 0 l 28 92 l 293 686 l 35 686 l 35 799 z "},"Ž":{"ha":549,"x_min":36,"x_max":510,"o":"m 510 942 l 510 832 l 172 113 l 508 113 l 508 0 l 36 0 l 36 113 l 369 829 l 43 829 l 43 942 l 510 942 m 224 999 l 150 1150 l 222 1150 l 275 1067 l 326 1150 l 399 1150 l 325 999 l 224 999 z "},"ž":{"ha":463,"x_min":28,"x_max":435,"o":"m 435 113 l 435 0 l 28 0 l 28 92 l 293 686 l 35 686 l 35 799 l 433 799 l 433 708 l 165 113 l 435 113 m 188 860 l 114 1011 l 186 1011 l 239 928 l 290 1011 l 363 1011 l 289 860 l 188 860 z "},"ƒ":{"ha":461,"x_min":-11,"x_max":471,"o":"m -11 104 l 22 103 q 87 124 67 103 q 114 196 107 144 l 175 585 l 65 585 l 65 693 l 192 693 l 210 811 q 270 963 224 913 q 418 1013 317 1013 q 471 1008 444 1013 l 471 903 q 433 906 449 906 q 369 884 389 906 q 342 811 349 863 l 324 693 l 418 693 l 418 585 l 307 585 l 246 196 q 184 44 231 94 q 38 -6 138 -6 q -11 -1 14 -6 l -11 104 z "},"Ș":{"ha":560,"x_min":36,"x_max":521,"o":"m 276 -85 q 318 -127 318 -85 q 249 -267 318 -169 l 194 -267 l 231 -85 l 276 -85 m 36 742 q 101 894 36 840 q 285 949 165 949 q 479 924 404 949 l 479 799 q 297 828 404 828 q 168 732 168 828 l 168 678 q 185 608 168 633 q 247 557 203 582 l 408 467 q 521 282 521 406 l 521 204 q 450 48 521 103 q 251 -7 379 -7 q 44 22 122 -7 l 44 147 q 238 114 136 114 q 389 217 389 114 l 389 264 q 374 328 389 306 q 317 374 358 351 l 160 460 q 36 658 36 526 l 36 742 z "},"ș":{"ha":513,"x_min":36,"x_max":476,"o":"m 268 -85 q 308 -127 308 -85 q 239 -267 308 -169 l 186 -267 l 222 -85 l 268 -85 m 36 604 q 95 756 36 706 q 288 806 154 806 q 446 783 376 806 l 446 664 q 299 689 379 689 q 192 667 218 689 q 165 597 165 646 l 165 569 q 181 513 165 532 q 239 471 196 493 l 357 407 q 476 235 476 343 l 476 199 q 210 -7 476 -7 q 39 14 119 -7 l 39 135 q 195 111 110 111 q 313 133 281 111 q 346 201 346 156 l 346 225 q 328 278 346 258 q 260 325 311 299 l 147 383 q 36 560 36 440 l 36 604 z "},"Ț":{"ha":511,"x_min":11,"x_max":501,"o":"m 501 942 l 501 826 l 322 826 l 322 0 l 190 0 l 190 826 l 11 826 l 11 942 l 501 942 m 260 -85 q 300 -127 300 -85 q 231 -267 300 -169 l 178 -267 l 214 -85 l 260 -85 z "},"ț":{"ha":415,"x_min":7,"x_max":394,"o":"m 257 -85 q 299 -124 299 -85 q 274 -192 299 -147 q 228 -267 250 -237 l 175 -267 l 211 -85 l 257 -85 m 221 942 l 221 799 l 382 799 l 382 686 l 221 686 l 221 190 q 304 110 221 110 q 394 126 344 110 l 394 8 q 381 6 393 8 q 357 0 369 3 q 285 -8 319 -8 q 90 181 90 -8 l 90 686 l 7 686 l 7 799 l 94 799 l 133 942 l 221 942 z "},"ˆ":{"ha":486,"x_min":118,"x_max":367,"o":"m 367 860 l 294 860 l 243 943 l 190 860 l 118 860 l 192 1011 l 293 1011 l 367 860 z "},"ˇ":{"ha":486,"x_min":118,"x_max":367,"o":"m 294 1011 l 367 1011 l 293 860 l 192 860 l 118 1011 l 190 1011 l 243 928 l 294 1011 z "},"ˉ":{"ha":486,"x_min":79,"x_max":406,"o":"m 79 974 l 406 974 l 406 896 l 79 896 l 79 974 z "},"˘":{"ha":486,"x_min":86,"x_max":400,"o":"m 356 902 q 335 881 356 902 q 243 860 314 860 q 130 902 172 860 q 86 1011 88 944 l 167 1011 q 188 953 168 975 q 243 932 207 932 q 299 953 279 932 q 319 1011 318 975 l 400 1011 q 356 902 399 944 z "},"˙":{"ha":486,"x_min":181,"x_max":303,"o":"m 303 956 q 303 927 303 956 q 242 897 303 897 q 181 956 181 897 q 242 1015 181 1015 q 303 956 303 1015 z "},"˚":{"ha":486,"x_min":138,"x_max":349,"o":"m 276 901 q 283 907 276 901 q 289 935 289 914 q 276 968 289 956 q 243 981 264 981 q 210 968 222 981 q 197 935 197 956 q 210 901 197 914 q 243 888 222 888 q 276 901 264 888 m 244 831 q 219 831 244 831 q 166 860 194 831 q 138 935 138 890 q 165 1009 138 981 q 243 1038 193 1038 q 321 1009 293 1038 q 349 935 349 981 q 321 860 349 890 q 244 831 293 831 z "},"˛":{"ha":486,"x_min":172,"x_max":315,"o":"m 251 -129 q 299 -179 251 -179 l 315 -179 l 315 -254 l 292 -254 q 172 -156 172 -254 q 258 0 172 -67 l 315 0 q 251 -129 251 -54 z "},"˜":{"ha":486,"x_min":61,"x_max":424,"o":"m 342 1001 l 424 1001 l 424 986 q 322 871 421 871 q 239 899 286 871 q 174 926 192 926 q 143 881 143 926 l 143 868 l 61 868 l 61 882 q 164 999 64 999 q 250 971 203 999 q 311 943 297 943 q 342 989 342 943 l 342 1001 z "},"˝":{"ha":486,"x_min":96,"x_max":389,"o":"m 154 1011 l 257 1011 l 165 860 l 96 860 l 154 1011 m 288 1011 l 389 1011 l 297 860 l 228 860 l 288 1011 z "},"π":{"ha":632,"x_min":85,"x_max":643,"o":"m 643 799 l 643 686 l 553 686 l 553 0 l 419 0 l 419 686 l 217 686 l 217 0 l 86 0 l 85 799 l 643 799 z "},"ँ":{"ha":0,"x_min":-392,"x_max":94,"o":"m -24 1190 l 94 1190 l 94 1188 q 34 1044 94 1089 q -148 1000 -26 1000 q -331 1044 -269 1000 q -392 1188 -392 1089 l -392 1190 l -274 1190 q -245 1124 -274 1143 q -149 1106 -217 1106 q -52 1124 -81 1106 q -24 1190 -24 1143 m -148 1189 q -182 1189 -148 1189 q -217 1257 -217 1189 q -148 1325 -217 1325 q -79 1257 -79 1325 q -148 1189 -79 1189 z "},"ं":{"ha":0,"x_min":-219,"x_max":-78,"o":"m -78 1081 q -78 1045 -78 1081 q -149 1010 -78 1010 q -219 1081 -219 1010 q -149 1153 -219 1153 q -78 1081 -78 1153 z "},"ः":{"ha":299,"x_min":63,"x_max":206,"o":"m 134 0 q 98 0 134 0 q 63 72 63 0 q 134 143 63 143 q 206 72 206 143 q 134 0 206 0 m 134 476 q 98 476 134 476 q 63 548 63 476 q 134 619 63 619 q 206 548 206 619 q 134 476 206 476 z "},"अ":{"ha":800,"x_min":53,"x_max":839,"o":"m 590 911 l 839 911 l 839 808 l 711 808 l 711 0 l 590 0 l 590 296 l 447 296 l 447 251 q 206 49 444 49 q 53 68 118 49 l 53 181 q 204 158 135 158 q 328 254 328 158 l 328 342 q 306 413 328 389 q 225 438 285 438 l 142 438 l 142 550 l 225 550 q 306 574 285 550 q 328 643 328 597 l 328 711 q 206 807 328 807 q 69 786 139 807 l 69 899 q 206 918 128 918 q 447 715 447 918 l 447 643 q 379 494 447 526 q 442 400 431 468 l 590 400 l 590 911 z "},"आ":{"ha":1118,"x_min":76,"x_max":1158,"o":"m 1158 911 l 1158 808 l 1031 808 l 1031 0 l 910 0 l 910 808 l 735 808 l 735 0 l 614 0 l 614 296 l 471 296 l 471 251 q 229 49 468 49 q 76 68 142 49 l 76 181 q 228 158 158 158 q 351 254 351 158 l 351 342 q 330 413 351 389 q 249 438 308 438 l 165 438 l 165 550 l 249 550 q 330 574 308 550 q 351 643 351 597 l 351 711 q 229 807 351 807 q 93 786 163 807 l 93 899 q 229 918 151 918 q 471 715 471 918 l 471 643 q 403 494 471 526 q 465 400 454 468 l 614 400 l 614 911 l 1158 911 z "},"इ":{"ha":561,"x_min":-40,"x_max":601,"o":"m 181 236 l 181 143 q 283 132 228 132 q 394 214 394 132 l 394 257 q 373 316 394 296 q 296 336 351 336 l 263 336 q 51 513 51 336 l 51 524 q 103 657 51 614 q 263 700 156 700 l 356 700 l 356 808 l -40 808 l -40 911 l 601 911 l 601 808 l 476 808 l 476 594 l 263 594 q 191 576 211 594 q 171 521 171 558 l 171 515 q 263 440 171 440 l 296 440 q 514 260 514 440 l 514 210 q 463 69 514 115 q 296 24 413 24 q 181 35 240 24 l 181 -97 l 64 -97 l 64 236 l 181 236 z "},"ई":{"ha":561,"x_min":-40,"x_max":601,"o":"m 476 594 l 263 594 q 191 576 211 594 q 171 521 171 558 l 171 515 q 263 440 171 440 l 296 440 q 514 260 514 440 l 514 210 q 463 69 514 115 q 296 24 413 24 q 181 35 240 24 l 181 -97 l 64 -97 l 64 236 l 181 236 l 181 143 q 283 132 228 132 q 394 214 394 132 l 394 257 q 373 316 394 296 q 296 336 351 336 l 263 336 q 51 513 51 336 l 51 524 q 103 657 51 614 q 263 700 156 700 l 356 700 l 356 808 l -40 808 l -40 911 l 350 911 q 307 1076 307 997 q 359 1196 307 1156 q 489 1236 411 1236 q 571 1229 515 1236 l 571 1122 q 522 1126 542 1126 q 428 1046 428 1126 q 469 911 428 994 l 601 911 l 601 808 l 476 808 l 476 594 z "},"उ":{"ha":558,"x_min":-40,"x_max":597,"o":"m 354 722 q 336 808 354 772 l -40 808 l -40 911 l 597 911 l 597 808 l 458 808 q 474 722 474 782 l 474 608 q 407 464 474 493 q 474 319 474 436 l 474 199 q 218 -6 474 -6 q 63 15 153 -6 l 63 128 q 217 106 149 106 q 354 200 354 106 l 354 314 q 333 383 354 358 q 253 410 313 408 l 168 410 l 168 521 l 260 521 q 335 545 317 522 q 354 611 354 568 l 354 722 z "},"ऊ":{"ha":800,"x_min":-40,"x_max":840,"o":"m 354 722 q 336 808 354 772 l -40 808 l -40 911 l 840 911 l 840 808 l 458 808 q 474 722 474 782 l 474 608 q 444 494 474 533 q 554 507 501 507 q 706 458 654 507 q 758 318 758 410 l 758 189 q 711 49 758 99 q 572 -1 664 -1 l 540 -1 l 540 111 l 551 111 q 619 131 600 111 q 638 192 638 150 l 638 301 q 538 396 638 396 l 464 396 q 474 319 474 365 l 474 199 q 218 -6 474 -6 q 63 15 153 -6 l 63 128 q 217 106 149 106 q 354 200 354 106 l 354 314 q 333 383 354 358 q 253 410 313 408 l 168 410 l 168 521 l 260 521 q 335 545 317 522 q 354 611 354 568 l 354 722 z "},"ऋ":{"ha":971,"x_min":-40,"x_max":1011,"o":"m 1011 808 l 553 808 l 553 600 q 678 588 617 588 q 793 681 793 588 l 793 694 l 910 694 l 910 289 l 850 289 q 776 263 799 289 q 754 181 754 238 q 869 78 754 78 q 949 85 911 78 l 949 -18 q 858 -25 911 -25 q 697 24 758 -25 q 636 172 636 74 q 797 374 636 365 l 797 511 q 675 475 760 475 q 553 488 625 475 l 553 0 l 438 0 l 438 103 q 446 326 438 260 l 442 326 q 347 201 424 281 l 200 47 l 50 47 l 49 53 l 432 453 l 432 561 q 306 579 378 579 q 201 552 233 579 q 169 471 169 525 l 169 388 l 53 388 l 53 478 q 296 690 53 690 q 432 672 367 690 l 432 808 l -40 808 l -40 911 l 1011 911 l 1011 808 z "},"ऌ":{"ha":871,"x_min":-40,"x_max":911,"o":"m 782 808 l 782 65 q 685 71 735 71 q 613 50 635 71 q 592 -21 592 29 q 616 -88 592 -71 q 680 -106 640 -106 q 786 -94 719 -106 l 786 -207 q 685 -218 719 -218 q 472 -21 472 -218 q 663 179 472 171 l 663 544 q 578 561 625 561 q 482 476 482 561 l 482 296 l 361 296 l 361 476 q 342 539 361 517 q 272 561 322 561 q 201 539 221 561 q 182 475 182 517 l 182 228 q 208 140 182 171 q 306 110 235 110 q 372 115 342 110 l 372 6 q 303 0 339 0 q 61 225 61 0 l 61 478 q 113 622 61 571 q 271 672 165 672 q 419 606 376 672 q 571 671 468 671 q 663 656 621 671 l 663 808 l -40 808 l -40 911 l 911 911 l 911 808 l 782 808 z "},"ऍ":{"ha":599,"x_min":-40,"x_max":639,"o":"m 325 -7 q 83 200 83 -7 l 83 808 l -40 808 l -40 911 l 639 911 l 639 808 l 525 808 l 525 554 q 338 367 525 367 q 307 368 317 367 l 307 481 q 328 479 313 479 q 388 499 372 479 q 404 560 404 519 l 404 808 l 204 808 l 204 203 q 328 104 204 104 q 497 131 413 104 l 497 21 q 325 -7 428 -7 m 432 1197 l 550 1197 l 550 1194 q 490 1051 550 1096 q 307 1007 429 1007 q 124 1051 185 1007 q 64 1194 64 1096 l 64 1197 l 182 1197 q 210 1131 182 1150 q 306 1113 239 1113 q 403 1131 374 1113 q 432 1197 432 1150 z "},"ऎ":{"ha":599,"x_min":-40,"x_max":639,"o":"m 524 911 l 639 911 l 639 808 l 525 808 l 525 554 q 338 367 525 367 q 307 368 317 367 l 307 481 q 328 479 313 479 q 388 499 372 479 q 404 560 404 519 l 404 808 l 204 808 l 204 203 q 328 104 204 104 q 497 131 413 104 l 497 21 q 325 -7 428 -7 q 83 200 83 -7 l 83 808 l -40 808 l -40 911 l 406 911 q 379 993 406 965 q 282 1021 353 1021 q 102 1070 158 1021 q 46 1229 46 1119 l 164 1229 q 190 1148 164 1175 q 288 1121 217 1121 q 467 1069 411 1121 q 524 911 524 1018 z "},"ए":{"ha":599,"x_min":-40,"x_max":639,"o":"m 501 21 q 317 -7 429 -7 q 83 206 83 -7 l 83 808 l -40 808 l -40 911 l 639 911 l 639 808 l 525 808 l 525 554 q 338 367 525 367 q 307 368 317 367 l 307 481 q 328 479 313 479 q 388 499 372 479 q 404 560 404 519 l 404 808 l 204 808 l 204 207 q 233 130 204 156 q 338 104 261 104 q 501 131 414 104 l 501 21 z "},"ऐ":{"ha":599,"x_min":-40,"x_max":639,"o":"m 639 911 l 639 808 l 525 808 l 525 554 q 338 367 525 367 q 307 368 317 367 l 307 481 q 328 479 313 479 q 388 499 372 479 q 404 560 404 519 l 404 808 l 204 808 l 204 203 q 328 104 204 104 q 497 131 413 104 l 497 21 q 325 -7 428 -7 q 83 200 83 -7 l 83 808 l -40 808 l -40 911 l 397 911 l 169 1229 l 304 1229 l 521 911 l 639 911 z "},"ऑ":{"ha":1119,"x_min":76,"x_max":1160,"o":"m 1160 911 l 1160 808 l 1032 808 l 1032 0 l 911 0 l 911 808 l 735 808 l 735 0 l 614 0 l 614 296 l 471 296 l 471 251 q 229 49 468 49 q 76 68 142 49 l 76 181 q 228 158 158 158 q 351 254 351 158 l 351 342 q 330 413 351 389 q 249 438 308 438 l 165 438 l 165 550 l 249 550 q 330 574 308 550 q 351 643 351 597 l 351 711 q 229 807 351 807 q 93 786 163 807 l 93 899 q 229 918 151 918 q 471 715 471 918 l 471 643 q 403 494 471 526 q 465 400 454 468 l 614 400 l 614 911 l 1160 911 m 1072 1192 l 1072 1189 q 1012 1045 1072 1089 q 830 1001 951 1001 q 648 1045 708 1001 q 588 1189 588 1089 l 588 1192 l 704 1192 q 733 1126 704 1144 q 828 1107 761 1107 q 925 1126 896 1107 q 954 1192 954 1144 l 1072 1192 z "},"ऒ":{"ha":1119,"x_min":76,"x_max":1160,"o":"m 1031 911 l 1160 911 l 1160 808 l 1032 808 l 1032 0 l 911 0 l 911 808 l 735 808 l 735 0 l 614 0 l 614 296 l 471 296 l 471 251 q 229 49 468 49 q 76 68 142 49 l 76 181 q 228 158 158 158 q 351 254 351 158 l 351 342 q 330 413 351 389 q 249 438 308 438 l 165 438 l 165 550 l 249 550 q 330 574 308 550 q 351 643 351 597 l 351 711 q 229 807 351 807 q 93 786 163 807 l 93 899 q 229 918 151 918 q 471 715 471 918 l 471 643 q 403 494 471 526 q 465 400 454 468 l 614 400 l 614 911 l 913 911 q 887 993 913 965 q 790 1021 861 1021 q 609 1070 665 1021 q 553 1229 553 1119 l 671 1229 q 697 1148 671 1175 q 794 1121 724 1121 q 974 1069 917 1121 q 1031 911 1031 1018 z "},"ओ":{"ha":1119,"x_min":76,"x_max":1160,"o":"m 1160 911 l 1160 808 l 1032 808 l 1032 0 l 911 0 l 911 808 l 735 808 l 735 0 l 614 0 l 614 296 l 471 296 l 471 251 q 229 49 468 49 q 76 68 142 49 l 76 181 q 228 158 158 158 q 351 254 351 158 l 351 342 q 330 413 351 389 q 249 438 308 438 l 165 438 l 165 550 l 249 550 q 330 574 308 550 q 351 643 351 597 l 351 711 q 229 807 351 807 q 93 786 163 807 l 93 899 q 229 918 151 918 q 471 715 471 918 l 471 643 q 403 494 471 526 q 465 400 454 468 l 614 400 l 614 911 l 907 911 l 801 1071 q 704 1126 765 1126 q 668 1125 681 1126 l 668 1226 q 736 1229 699 1229 q 889 1131 825 1229 l 1032 911 l 1160 911 z "},"औ":{"ha":1119,"x_min":76,"x_max":1160,"o":"m 1160 911 l 1160 808 l 1032 808 l 1032 0 l 911 0 l 911 808 l 735 808 l 735 0 l 614 0 l 614 296 l 471 296 l 471 251 q 229 49 468 49 q 76 68 142 49 l 76 181 q 228 158 158 158 q 351 254 351 158 l 351 342 q 330 413 351 389 q 249 438 308 438 l 165 438 l 165 550 l 249 550 q 330 574 308 550 q 351 643 351 597 l 351 711 q 229 807 351 807 q 93 786 163 807 l 93 899 q 229 918 151 918 q 471 715 471 918 l 471 643 q 403 494 471 526 q 465 400 454 468 l 614 400 l 614 911 l 761 911 l 651 1071 q 554 1126 611 1126 q 518 1125 531 1126 l 518 1226 q 567 1229 549 1229 q 658 1205 621 1229 q 738 1124 696 1181 l 882 911 l 921 911 l 872 1063 q 848 1112 861 1097 q 817 1126 835 1126 q 783 1124 800 1126 l 783 1226 q 825 1229 808 1229 q 964 1115 929 1229 l 1026 911 l 1160 911 z "},"क":{"ha":829,"x_min":-40,"x_max":868,"o":"m 300 593 l 271 594 q 195 573 217 594 q 174 511 174 551 l 174 275 q 271 190 174 190 q 357 204 319 190 l 357 808 l -40 808 l -40 911 l 868 911 l 868 808 l 475 808 l 475 690 q 568 701 508 701 q 771 514 771 701 l 771 282 q 588 96 771 96 q 556 99 569 96 l 556 211 q 592 210 561 210 q 654 290 654 210 l 654 511 q 557 596 654 596 q 475 585 517 596 l 475 0 l 357 0 l 357 100 q 260 88 282 88 q 57 271 57 88 l 57 514 q 260 700 57 700 q 300 696 289 700 l 300 593 z "},"ख":{"ha":1040,"x_min":-40,"x_max":1079,"o":"m 353 721 q 336 808 353 772 l -40 808 l -40 911 l 1079 911 l 1079 808 l 951 808 l 951 0 l 833 0 l 833 176 q 735 165 792 165 q 583 212 629 165 q 536 351 536 258 l 536 506 q 581 647 536 600 q 731 694 625 694 q 833 685 782 694 l 833 808 l 453 808 q 467 721 467 779 l 467 553 q 260 346 467 346 q 175 354 222 346 l 175 253 q 375 104 175 104 q 558 131 474 104 l 558 17 q 368 -6 472 -6 q 140 60 221 -6 q 60 251 60 125 l 60 618 l 175 618 l 175 460 q 264 454 222 454 q 353 554 353 454 l 353 721 m 833 578 q 735 589 782 589 q 669 568 689 589 q 649 506 649 547 l 649 351 q 669 290 649 311 q 747 269 689 269 q 833 279 804 269 l 833 578 z "},"ग":{"ha":672,"x_min":-40,"x_max":711,"o":"m 32 375 l 75 372 q 164 457 164 372 l 164 808 l -40 808 l -40 911 l 711 911 l 711 808 l 585 808 l 585 0 l 464 0 l 464 808 l 283 808 l 283 450 q 234 308 283 358 q 90 257 185 257 q 32 261 53 257 l 32 375 z "},"घ":{"ha":689,"x_min":-40,"x_max":728,"o":"m 481 808 l 217 808 q 204 721 204 779 l 204 638 q 224 577 204 597 q 300 556 244 557 l 351 556 l 351 444 l 296 444 q 218 424 240 444 q 196 363 196 403 l 196 306 q 233 219 196 244 q 344 193 271 193 q 481 211 417 193 l 481 808 m 85 721 q 94 808 85 776 l -40 808 l -40 911 l 728 911 l 728 808 l 601 808 l 601 0 l 481 0 l 481 103 q 332 85 400 85 q 144 139 211 85 q 76 294 76 193 l 76 365 q 153 501 76 475 q 85 635 85 532 l 85 721 z "},"ङ":{"ha":665,"x_min":-40,"x_max":706,"o":"m 592 406 q 557 406 592 406 q 521 477 521 406 q 592 549 521 549 q 664 477 664 549 q 592 406 664 406 m 524 231 l 524 186 q 268 -11 524 -11 q 75 11 174 -11 l 75 122 q 253 100 169 100 q 369 119 336 100 q 403 186 403 139 l 403 229 q 381 288 403 268 q 304 308 360 308 l 276 308 q 64 485 64 308 l 64 525 q 276 701 64 701 l 361 701 l 361 808 l -40 808 l -40 911 l 706 911 l 706 808 l 482 808 l 482 594 l 276 594 q 205 576 225 594 q 185 519 185 557 l 185 489 q 205 432 185 451 q 276 413 225 413 l 304 413 q 524 231 524 413 z "},"च":{"ha":653,"x_min":-40,"x_max":692,"o":"m 115 461 q 126 564 115 519 l 17 564 l 17 672 l 376 672 l 376 568 l 250 568 q 235 460 235 533 l 235 282 q 344 190 235 190 q 444 206 399 190 l 444 808 l -40 808 l -40 911 l 692 911 l 692 808 l 565 808 l 565 0 l 444 0 l 444 99 q 328 82 390 82 q 115 279 115 82 l 115 461 z "},"छ":{"ha":724,"x_min":-40,"x_max":763,"o":"m 535 489 q 513 563 535 540 q 444 586 492 586 q 360 575 396 586 l 360 678 q 447 690 397 690 l 447 808 l 215 808 q 200 721 200 779 l 200 538 q 220 476 200 497 q 294 456 240 456 l 378 456 l 378 349 l 297 349 q 216 328 239 349 q 193 264 193 308 l 193 232 q 226 149 193 171 q 363 128 260 128 q 501 152 467 128 q 535 242 535 176 l 535 489 m 79 721 q 94 808 79 768 l -40 808 l -40 911 l 763 911 l 763 808 l 558 808 l 558 672 q 653 504 653 642 l 653 238 q 588 69 653 119 q 365 19 522 19 q 140 68 207 19 q 72 228 72 117 l 72 271 q 149 401 72 372 q 79 533 79 431 l 79 721 z "},"ज":{"ha":783,"x_min":-40,"x_max":822,"o":"m 293 475 q 281 563 293 522 l 132 563 l 132 672 l 575 672 l 575 808 l -40 808 l -40 911 l 822 911 l 822 808 l 694 808 l 694 0 l 575 0 l 575 568 l 403 568 q 414 481 414 539 l 414 265 q 354 113 414 165 q 181 61 294 61 q 54 76 113 61 l 54 188 q 178 171 121 171 q 293 268 293 171 l 293 475 z "},"झ":{"ha":853,"x_min":-40,"x_max":893,"o":"m 644 440 l 644 808 l 490 808 l 490 594 l 276 594 q 206 576 226 594 q 186 522 186 558 l 186 515 q 206 460 186 478 q 275 440 225 442 l 644 440 m 286 336 l 276 336 q 65 513 65 336 l 65 525 q 276 701 65 701 l 369 701 l 369 808 l -40 808 l -40 911 l 893 911 l 893 808 l 765 808 l 765 0 l 644 0 l 644 343 l 469 343 q 503 253 503 317 l 503 199 q 452 60 503 104 q 294 17 401 17 q 183 28 231 17 l 183 -92 l 67 -92 l 67 224 l 183 224 l 183 133 q 279 124 218 124 q 385 206 385 124 l 385 254 q 363 315 385 294 q 286 336 342 336 z "},"ञ":{"ha":810,"x_min":-40,"x_max":850,"o":"m 322 276 l 322 501 q 297 574 322 549 q 209 600 272 600 q 88 581 146 600 l 88 689 q 210 711 142 711 q 443 507 443 711 l 443 439 l 601 439 l 601 808 l -40 808 l -40 911 l 850 911 l 850 808 l 722 808 l 722 0 l 601 0 l 601 335 l 443 335 l 443 268 q 210 65 443 65 q 81 88 142 65 l 81 196 q 211 176 151 176 q 322 276 322 176 z "},"ट":{"ha":556,"x_min":-40,"x_max":594,"o":"m 189 486 l 189 211 q 328 104 189 104 q 492 125 403 104 l 492 15 q 306 -6 411 -6 q 135 50 201 -6 q 68 210 68 106 l 68 493 q 290 692 68 692 l 349 692 l 349 808 l -40 808 l -40 911 l 594 911 l 594 808 l 469 808 l 469 582 l 301 582 q 189 486 189 582 z "},"ठ":{"ha":572,"x_min":-40,"x_max":613,"o":"m 388 186 l 388 514 q 287 601 388 601 q 186 514 186 601 l 186 186 q 287 99 186 99 q 388 186 388 99 m 504 517 l 504 188 q 450 44 504 94 q 286 -7 396 -7 q 122 44 176 -7 q 68 188 68 94 l 68 517 q 225 701 68 676 l 225 808 l -40 808 l -40 911 l 613 911 l 613 808 l 346 808 l 346 701 q 504 517 504 676 z "},"ड":{"ha":579,"x_min":-40,"x_max":618,"o":"m 524 224 l 524 186 q 268 -11 524 -11 q 76 11 174 -11 l 76 124 q 268 100 168 100 q 403 188 403 100 l 403 221 q 381 280 403 260 q 304 300 360 300 l 276 300 q 64 476 64 300 l 64 525 q 276 701 64 701 l 361 701 l 361 808 l -40 808 l -40 911 l 618 911 l 618 808 l 482 808 l 482 594 l 276 594 q 205 576 225 594 q 185 519 185 557 l 185 481 q 205 424 185 443 q 276 404 225 404 l 304 404 q 524 224 524 404 z "},"ढ":{"ha":576,"x_min":-40,"x_max":617,"o":"m 283 697 l 360 697 l 360 808 l -40 808 l -40 911 l 617 911 l 617 808 l 479 808 l 479 586 l 283 586 q 207 566 228 586 q 186 506 186 546 l 186 200 q 210 128 186 153 q 295 104 233 104 q 380 128 357 104 q 403 199 403 153 l 403 243 q 328 321 403 321 l 276 314 l 276 421 q 340 429 303 429 q 473 384 425 429 q 521 246 521 339 l 521 194 q 294 -7 521 -7 q 68 197 68 -7 l 68 508 q 120 651 68 604 q 283 697 172 697 z "},"ण":{"ha":864,"x_min":-40,"x_max":904,"o":"m 372 808 l 186 808 l 186 354 q 206 290 186 313 q 280 268 225 268 q 353 290 335 268 q 372 354 372 311 l 372 808 m 493 353 q 279 158 493 158 q 65 353 65 158 l 65 808 l -40 808 l -40 911 l 904 911 l 904 808 l 776 808 l 776 0 l 657 0 l 657 808 l 493 808 l 493 353 z "},"त":{"ha":615,"x_min":-40,"x_max":656,"o":"m 65 496 q 121 642 65 589 q 286 696 176 696 q 407 681 350 696 l 407 808 l -40 808 l -40 911 l 656 911 l 656 808 l 528 808 l 528 0 l 407 0 l 407 571 q 299 585 342 585 q 186 492 186 585 l 186 192 q 210 130 186 150 q 290 111 233 110 l 290 -1 l 258 -1 q 111 46 157 -1 q 65 183 65 93 l 65 496 z "},"थ":{"ha":782,"x_min":60,"x_max":822,"o":"m 574 911 l 822 911 l 822 808 l 693 808 l 693 0 l 574 0 l 574 135 q 383 114 490 114 q 60 389 60 114 l 60 542 l 201 542 q 315 566 282 542 q 349 658 349 590 l 349 722 q 335 788 349 768 q 276 808 321 808 q 215 788 231 808 q 200 721 200 767 l 206 661 l 89 661 q 83 721 83 693 q 272 918 83 918 q 415 869 372 918 q 458 722 458 821 l 458 644 q 399 485 458 535 q 214 435 340 435 l 183 435 l 183 392 q 229 263 183 301 q 383 225 275 225 q 574 244 492 225 l 574 911 z "},"द":{"ha":572,"x_min":-40,"x_max":611,"o":"m 56 290 l 56 507 q 109 649 56 604 q 275 694 163 694 l 360 694 l 360 808 l -40 808 l -40 911 l 611 911 l 611 808 l 481 808 l 481 585 l 275 585 q 197 564 218 585 q 175 503 175 543 l 175 293 q 285 206 175 206 q 381 217 332 206 l 381 347 l 500 347 l 500 -8 l 381 -8 l 381 108 q 271 97 333 97 q 110 147 165 97 q 56 290 56 197 z "},"ध":{"ha":689,"x_min":-40,"x_max":729,"o":"m 85 721 q 97 808 85 768 l -40 808 l -40 911 l 340 911 l 340 808 l 221 808 q 204 721 204 779 l 204 642 q 224 581 204 601 q 300 560 244 561 l 351 560 l 351 449 l 296 449 q 218 428 240 449 q 196 367 196 407 l 196 304 q 344 193 196 193 q 481 211 414 193 l 481 911 l 729 911 l 729 808 l 601 808 l 601 0 l 481 0 l 481 103 q 317 85 422 85 q 144 138 211 85 q 76 293 76 190 l 76 369 q 153 506 76 479 q 85 639 85 536 l 85 721 z "},"न":{"ha":810,"x_min":-40,"x_max":850,"o":"m 256 560 q 192 540 210 560 q 174 482 174 521 l 174 268 q 192 210 174 229 q 256 190 210 190 q 321 210 303 190 q 339 268 339 229 l 339 465 q 325 560 339 504 l 256 560 m 601 560 l 440 560 q 454 468 454 518 l 454 268 q 256 81 454 81 q 57 268 57 81 l 57 485 q 256 671 57 671 l 601 671 l 601 808 l -40 808 l -40 911 l 850 911 l 850 808 l 722 808 l 722 0 l 601 0 l 601 560 z "},"ऩ":{"ha":818,"x_min":-40,"x_max":858,"o":"m 47 -106 q 11 -106 47 -106 q -25 -34 -25 -106 q 47 38 -25 38 q 118 -34 118 38 q 47 -106 118 -106 m 265 560 q 201 540 219 560 q 183 482 183 521 l 183 268 q 201 210 183 229 q 266 190 219 190 q 331 210 313 190 q 349 268 349 229 l 349 465 q 333 560 349 499 l 265 560 m 610 560 l 449 560 q 463 468 463 518 l 463 268 q 265 81 463 81 q 67 268 67 81 l 67 485 q 265 671 67 671 l 610 671 l 610 808 l -40 808 l -40 911 l 858 911 l 858 808 l 731 808 l 731 0 l 610 0 l 610 560 z "},"प":{"ha":599,"x_min":-40,"x_max":639,"o":"m 390 808 l 188 808 l 188 365 q 293 281 188 281 q 390 296 349 281 l 390 808 m 390 0 l 390 188 q 279 172 350 172 q 67 363 67 172 l 67 808 l -40 808 l -40 911 l 639 911 l 639 808 l 511 808 l 511 0 l 390 0 z "},"फ":{"ha":853,"x_min":-40,"x_max":893,"o":"m 376 808 l 188 808 l 188 351 q 294 265 188 265 q 376 275 338 265 l 376 808 m 579 583 q 494 571 535 583 l 494 0 l 376 0 l 376 169 q 279 157 322 157 q 68 347 68 157 l 68 808 l -40 808 l -40 911 l 893 911 l 893 808 l 494 808 l 494 681 q 592 694 539 694 q 744 644 693 694 q 796 504 796 594 l 796 274 q 603 88 796 88 l 579 89 l 579 200 q 654 219 633 199 q 675 282 675 239 l 675 501 q 579 583 675 583 z "},"ब":{"ha":604,"x_min":-40,"x_max":644,"o":"m -40 911 l 644 911 l 644 808 l 515 808 l 515 0 l 401 0 l 401 106 q 289 90 356 90 q 57 286 57 90 l 57 506 q 285 701 57 701 q 401 685 358 701 l 401 808 l -40 808 l -40 911 m 294 599 q 179 540 200 599 l 401 353 l 401 582 q 294 599 358 599 m 174 290 q 294 193 174 193 q 401 207 356 193 l 401 258 l 174 453 l 174 290 z "},"भ":{"ha":840,"x_min":61,"x_max":881,"o":"m 353 565 l 353 724 q 336 787 353 767 q 270 807 319 807 q 203 786 221 807 q 186 724 186 765 l 192 661 l 71 661 q 65 728 65 699 q 269 918 65 918 q 474 728 474 918 l 474 565 l 632 565 l 632 911 l 881 911 l 881 808 l 753 808 l 753 0 l 632 0 l 632 463 l 469 463 l 469 263 q 265 82 469 82 q 61 263 61 82 l 61 388 q 265 565 61 565 l 353 565 m 353 265 l 353 463 l 265 463 q 195 444 213 463 q 178 383 178 425 l 178 265 q 195 206 178 225 q 265 188 213 188 q 335 206 318 188 q 353 265 353 225 z "},"म":{"ha":814,"x_min":-40,"x_max":854,"o":"m 607 0 l 607 500 l 451 500 l 451 264 q 247 82 451 82 q 43 264 43 82 l 43 425 q 247 604 43 604 l 335 604 l 335 808 l -40 808 l -40 911 l 854 911 l 854 808 l 726 808 l 726 0 l 607 0 m 451 604 l 607 604 l 607 808 l 451 808 l 451 604 m 335 267 l 335 500 l 247 500 q 177 481 194 500 q 160 422 160 463 l 160 267 q 177 207 160 226 q 247 188 194 188 q 317 206 300 188 q 335 267 335 225 z "},"य":{"ha":704,"x_min":-40,"x_max":744,"o":"m 239 721 q 228 808 239 772 l -40 808 l -40 911 l 744 911 l 744 808 l 617 808 l 617 0 l 496 0 l 496 133 q 353 118 425 118 q 144 176 224 118 q 65 361 65 235 l 65 539 l 96 539 q 209 558 179 539 q 239 635 239 578 l 239 721 m 357 721 l 357 618 q 183 451 357 456 l 183 374 q 226 266 183 301 q 347 231 268 231 q 496 244 426 231 l 496 808 l 346 808 q 357 721 357 776 z "},"र":{"ha":586,"x_min":-40,"x_max":626,"o":"m 392 721 q 379 808 392 776 l -40 808 l -40 911 l 626 911 l 626 808 l 501 808 q 511 721 511 779 l 511 543 q 306 351 511 351 q 196 368 243 351 l 196 213 q 343 103 196 103 q 519 131 428 103 l 519 19 q 322 -7 435 -7 q 142 50 208 -7 q 75 210 75 107 l 75 625 l 196 625 l 196 474 q 293 458 247 458 q 392 544 392 458 l 392 721 z "},"ऱ":{"ha":592,"x_min":-43,"x_max":632,"o":"m 396 721 q 385 808 396 772 l -40 808 l -40 911 l 632 911 l 632 808 l 507 808 q 517 721 517 779 l 517 543 q 311 351 517 351 q 201 368 249 351 l 201 213 q 349 103 201 103 q 525 131 433 103 l 525 19 q 327 -7 440 -7 q 147 50 214 -7 q 81 210 81 107 l 81 625 l 201 625 l 201 474 q 303 458 253 458 q 375 481 354 458 q 396 544 396 503 l 396 721 m 99 -98 q 99 -134 99 -98 q 28 -169 99 -169 q -43 -98 -43 -169 q 28 -26 -43 -26 q 99 -98 99 -26 z "},"ल":{"ha":874,"x_min":-40,"x_max":914,"o":"m 64 225 l 64 478 q 117 622 64 571 q 274 672 169 672 q 422 606 379 672 q 574 671 471 671 q 665 656 628 671 l 665 808 l -40 808 l -40 911 l 914 911 l 914 808 l 786 808 l 786 0 l 665 0 l 665 544 q 582 561 632 561 q 485 476 485 561 l 485 290 l 365 290 l 365 476 q 345 539 365 517 q 274 561 325 561 q 204 539 224 561 q 185 475 185 517 l 185 228 q 213 140 185 171 q 314 110 240 110 q 394 115 353 110 l 394 7 q 308 0 357 0 q 64 225 64 0 z "},"ळ":{"ha":836,"x_min":-40,"x_max":876,"o":"m 476 485 l 476 188 q 571 99 476 99 q 642 122 624 99 q 661 188 661 144 l 661 485 q 642 551 661 528 q 571 575 624 575 q 497 551 518 575 q 476 485 476 528 m 179 485 l 179 188 q 198 122 179 144 q 269 99 217 99 q 363 188 363 99 l 363 485 q 342 551 363 528 q 269 575 322 575 q 198 552 217 575 q 179 485 179 529 m 772 486 l 772 186 q 575 -7 772 -7 q 421 63 464 -7 q 265 -7 375 -7 q 64 186 64 -7 l 64 489 q 267 681 64 681 q 421 610 376 681 q 513 671 449 658 l 513 808 l -40 808 l -40 911 l 876 911 l 876 808 l 633 808 l 633 674 q 772 486 772 647 z "},"ऴ":{"ha":836,"x_min":-40,"x_max":876,"o":"m 492 -155 q 492 -191 492 -155 q 421 -226 492 -226 q 350 -155 350 -226 q 421 -83 350 -83 q 492 -155 492 -83 m 476 485 l 476 188 q 571 99 476 99 q 642 122 624 99 q 661 188 661 144 l 661 485 q 642 551 661 528 q 571 575 624 575 q 497 551 518 575 q 476 485 476 528 m 179 485 l 179 188 q 198 122 179 144 q 269 99 217 99 q 363 188 363 99 l 363 485 q 342 551 363 528 q 269 575 322 575 q 198 552 217 575 q 179 485 179 529 m 772 486 l 772 186 q 575 -7 772 -7 q 421 63 464 -7 q 265 -7 375 -7 q 64 186 64 -7 l 64 489 q 267 681 64 681 q 421 610 376 681 q 513 671 449 658 l 513 808 l -40 808 l -40 911 l 876 911 l 876 808 l 633 808 l 633 674 q 772 486 772 647 z "},"व":{"ha":600,"x_min":-40,"x_max":640,"o":"m 289 597 q 178 507 178 597 l 178 286 q 290 194 178 194 q 396 210 358 194 l 396 583 q 289 597 354 597 m 392 808 l -40 808 l -40 911 l 640 911 l 640 808 l 513 808 l 513 0 l 392 0 l 392 104 q 274 89 331 89 q 60 283 60 89 l 60 508 q 113 651 60 600 q 274 701 167 701 q 392 688 336 701 l 392 808 z "},"श":{"ha":849,"x_min":79,"x_max":889,"o":"m 515 724 l 515 533 q 307 343 515 343 q 200 360 250 343 l 200 224 q 344 107 200 107 q 506 135 417 107 l 506 24 q 319 -3 426 -3 q 145 58 211 -3 q 79 221 79 119 l 79 561 l 200 561 l 200 467 q 299 451 246 451 q 394 536 394 451 l 394 721 q 297 807 394 807 q 221 783 242 807 q 200 724 200 760 q 204 667 200 688 l 83 667 q 79 724 79 692 q 133 867 79 817 q 297 918 188 918 q 461 867 407 918 q 515 724 515 817 m 640 911 l 889 911 l 889 808 l 760 808 l 760 0 l 640 0 l 640 911 z "},"ष":{"ha":619,"x_min":-42,"x_max":660,"o":"m -42 911 l 660 911 l 660 808 l 532 808 l 532 0 l 413 0 l 413 178 q 282 160 350 160 q 119 209 174 160 q 65 350 65 258 l 65 808 l -42 808 l -42 911 m 413 808 l 186 808 l 186 700 l 413 492 l 413 808 m 186 353 q 299 268 186 268 q 413 288 357 268 l 413 390 l 186 597 l 186 353 z "},"स":{"ha":851,"x_min":-40,"x_max":892,"o":"m 368 721 q 356 808 368 768 l -40 808 l -40 911 l 892 911 l 892 808 l 764 808 l 764 0 l 643 0 l 643 390 l 439 390 q 282 339 388 339 q 193 350 235 339 l 193 213 q 340 103 193 103 q 510 131 418 103 l 510 19 q 317 -7 428 -7 q 139 50 206 -7 q 72 210 72 107 l 72 625 l 193 625 l 193 457 q 269 446 238 446 q 368 532 368 446 l 368 721 m 643 494 l 643 808 l 476 808 q 486 721 486 779 l 486 532 q 483 494 486 519 l 643 494 z "},"ह":{"ha":594,"x_min":-40,"x_max":635,"o":"m 63 194 l 63 254 q 133 386 63 350 q 65 513 65 419 l 65 533 q 117 662 65 621 q 275 703 168 703 l 379 703 l 379 808 l -40 808 l -40 911 l 635 911 l 635 808 l 500 808 l 500 596 l 275 596 q 204 578 224 596 q 185 525 185 561 l 185 511 q 205 458 185 475 q 276 440 225 440 l 353 440 q 491 398 449 440 q 533 268 533 356 l 533 226 l 424 226 l 424 260 q 408 320 424 303 q 342 338 393 338 l 285 338 q 183 258 183 338 l 183 199 q 335 99 183 99 q 514 122 435 99 l 514 17 q 322 -8 443 -8 q 131 44 200 -8 q 63 194 63 97 z "},"़":{"ha":0,"x_min":-354,"x_max":-212,"o":"m -212 -140 q -212 -175 -212 -140 q -283 -211 -212 -211 q -354 -140 -354 -211 q -283 -68 -354 -68 q -212 -140 -212 -68 z "},"ऽ":{"ha":583,"x_min":61,"x_max":538,"o":"m 538 274 l 538 201 q 307 -7 538 -7 l 294 -7 q 64 201 64 -7 l 64 289 l 183 289 l 183 199 q 207 130 183 154 q 297 106 231 106 l 303 106 q 393 130 369 106 q 417 199 417 154 l 417 275 q 403 342 417 317 q 353 389 390 367 l 169 500 q 61 689 61 564 l 61 726 q 110 865 61 818 q 271 911 158 911 l 504 911 l 504 799 l 278 799 q 200 779 218 799 q 182 721 182 760 l 182 693 q 196 631 182 656 q 247 583 210 606 l 428 475 q 515 389 492 435 q 538 274 538 343 z "},"ा":{"ha":296,"x_min":-40,"x_max":336,"o":"m 88 808 l -40 808 l -40 911 l 336 911 l 336 808 l 208 808 l 208 0 l 88 0 l 88 808 z "},"ि":{"ha":296,"x_min":-40,"x_max":788,"o":"m 90 911 l 90 957 q 417 1231 90 1231 q 604 1213 511 1231 q 742 1175 697 1194 l 788 1157 l 788 1049 q 615 1097 725 1075 q 406 1119 506 1119 q 258 1080 307 1119 q 210 954 210 1040 l 210 911 l 336 911 l 336 808 l 208 808 l 208 0 l 88 0 l 88 808 l -40 808 l -40 911 l 90 911 z "},"ी":{"ha":296,"x_min":-201,"x_max":336,"o":"m 88 911 l 88 1044 q 69 1104 88 1085 q 3 1124 50 1124 q -62 1103 -43 1124 q -82 1044 -82 1083 l -82 996 l -201 996 l -201 1046 q 3 1233 -201 1233 q 208 1046 208 1233 l 208 911 l 336 911 l 336 808 l 208 808 l 208 0 l 88 0 l 88 808 l -40 808 l -40 911 l 88 911 z "},"ु":{"ha":0,"x_min":-576,"x_max":40,"o":"m -237 -224 l -149 -224 q -85 -208 -100 -224 q -69 -154 -69 -192 q -86 -101 -69 -117 q -142 -85 -103 -85 q -279 -100 -221 -85 l -279 -1 q -135 14 -224 14 q -3 -25 -47 14 q 40 -153 40 -64 q 1 -281 40 -242 q -131 -321 -39 -321 l -249 -321 q -350 -302 -306 -321 q -440 -229 -394 -283 l -576 -78 l -432 -78 l -354 -164 q -297 -212 -321 -201 q -237 -224 -272 -224 z "},"ू":{"ha":0,"x_min":-354,"x_max":256,"o":"m -57 -312 q -70 -315 -58 -312 q -94 -319 -82 -318 q -172 -326 -135 -326 q -310 -287 -265 -326 q -354 -159 -354 -247 q -314 -31 -354 -71 q -182 8 -274 8 l -124 8 q -6 -15 -53 8 q 85 -94 42 -37 l 256 -311 l 119 -311 l 1 -165 q -60 -104 -36 -119 q -135 -89 -85 -89 l -165 -89 q -229 -105 -214 -89 q -244 -158 -244 -121 q -228 -211 -244 -194 q -176 -228 -211 -228 q -57 -214 -140 -228 l -57 -312 z "},"ृ":{"ha":0,"x_min":-419,"x_max":-86,"o":"m -90 -90 q -202 -78 -149 -78 q -278 -94 -256 -78 q -301 -165 -301 -111 q -278 -236 -301 -218 q -219 -254 -256 -254 q -86 -242 -161 -254 l -86 -351 q -210 -364 -142 -364 q -419 -164 -419 -364 q -210 32 -419 32 q -90 18 -160 32 l -90 -90 z "},"ॄ":{"ha":0,"x_min":-418,"x_max":-79,"o":"m -90 -83 q -212 -72 -168 -72 q -277 -90 -257 -72 q -297 -149 -297 -107 l -297 -153 q -278 -208 -297 -194 q -218 -221 -260 -221 l -121 -221 l -121 -324 l -212 -324 q -278 -340 -258 -324 q -297 -399 -297 -357 l -297 -404 q -277 -458 -297 -444 q -192 -472 -257 -472 q -79 -464 -126 -472 l -79 -572 q -217 -582 -133 -582 q -418 -400 -418 -582 q -374 -274 -418 -317 q -418 -144 -418 -232 q -217 31 -418 31 q -136 26 -176 31 q -90 21 -96 21 l -90 -83 z "},"ॅ":{"ha":0,"x_min":-392,"x_max":94,"o":"m -24 1190 l 94 1190 l 94 1188 q 34 1044 94 1089 q -148 1000 -26 1000 q -331 1044 -269 1000 q -392 1188 -392 1089 l -392 1190 l -274 1190 q -245 1124 -274 1143 q -149 1106 -217 1106 q -52 1124 -81 1106 q -24 1190 -24 1143 z "},"ॆ":{"ha":0,"x_min":-565,"x_max":-87,"o":"m -206 911 q -232 993 -206 965 q -329 1021 -258 1021 q -509 1070 -453 1021 q -565 1229 -565 1119 l -447 1229 q -421 1148 -447 1175 q -324 1121 -394 1121 q -144 1069 -201 1121 q -87 911 -87 1018 l -206 911 z "},"े":{"ha":0,"x_min":-451,"x_max":-87,"o":"m -403 1229 q -306 1208 -344 1229 q -231 1131 -267 1186 l -87 911 l -212 911 l -318 1071 q -415 1126 -354 1126 q -451 1125 -439 1126 l -451 1226 q -403 1229 -421 1229 z "},"ै":{"ha":0,"x_min":-596,"x_max":-87,"o":"m -290 1229 q -150 1115 -186 1229 l -87 911 l -194 911 l -243 1063 q -267 1112 -254 1097 q -297 1126 -279 1126 q -332 1124 -315 1126 l -332 1226 q -290 1229 -307 1229 m -547 1229 q -456 1205 -493 1229 q -378 1124 -418 1181 l -232 911 l -353 911 l -462 1071 q -560 1126 -503 1126 q -596 1125 -585 1126 l -596 1226 q -547 1229 -568 1229 z "},"ॉ":{"ha":296,"x_min":-90,"x_max":394,"o":"m 276 1192 l 394 1192 l 394 1189 q 334 1045 394 1089 q 152 1001 274 1001 q -30 1045 31 1001 q -90 1189 -90 1089 l -90 1192 l 28 1192 q 56 1126 28 1144 q 151 1107 83 1107 q 247 1126 218 1107 q 276 1192 276 1144 m 88 808 l -40 808 l -40 911 l 336 911 l 336 808 l 208 808 l 208 0 l 88 0 l 88 808 z "},"ॊ":{"ha":296,"x_min":-271,"x_max":336,"o":"m 88 808 l -40 808 l -40 911 l 89 911 q 63 993 89 965 q -33 1021 38 1021 q -215 1070 -158 1021 q -271 1229 -271 1119 l -153 1229 q -126 1148 -153 1175 q -29 1121 -100 1121 q 150 1069 93 1121 q 207 911 207 1018 l 336 911 l 336 808 l 208 808 l 208 0 l 88 0 l 88 808 z "},"ो":{"ha":296,"x_min":-156,"x_max":336,"o":"m 336 911 l 336 808 l 208 808 l 208 0 l 88 0 l 88 808 l -40 808 l -40 911 l 83 911 l -22 1071 q -119 1126 -58 1126 q -156 1125 -143 1126 l -156 1226 q -87 1229 -125 1229 q 65 1131 1 1229 l 208 911 l 336 911 z "},"ौ":{"ha":296,"x_min":-306,"x_max":336,"o":"m 336 911 l 336 808 l 208 808 l 208 0 l 88 0 l 88 808 l -122 808 l -122 911 l -62 911 l -172 1071 q -269 1126 -212 1126 q -306 1125 -293 1126 l -306 1226 q -257 1229 -275 1229 q -165 1205 -203 1229 q -86 1124 -128 1181 l 58 911 l 97 911 l 49 1063 q 24 1112 38 1097 q -6 1126 11 1126 q -40 1124 -24 1126 l -40 1226 q 1 1229 -15 1229 q 140 1115 106 1229 l 203 911 l 336 911 z "},"्":{"ha":0,"x_min":-200,"x_max":67,"o":"m 67 -297 l -62 -297 l -200 -81 l -90 -81 l 67 -297 z "},"ॐ":{"ha":1094,"x_min":64,"x_max":1028,"o":"m 601 369 l 601 724 q 815 918 601 918 q 1028 725 1028 918 l 1028 224 q 964 51 1028 108 q 760 -7 900 -7 q 638 6 693 -7 l 638 117 q 772 106 697 106 q 878 135 847 106 q 910 231 910 165 l 910 721 q 890 785 910 763 q 815 807 869 807 q 740 785 760 807 q 719 721 719 763 l 719 318 q 708 278 719 290 q 667 265 697 265 l 458 265 l 458 196 q 217 -7 456 -7 q 64 13 136 -7 l 64 125 q 215 103 143 103 q 339 199 339 103 l 339 310 q 317 381 339 357 q 236 406 296 404 l 153 406 l 153 517 l 236 517 q 317 542 296 518 q 339 611 339 565 l 339 711 q 217 807 339 807 q 81 786 150 807 l 81 899 q 217 918 139 918 q 399 865 339 918 q 458 715 458 813 l 458 611 q 390 461 458 493 q 453 369 439 438 l 601 369 m 774 1144 l 774 1140 q 713 997 774 1042 q 530 953 651 953 q 348 997 408 953 q 288 1140 288 1042 l 288 1144 l 406 1144 q 434 1077 406 1096 q 530 1058 463 1058 q 626 1077 597 1058 q 656 1144 656 1096 l 774 1144 m 599 1210 q 599 1176 599 1210 q 531 1142 599 1142 q 463 1210 463 1142 q 531 1279 463 1279 q 599 1210 599 1279 z "},"॑":{"ha":0,"x_min":-208,"x_max":-87,"o":"m -208 1315 l -87 1315 l -87 978 l -208 978 l -208 1315 z "},"॒":{"ha":0,"x_min":-604,"x_max":-39,"o":"m -39 -214 l -604 -214 l -604 -111 l -39 -111 l -39 -214 z "},"॓":{"ha":468,"x_min":74,"x_max":358,"o":"m 74 1315 l 201 1315 l 358 978 l 231 978 l 74 1315 z "},"॔":{"ha":460,"x_min":74,"x_max":358,"o":"m 231 1315 l 358 1315 l 201 978 l 74 978 l 231 1315 z "},"क़":{"ha":832,"x_min":-36,"x_max":872,"o":"m 167 -107 q 132 -107 167 -107 q 96 -35 96 -107 q 167 36 96 36 q 239 -35 239 36 q 167 -107 239 -107 m 304 593 l 275 594 q 199 573 221 594 q 178 511 178 551 l 178 275 q 275 190 178 190 q 361 204 322 190 l 361 808 l -36 808 l -36 911 l 872 911 l 872 808 l 479 808 l 479 690 q 572 701 513 701 q 775 514 775 701 l 775 282 q 592 96 775 96 q 560 99 574 96 l 560 211 q 596 210 565 210 q 658 290 658 210 l 658 511 q 561 596 658 596 q 479 585 521 596 l 479 0 l 361 0 l 361 100 q 264 88 286 88 q 61 271 61 88 l 61 514 q 264 700 61 700 q 304 696 294 700 l 304 593 z "},"ख़":{"ha":1042,"x_min":-40,"x_max":1082,"o":"m 356 721 q 340 808 356 768 l -40 808 l -40 911 l 1082 911 l 1082 808 l 954 808 l 954 0 l 836 0 l 836 176 q 738 165 794 165 q 586 212 632 165 q 540 351 540 258 l 540 506 q 585 647 540 600 q 733 694 629 694 q 836 685 785 694 l 836 808 l 456 808 q 469 721 469 779 l 469 553 q 263 346 469 346 q 178 354 225 346 l 178 253 q 378 104 178 104 q 561 131 476 104 l 561 17 q 371 -6 475 -6 q 143 60 224 -6 q 63 251 63 125 l 63 618 l 178 618 l 178 460 q 267 454 225 454 q 356 554 356 454 l 356 721 m 836 578 q 738 589 785 589 q 672 568 692 589 q 651 506 651 547 l 651 351 q 672 290 651 311 q 749 269 692 269 q 836 279 807 269 l 836 578 m -15 -92 q -15 -57 -15 -92 q 56 -21 -15 -21 q 126 -92 126 -21 q 56 -164 126 -164 q -15 -92 -15 -164 z "},"ग़":{"ha":676,"x_min":-35,"x_max":717,"o":"m 38 375 l 81 372 q 169 457 169 372 l 169 808 l -35 808 l -35 911 l 717 911 l 717 808 l 590 808 l 590 0 l 469 0 l 469 808 l 289 808 l 289 450 q 240 308 289 358 q 96 257 190 257 q 38 261 58 257 l 38 375 m 83 76 q 83 111 83 76 q 154 147 83 147 q 225 76 225 147 q 154 4 225 4 q 83 76 83 4 z "},"ज़":{"ha":783,"x_min":-40,"x_max":822,"o":"m 293 475 q 281 563 293 522 l 132 563 l 132 672 l 575 672 l 575 808 l -40 808 l -40 911 l 822 911 l 822 808 l 694 808 l 694 0 l 575 0 l 575 568 l 403 568 q 414 481 414 539 l 414 265 q 354 113 414 165 q 181 61 294 61 q 54 76 113 61 l 54 188 q 178 171 121 171 q 293 268 293 171 l 293 475 m 65 -144 q 29 -144 65 -144 q -7 -73 -7 -144 q 65 -1 -7 -1 q 136 -73 136 -1 q 65 -144 136 -144 z "},"ड़":{"ha":579,"x_min":-40,"x_max":618,"o":"m 524 224 l 524 186 q 268 -11 524 -11 q 76 11 174 -11 l 76 124 q 268 100 168 100 q 403 188 403 100 l 403 221 q 381 280 403 260 q 304 300 360 300 l 276 300 q 64 476 64 300 l 64 525 q 276 701 64 701 l 361 701 l 361 808 l -40 808 l -40 911 l 618 911 l 618 808 l 482 808 l 482 594 l 276 594 q 205 576 225 594 q 185 519 185 557 l 185 481 q 205 424 185 443 q 276 404 225 404 l 304 404 q 524 224 524 404 m 295 -250 q 259 -250 295 -250 q 224 -178 224 -250 q 295 -107 224 -107 q 367 -178 367 -107 q 295 -250 367 -250 z "},"ढ़":{"ha":576,"x_min":-40,"x_max":617,"o":"m 367 -178 q 367 -214 367 -178 q 296 -250 367 -250 q 225 -178 225 -250 q 296 -107 225 -107 q 367 -178 367 -107 m 329 321 q 276 310 299 321 l 276 418 q 344 429 304 429 q 521 246 521 429 l 521 194 q 294 -7 521 -7 q 68 197 68 -7 l 68 508 q 120 651 68 604 q 283 697 172 697 l 360 697 l 360 808 l -40 808 l -40 911 l 617 911 l 617 808 l 479 808 l 479 586 l 283 586 q 207 566 228 586 q 186 506 186 546 l 186 200 q 210 128 186 153 q 295 104 233 104 q 380 128 357 104 q 403 199 403 153 l 403 243 q 329 321 403 321 z "},"फ़":{"ha":858,"x_min":-40,"x_max":899,"o":"m 382 808 l 194 808 l 194 351 q 301 265 194 265 q 382 275 346 265 l 382 808 m 681 501 q 660 563 681 542 q 589 583 639 583 q 501 571 539 583 l 501 0 l 382 0 l 382 169 q 286 157 328 157 q 74 347 74 157 l 74 808 l -40 808 l -40 911 l 899 911 l 899 808 l 501 808 l 501 681 q 599 694 544 694 q 751 644 700 694 q 801 504 801 594 l 801 274 q 610 88 801 88 l 585 89 l 585 200 q 660 219 640 199 q 681 282 681 239 l 681 501 m 117 -72 q 82 -72 117 -72 q 46 -1 46 -72 q 117 71 46 71 q 189 -1 189 71 q 117 -72 189 -72 z "},"य़":{"ha":708,"x_min":-40,"x_max":749,"o":"m 243 721 q 233 808 243 776 l -40 808 l -40 911 l 749 911 l 749 808 l 621 808 l 621 0 l 500 0 l 500 133 q 358 118 433 118 q 149 176 228 118 q 69 361 69 235 l 69 539 l 100 539 q 213 558 183 539 q 243 635 243 578 l 243 721 m 361 721 l 361 618 q 189 451 361 456 l 189 374 q 231 266 189 301 q 353 231 272 231 q 500 244 433 231 l 500 808 l 351 808 q 361 721 361 776 m 110 -71 q 40 1 40 -71 q 110 72 40 72 q 182 1 182 72 q 110 -71 182 -71 z "},"ॠ":{"ha":985,"x_min":-40,"x_max":1025,"o":"m 1025 808 l 553 808 l 553 592 q 692 588 619 588 q 791 610 765 588 q 817 681 817 633 l 817 694 l 933 694 l 933 313 l 863 313 q 797 293 815 313 q 778 226 778 274 q 874 144 778 144 l 913 144 l 913 42 l 860 42 q 798 26 818 42 q 778 -37 778 11 q 799 -101 778 -86 q 885 -117 821 -117 q 974 -112 949 -117 l 974 -215 q 863 -221 947 -221 q 658 -49 658 -221 q 711 90 658 46 q 660 224 660 135 q 700 353 660 313 q 821 396 740 393 l 821 511 q 711 475 783 475 q 553 481 639 475 l 553 0 l 438 0 l 438 128 q 443 321 438 276 l 442 321 q 347 201 436 308 l 200 47 l 46 47 l 432 453 l 432 499 q 399 558 432 536 q 298 579 367 579 q 199 552 229 579 q 169 471 169 525 l 169 388 l 53 388 l 53 478 q 290 690 53 690 q 432 654 401 690 l 432 808 l -40 808 l -40 911 l 1025 911 l 1025 808 z "},"ॡ":{"ha":874,"x_min":-40,"x_max":914,"o":"m 786 242 l 682 242 q 617 224 636 242 q 597 164 597 207 q 616 107 597 121 q 676 93 635 93 l 756 93 l 756 -14 l 683 -14 q 618 -31 638 -14 q 599 -92 599 -49 q 618 -149 599 -135 q 706 -162 638 -162 q 797 -158 774 -162 l 797 -267 q 678 -271 779 -271 q 478 -90 478 -271 q 524 38 478 -6 q 476 165 476 81 q 665 346 476 340 l 665 496 q 575 561 665 561 q 485 476 485 561 l 485 367 l 365 367 l 365 476 q 345 539 365 517 q 274 561 325 561 q 204 539 224 561 q 185 475 185 517 l 185 228 q 213 140 185 171 q 314 110 240 110 l 353 110 l 353 0 l 308 0 q 64 225 64 0 l 64 478 q 117 622 64 571 q 274 672 169 672 q 422 606 379 672 q 569 671 471 671 q 665 646 643 671 l 665 808 l -40 808 l -40 911 l 914 911 l 914 808 l 786 808 l 786 242 z "},"।":{"ha":411,"x_min":203,"x_max":322,"o":"m 203 0 l 203 911 l 322 911 l 322 0 l 203 0 z "},"॥":{"ha":618,"x_min":126,"x_max":531,"o":"m 410 0 l 410 911 l 531 911 l 531 0 l 410 0 m 126 0 l 126 911 l 247 911 l 247 0 l 126 0 z "},"०":{"ha":629,"x_min":72,"x_max":557,"o":"m 426 724 q 314 838 426 838 q 228 808 253 838 q 203 724 203 779 l 203 218 q 228 133 203 163 q 314 104 253 104 q 426 218 426 104 l 426 724 m 72 726 q 132 893 72 831 q 315 956 192 956 q 497 893 438 956 q 557 726 557 831 l 557 214 q 497 48 557 110 q 315 -14 438 -14 q 132 48 192 -14 q 72 214 72 110 l 72 726 z "},"१":{"ha":403,"x_min":17,"x_max":317,"o":"m 317 942 l 317 0 l 186 0 l 186 796 l 17 674 l 17 819 l 185 942 l 317 942 z "},"२":{"ha":574,"x_min":57,"x_max":513,"o":"m 251 949 q 513 740 513 949 l 513 660 q 488 537 513 586 q 407 447 464 488 l 294 363 q 210 286 231 317 q 189 199 189 256 l 189 118 l 511 118 l 511 0 l 57 0 l 57 208 q 92 344 57 293 q 196 444 126 396 l 314 536 q 368 593 354 563 q 382 676 382 624 l 382 729 q 354 803 382 779 q 240 828 326 828 q 72 796 153 828 l 72 922 q 251 949 149 949 z "},"३":{"ha":557,"x_min":36,"x_max":485,"o":"m 217 949 q 481 739 481 949 l 481 643 q 381 476 481 511 q 485 318 485 449 l 485 203 q 419 48 485 103 q 230 -7 353 -7 q 36 19 107 -7 l 36 144 q 207 113 121 113 q 324 138 293 113 q 354 214 354 164 l 354 303 q 328 384 354 357 q 240 411 301 411 l 142 411 l 142 532 l 239 532 q 324 561 299 532 q 349 646 349 590 l 349 729 q 319 803 349 778 q 203 829 290 829 q 54 806 117 829 l 54 929 q 217 949 113 949 z "},"४":{"ha":586,"x_min":14,"x_max":579,"o":"m 579 286 l 579 171 l 486 171 l 486 0 l 361 0 l 361 171 l 14 171 l 14 292 l 301 942 l 486 942 l 486 286 l 579 286 m 364 286 l 364 818 l 131 286 l 364 286 z "},"५":{"ha":590,"x_min":72,"x_max":526,"o":"m 79 942 l 501 942 l 501 821 l 208 821 l 208 564 q 311 569 257 569 q 472 515 418 569 q 526 360 526 461 l 526 203 q 460 48 526 103 q 276 -7 394 -7 q 72 22 157 -7 l 72 147 q 253 113 174 113 q 363 138 332 113 q 394 213 394 164 l 394 346 q 369 426 394 401 q 281 451 344 451 q 79 436 250 451 l 79 942 z "},"६":{"ha":614,"x_min":72,"x_max":557,"o":"m 426 383 q 321 483 426 483 q 203 457 250 483 l 203 217 q 315 101 203 101 q 426 217 426 101 l 426 383 m 72 717 q 137 885 72 821 q 325 949 201 949 q 519 922 449 949 l 519 799 q 340 828 446 828 q 203 707 203 828 l 203 572 q 351 597 257 597 q 501 544 444 597 q 557 392 557 492 l 557 214 q 497 48 557 110 q 315 -14 438 -14 q 132 48 192 -14 q 72 214 72 110 l 72 717 z "},"७":{"ha":481,"x_min":7,"x_max":451,"o":"m 7 942 l 451 942 l 451 838 l 350 525 q 283 139 283 317 l 283 0 l 150 0 l 150 147 q 219 540 150 328 l 308 822 l 7 822 l 7 942 z "},"८":{"ha":640,"x_min":72,"x_max":568,"o":"m 567 732 l 567 639 q 479 469 567 517 q 568 299 568 421 l 568 208 q 506 46 568 106 q 320 -14 444 -14 q 134 46 196 -14 q 72 208 72 106 l 72 299 q 161 469 72 421 q 74 639 74 517 l 74 732 q 135 895 74 835 q 320 956 196 956 q 506 896 444 956 q 567 732 567 836 m 204 732 l 204 636 q 320 522 204 522 q 436 636 436 522 l 436 732 q 320 842 436 842 q 204 732 204 842 m 439 210 l 439 301 q 320 417 439 417 q 201 301 201 417 l 201 210 q 320 100 201 100 q 439 210 439 100 z "},"९":{"ha":614,"x_min":57,"x_max":542,"o":"m 411 725 q 299 840 411 840 q 188 725 188 840 l 188 553 q 294 447 188 447 q 411 474 372 447 l 411 725 m 57 726 q 117 893 57 831 q 300 956 176 956 q 483 894 424 956 q 542 726 542 832 l 542 211 q 475 52 542 111 q 284 -7 408 -7 q 86 21 160 -7 l 86 146 q 272 113 171 113 q 411 222 411 113 l 411 357 q 265 332 361 332 q 113 387 168 332 q 57 542 57 442 l 57 726 z "},"॰":{"ha":543,"x_min":68,"x_max":479,"o":"m 196 543 q 185 529 196 543 q 175 458 175 515 q 196 374 175 401 q 274 346 217 346 q 351 374 331 346 q 372 458 372 403 q 351 542 372 514 q 274 571 331 571 q 196 543 217 571 m 479 459 q 479 352 479 459 q 274 246 479 246 q 68 459 68 246 q 274 672 68 672 q 479 459 479 672 z "},"ॲ":{"ha":800,"x_min":53,"x_max":894,"o":"m 776 1190 l 894 1190 l 894 1188 q 834 1044 894 1089 q 652 1000 774 1000 q 469 1044 531 1000 q 408 1188 408 1089 l 408 1190 l 526 1190 q 555 1124 526 1143 q 651 1106 583 1106 q 748 1124 719 1106 q 776 1190 776 1143 m 590 400 l 590 911 l 839 911 l 839 808 l 711 808 l 711 0 l 590 0 l 590 296 l 447 296 l 447 251 q 206 49 444 49 q 53 68 118 49 l 53 181 q 204 158 135 158 q 328 254 328 158 l 328 342 q 306 413 328 389 q 225 438 285 438 l 142 438 l 142 550 l 225 550 q 306 574 285 550 q 328 643 328 597 l 328 711 q 206 807 328 807 q 69 786 139 807 l 69 899 q 206 918 128 918 q 447 715 447 918 l 447 643 q 379 494 447 526 q 442 400 431 468 l 590 400 z "},"ॽ":{"ha":614,"x_min":81,"x_max":546,"o":"m 81 606 l 81 739 q 138 892 81 836 q 314 949 194 949 q 490 892 433 949 q 546 739 546 835 l 546 476 q 501 327 546 381 q 349 268 456 274 l 349 0 l 235 0 l 235 376 l 314 376 q 402 405 379 376 q 425 483 425 433 l 425 736 q 313 838 425 838 q 201 736 201 838 l 201 606 l 81 606 z "},"​":{"ha":0,"x_min":0,"x_max":0,"o":""},"‌":{"ha":0,"x_min":-32,"x_max":33,"o":"m 33 -319 l -32 -319 l -32 1126 l 33 1126 l 33 -319 z "},"‍":{"ha":0,"x_min":-176,"x_max":179,"o":"m 33 -319 l -32 -319 l -32 882 l -128 781 l -174 826 l -44 956 l -176 1088 l -131 1133 l 1 1001 l 135 1133 l 179 1089 l 46 956 l 179 824 l 133 778 l 33 882 l 33 -319 z "},"–":{"ha":650,"x_min":56,"x_max":581,"o":"m 56 508 l 581 508 l 581 399 l 56 399 l 56 508 z "},"—":{"ha":975,"x_min":56,"x_max":904,"o":"m 56 510 l 904 510 l 904 399 l 56 399 l 56 510 z "},"‘":{"ha":240,"x_min":39,"x_max":201,"o":"m 97 701 q 39 757 39 701 q 72 872 39 797 q 138 999 106 946 l 201 999 l 144 701 l 97 701 z "},"’":{"ha":240,"x_min":39,"x_max":201,"o":"m 143 999 q 201 943 201 999 q 103 701 201 871 l 39 701 l 96 999 l 143 999 z "},"‚":{"ha":240,"x_min":39,"x_max":201,"o":"m 143 142 q 201 86 201 142 q 103 -156 201 14 l 39 -156 l 96 142 l 143 142 z "},"“":{"ha":417,"x_min":39,"x_max":378,"o":"m 97 701 q 39 757 39 701 q 72 872 39 797 q 138 999 106 946 l 196 999 l 139 701 l 97 701 m 279 701 q 221 757 221 701 q 318 999 221 832 l 378 999 l 321 701 l 279 701 z "},"”":{"ha":417,"x_min":39,"x_max":378,"o":"m 138 999 q 196 943 196 999 q 163 828 196 903 q 97 701 129 754 l 39 701 l 96 999 l 138 999 m 319 999 q 378 943 378 999 q 344 828 378 903 q 279 701 311 754 l 221 701 l 276 999 l 319 999 z "},"„":{"ha":417,"x_min":39,"x_max":378,"o":"m 138 142 q 196 86 196 142 q 163 -28 196 46 q 97 -156 129 -103 l 39 -156 l 96 142 l 138 142 m 319 142 q 378 86 378 142 q 344 -28 378 46 q 279 -156 311 -103 l 221 -156 l 276 142 l 319 142 z "},"†":{"ha":506,"x_min":56,"x_max":453,"o":"m 194 1103 l 314 1103 l 304 901 q 453 911 372 911 l 453 808 q 304 818 394 808 q 314 599 314 711 l 314 -40 l 194 -40 l 194 599 q 204 818 194 679 q 56 808 140 808 l 56 911 q 204 901 119 911 q 194 1103 194 1008 z "},"‡":{"ha":506,"x_min":54,"x_max":451,"o":"m 193 1103 l 313 1103 l 303 901 q 451 911 367 911 l 451 808 q 303 818 388 808 q 303 244 308 535 q 451 254 367 254 l 451 151 q 303 161 367 151 q 313 -40 313 86 l 193 -40 q 203 161 193 83 q 54 151 139 151 l 54 254 q 203 244 139 254 q 203 818 197 533 q 54 808 139 808 l 54 911 q 203 901 118 911 q 193 1103 193 1008 z "},"•":{"ha":367,"x_min":71,"x_max":294,"o":"m 183 346 q 127 346 183 346 q 71 457 71 346 q 183 568 71 568 q 294 457 294 568 q 183 346 294 346 z "},"…":{"ha":854,"x_min":71,"x_max":764,"o":"m 417 -3 q 382 -3 417 -3 q 346 69 346 -3 q 417 140 346 140 q 489 69 489 140 q 417 -3 489 -3 m 142 -3 q 107 -3 142 -3 q 71 69 71 -3 q 142 140 71 140 q 214 69 214 140 q 142 -3 214 -3 m 692 -3 q 657 -3 692 -3 q 621 69 621 -3 q 692 140 621 140 q 764 69 764 140 q 692 -3 764 -3 z "},"‰":{"ha":1235,"x_min":49,"x_max":1190,"o":"m 1024 -11 q 940 -11 1024 -11 q 857 199 857 -11 q 1024 408 857 408 q 1190 199 1190 408 q 1024 -11 1190 -11 m 1023 79 q 1058 79 1023 79 q 1093 199 1093 79 q 1023 318 1093 318 q 953 199 953 318 q 1023 79 953 79 m 633 -11 q 467 199 467 -11 q 634 408 467 408 q 801 199 801 408 q 760 44 801 100 q 633 -11 718 -11 m 633 79 q 668 79 633 79 q 703 199 703 79 q 633 318 703 318 q 563 199 563 318 q 633 79 563 79 m 90 589 q 69 617 90 589 q 49 743 49 644 q 90 897 49 842 q 215 953 132 953 q 383 743 383 953 q 215 533 383 533 q 90 589 132 533 m 146 742 q 146 682 146 742 q 215 622 146 622 q 285 742 285 622 q 215 863 285 863 q 146 742 146 863 m 576 942 l 669 942 l 274 0 l 181 0 l 576 942 z "},"‹":{"ha":556,"x_min":117,"x_max":418,"o":"m 285 701 l 418 701 l 249 447 l 418 193 l 285 193 l 117 447 l 285 701 z "},"›":{"ha":528,"x_min":117,"x_max":418,"o":"m 117 701 l 250 701 l 418 447 l 250 193 l 117 193 l 286 447 l 117 701 z "},"⁄":{"ha":378,"x_min":-101,"x_max":481,"o":"m 390 942 l 481 942 l -11 0 l -101 0 l 390 942 z "},"⁴":{"ha":429,"x_min":22,"x_max":421,"o":"m 268 608 l 268 954 l 107 608 l 268 608 m 356 1026 l 356 608 l 421 608 l 421 528 l 356 528 l 356 401 l 268 401 l 268 528 l 22 528 l 22 611 l 218 1026 l 356 1026 z "},"€":{"ha":592,"x_min":22,"x_max":531,"o":"m 226 338 l 226 210 q 257 136 226 161 q 369 111 288 111 q 531 133 451 111 l 531 15 q 361 -7 458 -7 q 94 201 94 -7 l 94 338 l 22 338 l 22 429 l 94 429 l 94 525 l 22 525 l 22 615 l 94 615 l 94 740 q 161 894 94 839 q 363 949 228 949 q 526 928 451 949 l 526 807 q 365 831 444 831 q 256 806 286 831 q 226 731 226 781 l 226 615 l 419 615 l 419 525 l 226 525 l 226 429 l 419 429 l 419 338 l 226 338 z "},"₹":{"ha":650,"x_min":67,"x_max":594,"o":"m 478 597 l 478 575 q 424 417 478 465 q 243 369 369 369 l 204 369 l 489 0 l 347 0 l 67 369 l 67 472 l 240 472 q 337 497 313 472 q 361 578 361 521 l 361 597 l 68 597 l 68 690 l 361 690 l 361 722 q 256 808 361 808 l 67 808 l 67 911 l 593 911 l 593 808 l 438 808 q 478 719 478 778 l 478 690 l 594 690 l 594 597 l 478 597 z "},"ℓ":{"ha":585,"x_min":24,"x_max":538,"o":"m 24 290 q 124 360 65 322 l 124 799 q 175 963 124 906 q 327 1021 226 1021 q 483 958 428 1021 q 538 778 538 894 q 251 300 538 515 l 251 189 q 335 110 251 110 q 425 126 367 110 l 425 8 q 412 6 424 8 q 388 0 400 3 q 315 -8 350 -8 q 124 181 124 -8 l 124 213 q 24 147 40 160 l 24 290 m 251 799 l 251 463 q 408 778 408 611 q 330 899 408 899 q 251 799 251 899 z "},"™":{"ha":808,"x_min":113,"x_max":719,"o":"m 719 981 l 719 640 l 653 640 l 653 819 l 668 953 l 585 640 l 529 640 l 446 953 l 461 819 l 461 640 l 393 640 l 393 981 l 497 981 l 546 786 l 557 721 l 568 786 l 617 981 l 719 981 m 113 922 l 113 981 l 364 981 l 364 922 l 274 922 l 274 640 l 203 640 l 203 922 l 113 922 z "},"Ω":{"ha":715,"x_min":58,"x_max":658,"o":"m 106 726 q 169 893 106 831 q 358 956 233 956 q 547 893 483 956 q 610 726 610 831 l 610 233 q 564 114 610 144 l 658 114 l 658 0 l 406 0 l 406 113 q 479 219 479 125 l 479 722 q 358 836 479 836 q 236 722 236 836 l 236 219 q 311 113 236 125 l 311 0 l 58 0 l 58 114 l 153 114 q 106 233 106 146 l 106 726 z "},"℮":{"ha":936,"x_min":83,"x_max":860,"o":"m 665 651 q 479 704 594 704 q 293 644 364 704 l 293 432 l 665 432 l 665 651 m 489 -14 q 194 97 306 -14 q 83 381 83 207 q 194 667 83 554 q 481 779 304 779 q 758 676 657 779 q 860 401 860 574 q 857 360 860 393 l 293 360 l 293 122 q 492 63 374 63 q 772 208 689 63 l 838 169 q 489 -14 731 -14 z "},"∂":{"ha":629,"x_min":79,"x_max":551,"o":"m 315 521 q 206 414 206 521 l 206 213 q 315 104 206 104 q 424 211 424 104 l 424 486 q 315 521 392 521 m 551 428 l 551 208 q 492 48 551 107 q 314 -11 432 -11 q 138 48 196 -11 q 79 208 79 107 l 79 417 q 286 625 79 625 q 404 579 365 625 q 190 942 354 768 l 347 942 q 488 719 424 857 q 551 428 551 582 z "},"∆":{"ha":658,"x_min":81,"x_max":593,"o":"m 408 942 l 593 0 l 81 0 l 265 942 l 408 942 m 338 779 l 215 117 l 458 117 l 338 779 z "},"∏":{"ha":675,"x_min":86,"x_max":589,"o":"m 86 942 l 589 942 l 589 0 l 456 0 l 456 825 l 218 825 l 218 0 l 86 0 l 86 942 z "},"∑":{"ha":549,"x_min":38,"x_max":506,"o":"m 38 942 l 506 942 l 506 829 l 179 829 l 344 471 l 179 113 l 506 113 l 506 0 l 38 0 l 38 108 l 206 471 l 38 832 l 38 942 z "},"−":{"ha":632,"x_min":56,"x_max":575,"o":"m 56 508 l 575 508 l 575 399 l 56 399 l 56 508 z "},"∕":{"ha":378,"x_min":-56,"x_max":433,"o":"m 340 942 l 433 942 l 39 0 l -56 0 l 340 942 z "},"∙":{"ha":249,"x_min":47,"x_max":200,"o":"m 124 393 q 85 393 124 393 q 47 469 47 393 q 124 546 47 546 q 200 469 200 546 q 124 393 200 393 z "},"√":{"ha":610,"x_min":43,"x_max":586,"o":"m 43 358 l 43 472 l 219 472 l 303 126 l 460 942 l 586 942 l 394 0 l 213 0 l 124 358 l 43 358 z "},"∞":{"ha":914,"x_min":57,"x_max":857,"o":"m 456 553 q 659 683 550 683 q 813 626 768 683 q 857 467 857 569 q 813 307 857 364 q 661 250 768 250 q 547 284 594 250 q 456 381 500 318 q 253 251 363 251 q 101 308 144 251 q 57 467 57 364 q 101 626 57 569 q 254 683 144 683 q 456 553 364 683 m 257 360 q 397 465 325 360 q 257 572 325 572 q 188 547 203 572 q 172 465 172 521 q 188 385 172 410 q 257 360 204 360 m 515 467 q 650 360 589 360 q 726 385 711 360 q 742 465 742 410 q 725 547 742 521 q 656 572 708 572 q 515 467 588 572 z "},"∫":{"ha":388,"x_min":19,"x_max":339,"o":"m 114 940 q 172 1094 114 1043 q 339 1143 231 1146 l 339 1029 q 267 1009 290 1029 q 244 942 244 989 l 244 3 q 186 -152 244 -100 q 19 -201 128 -204 l 19 -86 q 91 -67 68 -86 q 114 0 114 -47 l 114 940 z "},"≈":{"ha":710,"x_min":51,"x_max":657,"o":"m 657 626 q 583 495 657 528 q 424 501 510 463 l 279 558 q 194 568 229 583 q 168 496 158 553 l 57 496 q 51 549 51 521 q 86 653 51 614 q 285 674 150 721 l 429 617 q 517 606 483 590 q 542 679 551 622 l 651 679 q 657 626 657 656 m 657 385 q 583 253 657 286 q 424 260 510 221 l 279 317 q 194 326 229 342 q 168 254 158 311 l 57 254 q 51 307 51 279 q 86 411 51 372 q 285 432 150 479 l 429 375 q 517 365 483 349 q 542 438 551 381 l 651 438 q 657 385 657 414 z "},"≠":{"ha":639,"x_min":58,"x_max":576,"o":"m 576 528 l 403 528 l 343 379 l 576 379 l 576 269 l 299 269 l 243 132 l 136 132 l 192 269 l 58 269 l 58 379 l 236 379 l 297 528 l 58 528 l 58 638 l 342 638 l 399 778 l 504 778 l 447 638 l 576 638 l 576 528 z "},"≤":{"ha":639,"x_min":56,"x_max":574,"o":"m 574 771 l 574 654 l 167 510 l 574 365 l 574 247 l 56 444 l 56 572 l 574 771 m 56 103 l 56 214 l 574 214 l 574 103 l 56 103 z "},"≥":{"ha":639,"x_min":64,"x_max":582,"o":"m 64 771 l 582 572 l 582 444 l 64 247 l 64 365 l 471 510 l 64 654 l 64 771 m 64 103 l 64 214 l 582 214 l 582 103 l 64 103 z "},"◊":{"ha":599,"x_min":40,"x_max":558,"o":"m 426 399 l 300 703 l 172 399 l 300 94 l 426 399 m 218 799 l 382 799 l 558 399 l 382 0 l 218 0 l 40 399 l 218 799 z "},"◌":{"ha":917,"x_min":61,"x_max":856,"o":"m 374 733 q 366 742 374 733 q 357 778 357 750 q 374 822 357 806 q 418 839 392 839 q 462 822 444 839 q 479 778 479 806 q 462 733 479 750 q 418 717 444 717 q 374 733 392 717 m 594 696 q 581 696 594 696 q 550 714 568 696 q 532 758 532 732 q 549 801 532 783 q 594 819 567 819 q 638 802 621 819 q 654 758 654 785 q 637 714 654 732 q 594 696 619 696 m 681 619 q 673 627 681 619 q 664 663 664 636 q 681 707 664 689 q 725 725 699 725 q 769 708 751 725 q 786 663 786 690 q 769 619 786 636 q 725 601 751 601 q 681 619 699 601 m 750 455 q 742 464 750 455 q 733 499 733 472 q 750 542 733 525 q 794 560 767 560 q 838 542 821 560 q 856 499 856 525 q 838 455 856 472 q 794 438 821 438 q 750 455 767 438 m 738 269 q 728 277 738 269 q 719 313 719 286 q 738 357 719 339 q 781 375 756 375 q 824 357 807 375 q 842 313 842 339 q 824 269 842 286 q 781 251 807 251 q 738 269 756 251 m 635 133 q 627 141 635 133 q 618 176 618 150 q 635 220 618 203 q 679 238 653 238 q 724 220 706 238 q 742 176 742 203 q 724 133 742 150 q 679 115 706 115 q 635 133 653 115 m 467 58 q 458 67 467 58 q 450 103 450 75 q 467 147 450 131 q 511 164 483 164 q 556 147 539 164 q 574 103 574 129 q 556 59 574 76 q 511 42 539 42 q 467 58 483 42 m 336 61 q 323 61 336 61 q 292 79 310 61 q 274 124 274 97 q 292 168 274 150 q 336 186 310 186 q 380 168 363 186 q 397 124 397 150 q 380 79 397 97 q 336 61 363 61 m 150 185 q 142 194 150 185 q 133 229 133 203 q 151 273 133 256 q 194 290 168 290 q 238 273 221 290 q 256 229 256 256 q 238 185 256 203 q 194 168 221 168 q 150 185 167 168 m 78 347 q 70 356 78 347 q 61 390 61 364 q 78 435 61 417 q 122 453 96 453 q 166 435 149 453 q 183 391 183 418 q 166 347 183 364 q 122 331 149 331 q 78 347 96 331 m 97 522 q 88 530 97 522 q 79 565 79 539 q 97 609 79 592 q 142 626 115 626 q 186 609 168 626 q 204 565 204 592 q 186 522 204 539 q 142 504 168 504 q 97 522 115 504 m 254 656 q 241 656 254 656 q 210 673 228 656 q 193 717 193 690 q 210 762 193 744 q 254 779 228 779 q 298 762 281 779 q 315 717 315 744 q 298 673 315 690 q 254 656 281 656 z "},"":{"ha":486,"x_min":181,"x_max":304,"o":"m 264 -85 q 304 -127 304 -85 q 235 -267 304 -169 l 181 -267 l 218 -85 l 264 -85 z "},"ﬁ":{"ha":667,"x_min":35,"x_max":581,"o":"m 581 799 l 581 0 l 450 0 l 450 692 l 244 692 l 244 0 l 114 0 l 114 692 l 35 692 l 35 799 l 114 799 l 114 828 q 371 1033 114 1033 q 547 1014 464 1033 l 547 907 q 388 926 469 926 q 276 903 307 926 q 244 829 244 881 l 244 799 l 581 799 z "},"ﬂ":{"ha":667,"x_min":35,"x_max":581,"o":"m 581 1011 l 581 0 l 451 0 l 451 922 q 372 928 399 928 q 274 904 303 928 q 244 829 244 881 l 244 799 l 364 799 l 364 692 l 244 692 l 244 0 l 114 0 l 114 692 l 35 692 l 35 799 l 114 799 l 114 828 q 363 1033 114 1033 q 531 1011 442 1033 l 581 1011 z "}}}
